{
.appVersion = "117";
DisplayStrings = (
"0",
"/zero.sc"
);
copyright = "Copyright (c) 2016-2022 Apple Inc. All rights reserved.";
customParameters = (
{
name = "Family Alignment Zones";
value = (
"{681, 11}",
"{537, 11}",
"{0, -12}",
"{-169, -27}"
);
}
);
date = "2022-07-23 00:07:59 +0000";
designer = "Apple Inc.";
designerURL = "http://www.apple.com/";
familyName = "SF Mono";
featurePrefixes = (
{
automatic = 1;
code = "languagesystem DFLT dflt;\012languagesystem latn dflt;\012languagesystem latn CAT;\012languagesystem latn ROM;\012languagesystem latn MOL;\012languagesystem latn KAZ;\012languagesystem latn TAT;\012languagesystem latn TRK;\012languagesystem latn CRT;\012languagesystem latn AZE;\012";
name = Languagesystems;
}
);
features = (
{
automatic = 1;
code = "feature locl;\012feature frac;\012feature ordn;\012feature smcp;\012";
name = aalt;
},
{
automatic = 1;
code = "script latn;\012language CAT;\012sub  l' periodcentered' l by ldot;\012sub  L' periodcentered' L by Ldot;\012language ROM;\012sub Scedilla by Scommaaccent;\012sub scedilla by scommaaccent;\012sub Tcedilla by Tcommaaccent;\012sub tcedilla by tcommaaccent;\012language MOL;\012sub Scedilla by Scommaaccent;\012sub scedilla by scommaaccent;\012sub Tcedilla by Tcommaaccent;\012sub tcedilla by tcommaaccent;\012language KAZ;\012sub i by idotaccent;\012language TAT;\012sub i by idotaccent;\012language TRK;\012sub i by idotaccent;\012language CRT;\012sub i by idotaccent;\012language AZE;\012sub i by idotaccent;\012";
name = locl;
},
{
automatic = 1;
code = "sub one slash four by onequarter;\012sub one slash two by onehalf;\012sub three slash four by threequarters;\012";
name = frac;
},
{
automatic = 1;
code = "sub [zero one two three four five six seven eight nine] [A a]' by ordfeminine;\012sub [zero one two three four five six seven eight nine] [O o]' by ordmasculine;\012sub N o period by numero;\012";
name = ordn;
},
{
automatic = 1;

glyphs = (
{
glyphname = A;
layers = (
{
layerId = "2811F81C-6B8F-4884-92F2-C07A91FF888C";
paths = (
{
closed = 1;
nodes = (
"1006 0 LINE",
"1192 0 LINE",
"727 1443 LINE",
"539 1443 LINE",
"74 0 LINE",
"253 0 LINE",
"379 414 LINE",
"881 414 LINE"
);
},
{
closed = 1;
nodes = (
"628 1231 LINE",
"633 1231 LINE",
"835 565 LINE",
"425 565 LINE"
);
}
);
width = 1266;
}
);
note = A;
unicode = 0041;
},
{
glyphname = Aacute;
layers = (
{
layerId = "2811F81C-6B8F-4884-92F2-C07A91FF888C";
paths = (
{
closed = 1;
nodes = (
"517 1612 LINE",
"702 1612 LINE",
"1025 1916 LINE",
"818 1916 LINE"
);
},
{
closed = 1;
nodes = (
"1006 0 LINE",
"1192 0 LINE",
"727 1443 LINE",
"539 1443 LINE",
"74 0 LINE",
"253 0 LINE",
"379 414 LINE",
"881 414 LINE"
);
},
{
closed = 1;
nodes = (
"628 1231 LINE",
"633 1231 LINE",
"835 565 LINE",
"425 565 LINE"
);
}
);
width = 1266;
}
);
note = Aacute;
unicode = 00C1;
},
{
glyphname = Abreve;
layers = (
{
layerId = "2811F81C-6B8F-4884-92F2-C07A91FF888C";
paths = (
{
closed = 1;
nodes = (
"288 1918 LINE",
"288 1736 OFFCURVE",
"428 1609 OFFCURVE",
"633 1609 CURVE SMOOTH",
"838 1609 OFFCURVE",
"978 1736 OFFCURVE",
"978 1918 CURVE",
"840 1918 LINE",
"839 1807 OFFCURVE",
"754 1727 OFFCURVE",
"633 1727 CURVE SMOOTH",
"512 1727 OFFCURVE",
"427 1807 OFFCURVE",
"426 1918 CURVE"
);
},
{
closed = 1;
nodes = (
"1006 0 LINE",
"1192 0 LINE",
"727 1443 LINE",
"539 1443 LINE",
"74 0 LINE",
"253 0 LINE",
"379 414 LINE",
"881 414 LINE"
);
},
{
closed = 1;
nodes = (
"628 1231 LINE",
"633 1231 LINE",
"835 565 LINE",
"425 565 LINE"
);
}
);
width = 1266;
}
);
note = Abreve;
unicode = 0102;
},
{
glyphname = Abreveacute;
layers = (
{
layerId = "2811F81C-6B8F-4884-92F2-C07A91FF888C";
paths = (
{
closed = 1;
nodes = (
"521 1862 LINE",
"678 1862 LINE",
"867 2083 LINE",
"685 2083 LINE"
);
},
{
closed = 1;
nodes = (
"288 1857 LINE",
"288 1687 OFFCURVE",
"419 1578 OFFCURVE",
"633 1578 CURVE SMOOTH",
"847 1578 OFFCURVE",
"978 1687 OFFCURVE",
"978 1857 CURVE",
"840 1857 LINE",
"839 1757 OFFCURVE",
"762 1696 OFFCURVE",
"633 1696 CURVE SMOOTH",
"504 1696 OFFCURVE",
"427 1757 OFFCURVE",
"426 1857 CURVE"
);
},
{
closed = 1;
nodes = (
"1006 0 LINE",
"1192 0 LINE",
"727 1443 LINE",
"539 1443 LINE",
"74 0 LINE",
"253 0 LINE",
"379 414 LINE",
"881 414 LINE"
);
},
{
closed = 1;
nodes = (
"628 1231 LINE",
"633 1231 LINE",
"835 565 LINE",
"425 565 LINE"
);
}
);
width = 1266;
}
);
note = Abreveacute;
unicode = 1EAE;
},
{
glyphname = Abrevedotbelow;
layers = (
{
layerId = "2811F81C-6B8F-4884-92F2-C07A91FF888C";
paths = (
{
closed = 1;
nodes = (
"288 1918 LINE",
"288 1736 OFFCURVE",
"428 1609 OFFCURVE",
"633 1609 CURVE SMOOTH",
"838 1609 OFFCURVE",
"978 1736 OFFCURVE",
"978 1918 CURVE",
"840 1918 LINE",
"839 1807 OFFCURVE",
"754 1727 OFFCURVE",
"633 1727 CURVE SMOOTH",
"512 1727 OFFCURVE",
"427 1807 OFFCURVE",
"426 1918 CURVE"
);
},
{
closed = 1;
nodes = (
"1006 0 LINE",
"1192 0 LINE",
"727 1443 LINE",
"539 1443 LINE",
"74 0 LINE",
"253 0 LINE",
"379 414 LINE",
"881 414 LINE"
);
},
{
closed = 1;
nodes = (
"628 1231 LINE",
"633 1231 LINE",
"835 565 LINE",
"425 565 LINE"
);
},
{
closed = 1;
nodes = (
"701 -451 OFFCURVE",
"759 -393 OFFCURVE",
"759 -323 CURVE SMOOTH",
"759 -253 OFFCURVE",
"701 -194 OFFCURVE",
"633 -194 CURVE SMOOTH",
"565 -194 OFFCURVE",
"507 -253 OFFCURVE",
"507 -323 CURVE SMOOTH",
"507 -393 OFFCURVE",
"565 -451 OFFCURVE",
"633 -451 CURVE SMOOTH"
);
}
);
width = 1266;
}
);
note = Abrevedotbelow;
unicode = 1EB6;
},
{
glyphname = Abrevegrave;
layers = (
{
layerId = "2811F81C-6B8F-4884-92F2-C07A91FF888C";
paths = (
{
closed = 1;
nodes = (
"745 1862 LINE",
"581 2083 LINE",
"399 2083 LINE",
"588 1862 LINE"
);
},
{
closed = 1;
nodes = (
"288 1857 LINE",
"288 1687 OFFCURVE",
"419 1578 OFFCURVE",
"633 1578 CURVE SMOOTH",
"847 1578 OFFCURVE",
"978 1687 OFFCURVE",
"978 1857 CURVE",
"840 1857 LINE",
"839 1757 OFFCURVE",
"762 1696 OFFCURVE",
"633 1696 CURVE SMOOTH",
"504 1696 OFFCURVE",
"427 1757 OFFCURVE",
"426 1857 CURVE"
);
},
{
closed = 1;
nodes = (
"1006 0 LINE",
"1192 0 LINE",
"727 1443 LINE",
"539 1443 LINE",
"74 0 LINE",
"253 0 LINE",
"379 414 LINE",
"881 414 LINE"
);
},
{
closed = 1;
nodes = (
"628 1231 LINE",
"633 1231 LINE",
"835 565 LINE",
"425 565 LINE"
);
}
);
width = 1266;
}
);
note = Abrevegrave;
unicode = 1EB0;
},
{
glyphname = Abrevehookabove;
layers = (
{
layerId = "2811F81C-6B8F-4884-92F2-C07A91FF888C";
paths = (
{
closed = 1;
nodes = (
"472 1997 LINE",
"493 2008 OFFCURVE",
"533 2016 OFFCURVE",
"566 2016 CURVE SMOOTH",
"619 2016 OFFCURVE",
"655 1987 OFFCURVE",
"655 1946 CURVE SMOOTH",
"655 1905 OFFCURVE",
"624 1868 OFFCURVE",
"572 1848 CURVE",
"652 1778 LINE",
"731 1808 OFFCURVE",
"781 1877 OFFCURVE",
"781 1956 CURVE SMOOTH",
"781 2052 OFFCURVE",
"707 2115 OFFCURVE",
"597 2115 CURVE SMOOTH",
"548 2115 OFFCURVE",
"497 2107 OFFCURVE",
"472 2096 CURVE"
);
},
{
closed = 1;
nodes = (
"291 1848 LINE",
"291 1679 OFFCURVE",
"421 1573 OFFCURVE",
"633 1573 CURVE SMOOTH",
"845 1573 OFFCURVE",
"975 1679 OFFCURVE",
"975 1848 CURVE",
"842 1848 LINE",
"841 1748 OFFCURVE",
"763 1689 OFFCURVE",
"633 1689 CURVE SMOOTH",
"503 1689 OFFCURVE",
"425 1748 OFFCURVE",
"424 1848 CURVE"
);
},
{
closed = 1;
nodes = (
"1006 0 LINE",
"1192 0 LINE",
"727 1443 LINE",
"539 1443 LINE",
"74 0 LINE",
"253 0 LINE",
"379 414 LINE",
"881 414 LINE"
);
},
{
closed = 1;
nodes = (
"628 1231 LINE",
"633 1231 LINE",
"835 565 LINE",
"425 565 LINE"
);
}
);
width = 1266;
}
);
note = Abrevehookabove;
unicode = 1EB2;
},
{
glyphname = Abrevetilde;
layers = (
{
layerId = "2811F81C-6B8F-4884-92F2-C07A91FF888C";
paths = (
{
closed = 1;
nodes = (
"892 1865 OFFCURVE",
"976 1952 OFFCURVE",
"976 2079 CURVE",
"856 2079 LINE",
"854 2019 OFFCURVE",
"817 1982 OFFCURVE",
"764 1982 CURVE SMOOTH",
"672 1982 OFFCURVE",
"640 2104 OFFCURVE",
"489 2104 CURVE SMOOTH",
"372 2104 OFFCURVE",
"290 2020 OFFCURVE",
"290 1891 CURVE",
"411 1891 LINE",
"412 1951 OFFCURVE",
"447 1988 OFFCURVE",
"502 1988 CURVE SMOOTH",
"594 1988 OFFCURVE",
"626 1865 OFFCURVE",
"777 1865 CURVE SMOOTH"
);
},
{
closed = 1;
nodes = (
"292 1814 LINE",
"292 1683 OFFCURVE",
"437 1578 OFFCURVE",
"633 1578 CURVE SMOOTH",
"829 1578 OFFCURVE",
"974 1683 OFFCURVE",
"974 1814 CURVE",
"838 1814 LINE",
"838 1749 OFFCURVE",
"748 1694 OFFCURVE",
"633 1694 CURVE SMOOTH",
"518 1694 OFFCURVE",
"428 1749 OFFCURVE",
"428 1814 CURVE"
);
},
{
closed = 1;
nodes = (
"1006 0 LINE",
"1192 0 LINE",
"727 1443 LINE",
"539 1443 LINE",
"74 0 LINE",
"253 0 LINE",
"379 414 LINE",
"881 414 LINE"
);
},
{
closed = 1;
nodes = (
"628 1231 LINE",
"633 1231 LINE",
"835 565 LINE",
"425 565 LINE"
);
}
);
width = 1266;
}
);
note = Abrevetilde;
unicode = 1EB4;
},
{
glyphname = Acaron;
layers = (
{
layerId = "2811F81C-6B8F-4884-92F2-C07A91FF888C";
paths = (
{
closed = 1;
nodes = (
"713 1610 LINE",
"999 1919 LINE",
"820 1919 LINE",
"640 1719 LINE",
"626 1719 LINE",
"446 1919 LINE",
"267 1919 LINE",
"553 1610 LINE"
);
},
{
closed = 1;
nodes = (
"1006 0 LINE",
"1192 0 LINE",
"727 1443 LINE",
"539 1443 LINE",
"74 0 LINE",
"253 0 LINE",
"379 414 LINE",
"881 414 LINE"
);
},
{
closed = 1;
nodes = (
"628 1231 LINE",
"633 1231 LINE",
"835 565 LINE",
"425 565 LINE"
);
}
);
width = 1266;
}
);
note = Acaron;
unicode = 01CD;
},
{
glyphname = Acircumflex;
layers = (
{
layerId = "2811F81C-6B8F-4884-92F2-C07A91FF888C";
paths = (
{
closed = 1;
nodes = (
"713 1921 LINE",
"553 1921 LINE",
"267 1612 LINE",
"446 1612 LINE",
"626 1812 LINE",
"640 1812 LINE",
"820 1612 LINE",
"999 1612 LINE"
);
},
{
closed = 1;
nodes = (
"1006 0 LINE",
"1192 0 LINE",
"727 1443 LINE",
"539 1443 LINE",
"74 0 LINE",
"253 0 LINE",
"379 414 LINE",
"881 414 LINE"
);
},
{
closed = 1;
nodes = (
"628 1231 LINE",
"633 1231 LINE",
"835 565 LINE",
"425 565 LINE"
);
}
);
width = 1266;
}
);
note = Acircumflex;
unicode = 00C2;
},
{
glyphname = Acircumflexacute;
layers = (
{
layerId = "2811F81C-6B8F-4884-92F2-C07A91FF888C";
paths = (
{
closed = 1;
nodes = (
"835 1844 LINE",
"1005 1844 LINE",
"1240 2083 LINE",
"1048 2083 LINE"
);
},
{
closed = 1;
nodes = (
"723 1813 LINE",
"543 1813 LINE",
"261 1578 LINE",
"455 1578 LINE",
"626 1724 LINE",
"640 1724 LINE",
"811 1578 LINE",
"1005 1578 LINE"
);
},
{
closed = 1;
nodes = (
"1006 0 LINE",
"1192 0 LINE",
"727 1443 LINE",
"539 1443 LINE",
"74 0 LINE",
"253 0 LINE",
"379 414 LINE",
"881 414 LINE"
);
},
{
closed = 1;
nodes = (
"628 1231 LINE",
"633 1231 LINE",
"835 565 LINE",
"425 565 LINE"
);
}
);
width = 1266;
}
);
note = Acircumflexacute;
unicode = 1EA4;
},
{
glyphname = Acircumflexdotbelow;
layers = (
{
layerId = "2811F81C-6B8F-4884-92F2-C07A91FF888C";
paths = (
{
closed = 1;
nodes = (
"713 1921 LINE",
"553 1921 LINE",
"267 1612 LINE",
"446 1612 LINE",
"626 1812 LINE",
"640 1812 LINE",
"820 1612 LINE",
"999 1612 LINE"
);
},
{
closed = 1;
nodes = (
"1006 0 LINE",
"1192 0 LINE",
"727 1443 LINE",
"539 1443 LINE",
"74 0 LINE",
"253 0 LINE",
"379 414 LINE",
"881 414 LINE"
);
},
{
closed = 1;
nodes = (
"628 1231 LINE",
"633 1231 LINE",
"835 565 LINE",
"425 565 LINE"
);
},
{
closed = 1;
nodes = (
"701 -451 OFFCURVE",
"759 -393 OFFCURVE",
"759 -323 CURVE SMOOTH",
"759 -253 OFFCURVE",
"701 -194 OFFCURVE",
"633 -194 CURVE SMOOTH",
"565 -194 OFFCURVE",
"507 -253 OFFCURVE",
"507 -323 CURVE SMOOTH",
"507 -393 OFFCURVE",
"565 -451 OFFCURVE",
"633 -451 CURVE SMOOTH"
);
}
);
width = 1266;
}
);
note = Acircumflexdotbelow;
unicode = 1EAC;
},
{
glyphname = Acircumflexgrave;
layers = (
{
layerId = "2811F81C-6B8F-4884-92F2-C07A91FF888C";
paths = (
{
closed = 1;
nodes = (
"1070 1844 LINE",
"857 2083 LINE",
"666 2083 LINE",
"900 1844 LINE"
);
},
{
closed = 1;
nodes = (
"723 1813 LINE",
"543 1813 LINE",
"261 1578 LINE",
"455 1578 LINE",
"626 1724 LINE",
"640 1724 LINE",
"811 1578 LINE",
"1005 1578 LINE"
);
},
{
closed = 1;
nodes = (
"1006 0 LINE",
"1192 0 LINE",
"727 1443 LINE",
"539 1443 LINE",
"74 0 LINE",
"253 0 LINE",
"379 414 LINE",
"881 414 LINE"
);
},
{
closed = 1;
nodes = (
"628 1231 LINE",
"633 1231 LINE",
"835 565 LINE",
"425 565 LINE"
);
}
);
width = 1266;
}
);
note = Acircumflexgrave;
unicode = 1EA6;
},
{
glyphname = Acircumflexhookabove;
layers = (
{
layerId = "2811F81C-6B8F-4884-92F2-C07A91FF888C";
paths = (
{
closed = 1;
nodes = (
"756 1991 LINE",
"777 2002 OFFCURVE",
"816 2009 OFFCURVE",
"850 2009 CURVE SMOOTH",
"903 2009 OFFCURVE",
"939 1981 OFFCURVE",
"939 1939 CURVE SMOOTH",
"939 1898 OFFCURVE",
"908 1861 OFFCURVE",
"857 1840 CURVE",
"937 1770 LINE",
"1016 1800 OFFCURVE",
"1066 1870 OFFCURVE",
"1066 1950 CURVE SMOOTH",
"1066 2047 OFFCURVE",
"992 2111 OFFCURVE",
"882 2111 CURVE SMOOTH",
"833 2111 OFFCURVE",
"781 2103 OFFCURVE",
"756 2092 CURVE"
);
},
{
closed = 1;
nodes = (
"723 1813 LINE",
"543 1813 LINE",
"261 1578 LINE",
"455 1578 LINE",
"626 1724 LINE",
"640 1724 LINE",
"811 1578 LINE",
"1005 1578 LINE"
);
},
{
closed = 1;
nodes = (
"1006 0 LINE",
"1192 0 LINE",
"727 1443 LINE",
"539 1443 LINE",
"74 0 LINE",
"253 0 LINE",
"379 414 LINE",
"881 414 LINE"
);
},
{
closed = 1;
nodes = (
"628 1231 LINE",
"633 1231 LINE",
"835 565 LINE",
"425 565 LINE"
);
}
);
width = 1266;
}
);
note = Acircumflexhookabove;
unicode = 1EA8;
},
{
glyphname = Acircumflextilde;
layers = (
{
layerId = "2811F81C-6B8F-4884-92F2-C07A91FF888C";
paths = (
{
closed = 1;
nodes = (
"897 1864 OFFCURVE",
"983 1959 OFFCURVE",
"983 2103 CURVE",
"863 2103 LINE",
"859 2025 OFFCURVE",
"824 1984 OFFCURVE",
"769 1984 CURVE SMOOTH",
"665 1984 OFFCURVE",
"660 2117 OFFCURVE",
"493 2117 CURVE SMOOTH",
"368 2117 OFFCURVE",
"283 2024 OFFCURVE",
"283 1879 CURVE",
"404 1879 LINE",
"407 1956 OFFCURVE",
"440 1997 OFFCURVE",
"497 1997 CURVE SMOOTH",
"601 1997 OFFCURVE",
"606 1864 OFFCURVE",
"773 1864 CURVE SMOOTH"
);
},
{
closed = 1;
nodes = (
"723 1813 LINE",
"543 1813 LINE",
"261 1578 LINE",
"455 1578 LINE",
"626 1724 LINE",
"640 1724 LINE",
"811 1578 LINE",
"1005 1578 LINE"
);
},
{
closed = 1;
nodes = (
"1006 0 LINE",
"1192 0 LINE",
"727 1443 LINE",
"539 1443 LINE",
"74 0 LINE",
"253 0 LINE",
"379 414 LINE",
"881 414 LINE"
);
},
{
closed = 1;
nodes = (
"628 1231 LINE",
"633 1231 LINE",
"835 565 LINE",
"425 565 LINE"
);
}
);
width = 1266;
}
);
note = Acircumflextilde;
unicode = 1EAA;
},
{
glyphname = Adblgrave;
layers = (
{
layerId = "2811F81C-6B8F-4884-92F2-C07A91FF888C";
paths = (
{
closed = 1;
nodes = (
"567 1612 LINE",
"273 1916 LINE",
"78 1916 LINE",
"391 1612 LINE"
);
},
{
closed = 1;
nodes = (
"946 1612 LINE",
"652 1916 LINE",
"457 1916 LINE",
"769 1612 LINE"
);
},
{
closed = 1;
nodes = (
"1006 0 LINE",
"1192 0 LINE",
"727 1443 LINE",
"539 1443 LINE",
"74 0 LINE",
"253 0 LINE",
"379 414 LINE",
"881 414 LINE"
);
},
{
closed = 1;
nodes = (
"628 1231 LINE",
"633 1231 LINE",
"835 565 LINE",
"425 565 LINE"
);
}
);
width = 1266;
}
);
note = Adblgrave;
unicode = 0200;
},
{
glyphname = Adieresis;
layers = (
{
layerId = "2811F81C-6B8F-4884-92F2-C07A91FF888C";
paths = (
{
closed = 1;
nodes = (
"494 1651 OFFCURVE",
"548 1707 OFFCURVE",
"548 1772 CURVE SMOOTH",
"548 1838 OFFCURVE",
"494 1893 OFFCURVE",
"431 1893 CURVE SMOOTH",
"369 1893 OFFCURVE",
"314 1838 OFFCURVE",
"314 1772 CURVE SMOOTH",
"314 1707 OFFCURVE",
"369 1651 OFFCURVE",
"431 1651 CURVE SMOOTH"
);
},
{
closed = 1;
nodes = (
"897 1651 OFFCURVE",
"952 1707 OFFCURVE",
"952 1772 CURVE SMOOTH",
"952 1838 OFFCURVE",
"897 1893 OFFCURVE",
"835 1893 CURVE SMOOTH",
"772 1893 OFFCURVE",
"718 1838 OFFCURVE",
"718 1772 CURVE SMOOTH",
"718 1707 OFFCURVE",
"772 1651 OFFCURVE",
"835 1651 CURVE SMOOTH"
);
},
{
closed = 1;
nodes = (
"1006 0 LINE",
"1192 0 LINE",
"727 1443 LINE",
"539 1443 LINE",
"74 0 LINE",
"253 0 LINE",
"379 414 LINE",
"881 414 LINE"
);
},
{
closed = 1;
nodes = (
"628 1231 LINE",
"633 1231 LINE",
"835 565 LINE",
"425 565 LINE"
);
}
);
width = 1266;
}
);
note = Adieresis;
unicode = 00C4;
},
{
glyphname = Adieresismacron;
layers = (
{
layerId = "2811F81C-6B8F-4884-92F2-C07A91FF888C";
paths = (
{
closed = 1;
nodes = (
"302 2051 LINE",
"302 1931 LINE",
"965 1931 LINE",
"965 2051 LINE"
);
},
{
closed = 1;
nodes = (
"381 1787 OFFCURVE",
"333 1738 OFFCURVE",
"333 1676 CURVE SMOOTH",
"333 1615 OFFCURVE",
"381 1566 OFFCURVE",
"440 1566 CURVE SMOOTH",
"499 1566 OFFCURVE",
"546 1615 OFFCURVE",
"546 1676 CURVE SMOOTH",
"546 1738 OFFCURVE",
"499 1787 OFFCURVE",
"440 1787 CURVE SMOOTH"
);
},
{
closed = 1;
nodes = (
"769 1787 OFFCURVE",
"722 1738 OFFCURVE",
"722 1676 CURVE SMOOTH",
"722 1615 OFFCURVE",
"769 1566 OFFCURVE",
"829 1566 CURVE SMOOTH",
"888 1566 OFFCURVE",
"935 1615 OFFCURVE",
"935 1676 CURVE SMOOTH",
"935 1738 OFFCURVE",
"888 1787 OFFCURVE",
"829 1787 CURVE SMOOTH"
);
},
{
closed = 1;
nodes = (
"1006 0 LINE",
"1192 0 LINE",
"727 1443 LINE",
"539 1443 LINE",
"74 0 LINE",
"253 0 LINE",
"379 414 LINE",
"881 414 LINE"
);
},
{
closed = 1;
nodes = (
"628 1231 LINE",
"633 1231 LINE",
"835 565 LINE",
"425 565 LINE"
);
}
);
width = 1266;
}
);
note = Adieresismacron;
unicode = 01DE;
},
{
glyphname = Adotaccent;
layers = (
{
layerId = "2811F81C-6B8F-4884-92F2-C07A91FF888C";
paths = (
{
closed = 1;
nodes = (
"701 1640 OFFCURVE",
"759 1699 OFFCURVE",
"759 1769 CURVE SMOOTH",
"759 1839 OFFCURVE",
"701 1897 OFFCURVE",
"633 1897 CURVE SMOOTH",
"565 1897 OFFCURVE",
"507 1839 OFFCURVE",
"507 1769 CURVE SMOOTH",
"507 1699 OFFCURVE",
"565 1640 OFFCURVE",
"633 1640 CURVE SMOOTH"
);
},
{
closed = 1;
nodes = (
"1006 0 LINE",
"1192 0 LINE",
"727 1443 LINE",
"539 1443 LINE",
"74 0 LINE",
"253 0 LINE",
"379 414 LINE",
"881 414 LINE"
);
},
{
closed = 1;
nodes = (
"628 1231 LINE",
"633 1231 LINE",
"835 565 LINE",
"425 565 LINE"
);
}
);
width = 1266;
}
);
note = Adotaccent;
unicode = 0226;
},
{
glyphname = Adotbelow;
layers = (
{
layerId = "2811F81C-6B8F-4884-92F2-C07A91FF888C";
paths = (
{
closed = 1;
nodes = (
"1006 0 LINE",
"1192 0 LINE",
"727 1443 LINE",
"539 1443 LINE",
"74 0 LINE",
"253 0 LINE",
"379 414 LINE",
"881 414 LINE"
);
},
{
closed = 1;
nodes = (
"628 1231 LINE",
"633 1231 LINE",
"835 565 LINE",
"425 565 LINE"
);
},
{
closed = 1;
nodes = (
"701 -451 OFFCURVE",
"759 -393 OFFCURVE",
"759 -323 CURVE SMOOTH",
"759 -253 OFFCURVE",
"701 -194 OFFCURVE",
"633 -194 CURVE SMOOTH",
"565 -194 OFFCURVE",
"507 -253 OFFCURVE",
"507 -323 CURVE SMOOTH",
"507 -393 OFFCURVE",
"565 -451 OFFCURVE",
"633 -451 CURVE SMOOTH"
);
}
);
width = 1266;
}
);
note = Adotbelow;
unicode = 1EA0;
},
{
glyphname = Adotmacron;
layers = (
{
layerId = "2811F81C-6B8F-4884-92F2-C07A91FF888C";
paths = (
{
closed = 1;
nodes = (
"302 2051 LINE",
"302 1931 LINE",
"965 1931 LINE",
"965 2051 LINE"
);
},
{
closed = 1;
nodes = (
"569 1811 OFFCURVE",
"518 1759 OFFCURVE",
"518 1693 CURVE SMOOTH",
"518 1627 OFFCURVE",
"569 1574 OFFCURVE",
"633 1574 CURVE SMOOTH",
"697 1574 OFFCURVE",
"749 1627 OFFCURVE",
"749 1693 CURVE SMOOTH",
"749 1759 OFFCURVE",
"697 1811 OFFCURVE",
"633 1811 CURVE SMOOTH"
);
},
{
closed = 1;
nodes = (
"1006 0 LINE",
"1192 0 LINE",
"727 1443 LINE",
"539 1443 LINE",
"74 0 LINE",
"253 0 LINE",
"379 414 LINE",
"881 414 LINE"
);
},
{
closed = 1;
nodes = (
"628 1231 LINE",
"633 1231 LINE",
"835 565 LINE",
"425 565 LINE"
);
}
);
width = 1266;
}
);
note = Adotmacron;
unicode = 01E0;
},
{
glyphname = Agrave;
layers = (
{
layerId = "2811F81C-6B8F-4884-92F2-C07A91FF888C";
paths = (
{
closed = 1;
nodes = (
"747 1612 LINE",
"446 1916 LINE",
"239 1916 LINE",
"561 1612 LINE"
);
},
{
closed = 1;
nodes = (
"1006 0 LINE",
"1192 0 LINE",
"727 1443 LINE",
"539 1443 LINE",
"74 0 LINE",
"253 0 LINE",
"379 414 LINE",
"881 414 LINE"
);
},
{
closed = 1;
nodes = (
"628 1231 LINE",
"633 1231 LINE",
"835 565 LINE",
"425 565 LINE"
);
}
);
width = 1266;
}
);
note = Agrave;
unicode = 00C0;
},
{
glyphname = Ahookabove;
layers = (
{
layerId = "2811F81C-6B8F-4884-92F2-C07A91FF888C";
paths = (
{
closed = 1;
nodes = (
"460 1816 LINE",
"485 1829 OFFCURVE",
"527 1838 OFFCURVE",
"570 1838 CURVE SMOOTH",
"633 1838 OFFCURVE",
"673 1807 OFFCURVE",
"673 1763 CURVE SMOOTH",
"673 1720 OFFCURVE",
"632 1678 OFFCURVE",
"572 1657 CURVE",
"639 1571 LINE",
"738 1609 OFFCURVE",
"802 1688 OFFCURVE",
"802 1777 CURVE SMOOTH",
"802 1886 OFFCURVE",
"719 1954 OFFCURVE",
"593 1954 CURVE SMOOTH",
"544 1954 OFFCURVE",
"491 1943 OFFCURVE",
"460 1929 CURVE"
);
},
{
closed = 1;
nodes = (
"1006 0 LINE",
"1192 0 LINE",
"727 1443 LINE",
"539 1443 LINE",
"74 0 LINE",
"253 0 LINE",
"379 414 LINE",
"881 414 LINE"
);
},
{
closed = 1;
nodes = (
"628 1231 LINE",
"633 1231 LINE",
"835 565 LINE",
"425 565 LINE"
);
}
);
width = 1266;
}
);
note = Ahookabove;
unicode = 1EA2;
},
{
glyphname = Ainvertedbreve;
layers = (
{
layerId = "2811F81C-6B8F-4884-92F2-C07A91FF888C";
paths = (
{
closed = 1;
nodes = (
"426 1609 LINE",
"427 1720 OFFCURVE",
"512 1799 OFFCURVE",
"633 1799 CURVE SMOOTH",
"754 1799 OFFCURVE",
"839 1720 OFFCURVE",
"840 1609 CURVE",
"978 1609 LINE",
"978 1791 OFFCURVE",
"838 1918 OFFCURVE",
"633 1918 CURVE SMOOTH",
"428 1918 OFFCURVE",
"288 1791 OFFCURVE",
"288 1609 CURVE"
);
},
{
closed = 1;
nodes = (
"1006 0 LINE",
"1192 0 LINE",
"727 1443 LINE",
"539 1443 LINE",
"74 0 LINE",
"253 0 LINE",
"379 414 LINE",
"881 414 LINE"
);
},
{
closed = 1;
nodes = (
"628 1231 LINE",
"633 1231 LINE",
"835 565 LINE",
"425 565 LINE"
);
}
);
width = 1266;
}
);
note = Ainvertedbreve;
unicode = 0202;
},
{
glyphname = Amacron;
layers = (
{
layerId = "2811F81C-6B8F-4884-92F2-C07A91FF888C";
paths = (
{
closed = 1;
nodes = (
"963 1696 LINE",
"963 1835 LINE",
"303 1835 LINE",
"303 1696 LINE"
);
},
{
closed = 1;
nodes = (
"1006 0 LINE",
"1192 0 LINE",
"727 1443 LINE",
"539 1443 LINE",
"74 0 LINE",
"253 0 LINE",
"379 414 LINE",
"881 414 LINE"
);
},
{
closed = 1;
nodes = (
"628 1231 LINE",
"633 1231 LINE",
"835 565 LINE",
"425 565 LINE"
);
}
);
width = 1266;
}
);
note = Amacron;
unicode = 0100;
},
{
glyphname = Aogonek;
layers = (
{
layerId = "2811F81C-6B8F-4884-92F2-C07A91FF888C";
paths = (
{
closed = 1;
nodes = (
"1189 -293 LINE",
"1172 -297 OFFCURVE",
"1142 -301 OFFCURVE",
"1117 -301 CURVE SMOOTH",
"1042 -301 OFFCURVE",
"991 -257 OFFCURVE",
"991 -193 CURVE SMOOTH",
"991 -110 OFFCURVE",
"1052 -50 OFFCURVE",
"1182 -4 CURVE",
"1192 0 LINE",
"727 1443 LINE",
"539 1443 LINE",
"74 0 LINE",
"253 0 LINE",
"379 414 LINE",
"881 414 LINE",
"1002 13 LINE",
"887 -54 OFFCURVE",
"838 -124 OFFCURVE",
"838 -224 CURVE SMOOTH",
"838 -347 OFFCURVE",
"934 -430 OFFCURVE",
"1075 -430 CURVE SMOOTH",
"1117 -430 OFFCURVE",
"1163 -423 OFFCURVE",
"1189 -414 CURVE"
);
},
{
closed = 1;
nodes = (
"628 1231 LINE",
"633 1231 LINE",
"835 565 LINE",
"425 565 LINE"
);
}
);
width = 1266;
}
);
note = Aogonek;
unicode = 0104;
},
{
glyphname = Aring;
layers = (
{
layerId = "2811F81C-6B8F-4884-92F2-C07A91FF888C";
paths = (
{
closed = 1;
nodes = (
"742 1559 OFFCURVE",
"826 1644 OFFCURVE",
"826 1751 CURVE SMOOTH",
"826 1859 OFFCURVE",
"742 1943 OFFCURVE",
"633 1943 CURVE SMOOTH",
"524 1943 OFFCURVE",
"440 1859 OFFCURVE",
"440 1751 CURVE SMOOTH",
"440 1644 OFFCURVE",
"525 1559 OFFCURVE",
"633 1559 CURVE SMOOTH"
);
},
{
closed = 1;
nodes = (
"575 1650 OFFCURVE",
"531 1692 OFFCURVE",
"531 1751 CURVE SMOOTH",
"531 1810 OFFCURVE",
"575 1852 OFFCURVE",
"633 1852 CURVE SMOOTH",
"691 1852 OFFCURVE",
"735 1810 OFFCURVE",
"735 1751 CURVE SMOOTH",
"735 1692 OFFCURVE",
"692 1650 OFFCURVE",
"633 1650 CURVE SMOOTH"
);
},
{
closed = 1;
nodes = (
"1006 0 LINE",
"1192 0 LINE",
"727 1443 LINE",
"539 1443 LINE",
"74 0 LINE",
"253 0 LINE",
"379 414 LINE",
"881 414 LINE"
);
},
{
closed = 1;
nodes = (
"628 1231 LINE",
"633 1231 LINE",
"835 565 LINE",
"425 565 LINE"
);
}
);
width = 1266;
}
);
note = Aring;
unicode = 00C5;
},
{
glyphname = Aringacute;
layers = (
{
layerId = "2811F81C-6B8F-4884-92F2-C07A91FF888C";
paths = (
{
closed = 1;
nodes = (
"678 2158 LINE",
"560 1983 LINE",
"713 1983 LINE",
"852 2158 LINE"
);
},
{
closed = 1;
nodes = (
"742 1538 OFFCURVE",
"826 1623 OFFCURVE",
"826 1731 CURVE SMOOTH",
"826 1838 OFFCURVE",
"742 1922 OFFCURVE",
"633 1922 CURVE SMOOTH",
"524 1922 OFFCURVE",
"440 1838 OFFCURVE",
"440 1731 CURVE SMOOTH",
"440 1623 OFFCURVE",
"525 1538 OFFCURVE",
"633 1538 CURVE SMOOTH"
);
},
{
closed = 1;
nodes = (
"575 1629 OFFCURVE",
"531 1671 OFFCURVE",
"531 1730 CURVE SMOOTH",
"531 1789 OFFCURVE",
"575 1832 OFFCURVE",
"633 1832 CURVE SMOOTH",
"691 1832 OFFCURVE",
"735 1789 OFFCURVE",
"735 1730 CURVE SMOOTH",
"735 1672 OFFCURVE",
"692 1629 OFFCURVE",
"633 1629 CURVE SMOOTH"
);
},
{
closed = 1;
nodes = (
"1006 0 LINE",
"1192 0 LINE",
"727 1443 LINE",
"539 1443 LINE",
"74 0 LINE",
"253 0 LINE",
"379 414 LINE",
"881 414 LINE"
);
},
{
closed = 1;
nodes = (
"628 1231 LINE",
"633 1231 LINE",
"835 565 LINE",
"425 565 LINE"
);
}
);
width = 1266;
}
);
note = Aringacute;
unicode = 01FA;
},
{
glyphname = Aringbelow;
layers = (
{
layerId = "2811F81C-6B8F-4884-92F2-C07A91FF888C";
paths = (
{
closed = 1;
nodes = (
"1006 0 LINE",
"1192 0 LINE",
"727 1443 LINE",
"539 1443 LINE",
"74 0 LINE",
"253 0 LINE",
"379 414 LINE",
"881 414 LINE"
);
},
{
closed = 1;
nodes = (
"628 1231 LINE",
"633 1231 LINE",
"835 565 LINE",
"425 565 LINE"
);
},
{
closed = 1;
nodes = (
"757 -578 OFFCURVE",
"859 -474 OFFCURVE",
"859 -347 CURVE SMOOTH",
"859 -220 OFFCURVE",
"757 -116 OFFCURVE",
"633 -116 CURVE SMOOTH",
"509 -116 OFFCURVE",
"407 -220 OFFCURVE",
"407 -347 CURVE SMOOTH",
"407 -474 OFFCURVE",
"509 -578 OFFCURVE",
"633 -578 CURVE SMOOTH"
);
},
{
closed = 1;
nodes = (
"566 -469 OFFCURVE",
"515 -416 OFFCURVE",
"515 -347 CURVE SMOOTH",
"515 -278 OFFCURVE",
"566 -225 OFFCURVE",
"633 -225 CURVE SMOOTH",
"700 -225 OFFCURVE",
"751 -278 OFFCURVE",
"751 -347 CURVE SMOOTH",
"751 -416 OFFCURVE",
"700 -469 OFFCURVE",
"633 -469 CURVE SMOOTH"
);
}
);
width = 1266;
}
);
note = Aringbelow;
unicode = 1E00;
},
{
glyphname = Atilde;
layers = (
{
layerId = "2811F81C-6B8F-4884-92F2-C07A91FF888C";
paths = (
{
closed = 1;
nodes = (
"908 1620 OFFCURVE",
"995 1724 OFFCURVE",
"995 1888 CURVE",
"872 1888 LINE",
"868 1793 OFFCURVE",
"831 1743 OFFCURVE",
"773 1743 CURVE SMOOTH",
"681 1743 OFFCURVE",
"648 1900 OFFCURVE",
"485 1900 CURVE SMOOTH",
"356 1900 OFFCURVE",
"271 1798 OFFCURVE",
"271 1630 CURVE",
"395 1630 LINE",
"398 1728 OFFCURVE",
"433 1776 OFFCURVE",
"493 1776 CURVE SMOOTH",
"597 1776 OFFCURVE",
"625 1620 OFFCURVE",
"781 1620 CURVE SMOOTH"
);
},
{
closed = 1;
nodes = (
"1006 0 LINE",
"1192 0 LINE",
"727 1443 LINE",
"539 1443 LINE",
"74 0 LINE",
"253 0 LINE",
"379 414 LINE",
"881 414 LINE"
);
},
{
closed = 1;
nodes = (
"628 1231 LINE",
"633 1231 LINE",
"835 565 LINE",
"425 565 LINE"
);
}
);
width = 1266;
}
);
note = Atilde;
unicode = 00C3;
},
{
glyphname = AE;
layers = (
{
layerId = "2811F81C-6B8F-4884-92F2-C07A91FF888C";
paths = (
{
closed = 1;
nodes = (
"642 0 LINE",
"1233 0 LINE",
"1233 162 LINE",
"803 162 LINE",
"803 649 LINE",
"1197 649 LINE",
"1197 806 LINE",
"803 806 LINE",
"803 1282 LINE",
"1233 1282 LINE",
"1233 1443 LINE",
"436 1443 LINE",
"4 0 LINE",
"185 0 LINE",
"309 435 LINE",
"642 435 LINE"
);
},
{
closed = 1;
nodes = (
"550 1276 LINE",
"642 1276 LINE",
"642 589 LINE",
"354 589 LINE"
);
}
);
width = 1266;
}
);
note = AE;
unicode = 00C6;
},
{
glyphname = AEacute;
layers = (
{
layerId = "2811F81C-6B8F-4884-92F2-C07A91FF888C";
paths = (
{
closed = 1;
nodes = (
"717 1612 LINE",
"902 1612 LINE",
"1225 1916 LINE",
"1018 1916 LINE"
);
},
{
closed = 1;
nodes = (
"642 0 LINE",
"1233 0 LINE",
"1233 162 LINE",
"803 162 LINE",
"803 649 LINE",
"1197 649 LINE",
"1197 806 LINE",
"803 806 LINE",
"803 1282 LINE",
"1233 1282 LINE",
"1233 1443 LINE",
"436 1443 LINE",
"4 0 LINE",
"185 0 LINE",
"309 435 LINE",
"642 435 LINE"
);
},
{
closed = 1;
nodes = (
"550 1276 LINE",
"642 1276 LINE",
"642 589 LINE",
"354 589 LINE"
);
}
);
width = 1266;
}
);
note = AEacute;
unicode = 01FC;
},
{
glyphname = AEmacron;
layers = (
{
layerId = "2811F81C-6B8F-4884-92F2-C07A91FF888C";
paths = (
{
closed = 1;
nodes = (
"1163 1696 LINE",
"1163 1835 LINE",
"503 1835 LINE",
"503 1696 LINE"
);
},
{
closed = 1;
nodes = (
"642 0 LINE",
"1233 0 LINE",
"1233 162 LINE",
"803 162 LINE",
"803 649 LINE",
"1197 649 LINE",
"1197 806 LINE",
"803 806 LINE",
"803 1282 LINE",
"1233 1282 LINE",
"1233 1443 LINE",
"436 1443 LINE",
"4 0 LINE",
"185 0 LINE",
"309 435 LINE",
"642 435 LINE"
);
},
{
closed = 1;
nodes = (
"550 1276 LINE",
"642 1276 LINE",
"642 589 LINE",
"354 589 LINE"
);
}
);
width = 1266;
}
);
note = AEmacron;
unicode = 01E2;
},
{
glyphname = B;
layers = (
{
layerId = "2811F81C-6B8F-4884-92F2-C07A91FF888C";
paths = (
{
closed = 1;
nodes = (
"660 0 LINE SMOOTH",
"970 0 OFFCURVE",
"1154 150 OFFCURVE",
"1154 403 CURVE SMOOTH",
"1154 596 OFFCURVE",
"1027 737 OFFCURVE",
"833 756 CURVE",
"833 771 LINE",
"978 796 OFFCURVE",
"1081 927 OFFCURVE",
"1081 1086 CURVE SMOOTH",
"1081 1310 OFFCURVE",
"921 1443 OFFCURVE",
"655 1443 CURVE SMOOTH",
"188 1443 LINE",
"188 0 LINE"
);
},
{
closed = 1;
nodes = (
"363 1291 LINE",
"615 1291 LINE SMOOTH",
"799 1291 OFFCURVE",
"903 1206 OFFCURVE",
"903 1055 CURVE SMOOTH",
"903 903 OFFCURVE",
"793 820 OFFCURVE",
"588 820 CURVE SMOOTH",
"363 820 LINE"
);
},
{
closed = 1;
nodes = (
"363 153 LINE",
"363 673 LINE",
"616 673 LINE SMOOTH",
"850 673 OFFCURVE",
"971 585 OFFCURVE",
"971 415 CURVE SMOOTH",
"971 243 OFFCURVE",
"851 153 OFFCURVE",
"622 153 CURVE SMOOTH"
);
}
);
width = 1266;
}
);
note = B;
unicode = 0042;
},
{
glyphname = Bdotaccent;
layers = (
{
layerId = "2811F81C-6B8F-4884-92F2-C07A91FF888C";
paths = (
{
closed = 1;
nodes = (
"652 1640 OFFCURVE",
"710 1699 OFFCURVE",
"710 1769 CURVE SMOOTH",
"710 1839 OFFCURVE",
"652 1897 OFFCURVE",
"584 1897 CURVE SMOOTH",
"516 1897 OFFCURVE",
"458 1839 OFFCURVE",
"458 1769 CURVE SMOOTH",
"458 1699 OFFCURVE",
"516 1640 OFFCURVE",
"584 1640 CURVE SMOOTH"
);
},
{
closed = 1;
nodes = (
"660 0 LINE SMOOTH",
"970 0 OFFCURVE",
"1154 150 OFFCURVE",
"1154 403 CURVE SMOOTH",
"1154 596 OFFCURVE",
"1027 737 OFFCURVE",
"833 756 CURVE",
"833 771 LINE",
"978 796 OFFCURVE",
"1081 927 OFFCURVE",
"1081 1086 CURVE SMOOTH",
"1081 1310 OFFCURVE",
"921 1443 OFFCURVE",
"655 1443 CURVE SMOOTH",
"188 1443 LINE",
"188 0 LINE"
);
},
{
closed = 1;
nodes = (
"363 1291 LINE",
"615 1291 LINE SMOOTH",
"799 1291 OFFCURVE",
"903 1206 OFFCURVE",
"903 1055 CURVE SMOOTH",
"903 903 OFFCURVE",
"793 820 OFFCURVE",
"588 820 CURVE SMOOTH",
"363 820 LINE"
);
},
{
closed = 1;
nodes = (
"363 153 LINE",
"363 673 LINE",
"616 673 LINE SMOOTH",
"850 673 OFFCURVE",
"971 585 OFFCURVE",
"971 415 CURVE SMOOTH",
"971 243 OFFCURVE",
"851 153 OFFCURVE",
"622 153 CURVE SMOOTH"
);
}
);
width = 1266;
}
);
note = Bdotaccent;
unicode = 1E02;
},
{
glyphname = Bdotbelow;
layers = (
{
layerId = "2811F81C-6B8F-4884-92F2-C07A91FF888C";
paths = (
{
closed = 1;
nodes = (
"660 0 LINE SMOOTH",
"970 0 OFFCURVE",
"1154 150 OFFCURVE",
"1154 403 CURVE SMOOTH",
"1154 596 OFFCURVE",
"1027 737 OFFCURVE",
"833 756 CURVE",
"833 771 LINE",
"978 796 OFFCURVE",
"1081 927 OFFCURVE",
"1081 1086 CURVE SMOOTH",
"1081 1310 OFFCURVE",
"921 1443 OFFCURVE",
"655 1443 CURVE SMOOTH",
"188 1443 LINE",
"188 0 LINE"
);
},
{
closed = 1;
nodes = (
"363 1291 LINE",
"615 1291 LINE SMOOTH",
"799 1291 OFFCURVE",
"903 1206 OFFCURVE",
"903 1055 CURVE SMOOTH",
"903 903 OFFCURVE",
"793 820 OFFCURVE",
"588 820 CURVE SMOOTH",
"363 820 LINE"
);
},
{
closed = 1;
nodes = (
"363 153 LINE",
"363 673 LINE",
"616 673 LINE SMOOTH",
"850 673 OFFCURVE",
"971 585 OFFCURVE",
"971 415 CURVE SMOOTH",
"971 243 OFFCURVE",
"851 153 OFFCURVE",
"622 153 CURVE SMOOTH"
);
},
{
closed = 1;
nodes = (
"652 -451 OFFCURVE",
"710 -393 OFFCURVE",
"710 -323 CURVE SMOOTH",
"710 -253 OFFCURVE",
"652 -194 OFFCURVE",
"584 -194 CURVE SMOOTH",
"516 -194 OFFCURVE",
"458 -253 OFFCURVE",
"458 -323 CURVE SMOOTH",
"458 -393 OFFCURVE",
"516 -451 OFFCURVE",
"584 -451 CURVE SMOOTH"
);
}
);
width = 1266;
}
);
note = Bdotbelow;
unicode = 1E04;
},
{
glyphname = Blinebelow;
layers = (
{
layerId = "2811F81C-6B8F-4884-92F2-C07A91FF888C";
paths = (
{
closed = 1;
nodes = (
"660 0 LINE SMOOTH",
"970 0 OFFCURVE",
"1154 150 OFFCURVE",
"1154 403 CURVE SMOOTH",
"1154 596 OFFCURVE",
"1027 737 OFFCURVE",
"833 756 CURVE",
"833 771 LINE",
"978 796 OFFCURVE",
"1081 927 OFFCURVE",
"1081 1086 CURVE SMOOTH",
"1081 1310 OFFCURVE",
"921 1443 OFFCURVE",
"655 1443 CURVE SMOOTH",
"188 1443 LINE",
"188 0 LINE"
);
},
{
closed = 1;
nodes = (
"363 1291 LINE",
"615 1291 LINE SMOOTH",
"799 1291 OFFCURVE",
"903 1206 OFFCURVE",
"903 1055 CURVE SMOOTH",
"903 903 OFFCURVE",
"793 820 OFFCURVE",
"588 820 CURVE SMOOTH",
"363 820 LINE"
);
},
{
closed = 1;
nodes = (
"363 153 LINE",
"363 673 LINE",
"616 673 LINE SMOOTH",
"850 673 OFFCURVE",
"971 585 OFFCURVE",
"971 415 CURVE SMOOTH",
"971 243 OFFCURVE",
"851 153 OFFCURVE",
"622 153 CURVE SMOOTH"
);
},
{
closed = 1;
nodes = (
"914 -395 LINE",
"914 -256 LINE",
"254 -256 LINE",
"254 -395 LINE"
);
}
);
width = 1266;
}
);
note = Blinebelow;
unicode = 1E06;
},
{
glyphname = C;
layers = (
{
layerId = "2811F81C-6B8F-4884-92F2-C07A91FF888C";
paths = (
{
closed = 1;
nodes = (
"432 137 OFFCURVE",
"310 294 OFFCURVE",
"310 593 CURVE SMOOTH",
"310 850 LINE SMOOTH",
"310 1149 OFFCURVE",
"432 1306 OFFCURVE",
"665 1306 CURVE SMOOTH",
"850 1306 OFFCURVE",
"979 1175 OFFCURVE",
"985 980 CURVE",
"1164 980 LINE",
"1158 1288 OFFCURVE",
"970 1473 OFFCURVE",
"666 1473 CURVE SMOOTH",
"327 1473 OFFCURVE",
"130 1244 OFFCURVE",
"130 850 CURVE SMOOTH",
"130 593 LINE SMOOTH",
"130 199 OFFCURVE",
"327 -30 OFFCURVE",
"666 -30 CURVE SMOOTH",
"961 -30 OFFCURVE",
"1163 159 OFFCURVE",
"1163 438 CURVE",
"985 438 LINE",
"980 252 OFFCURVE",
"858 137 OFFCURVE",
"666 137 CURVE SMOOTH"
);
}
);
width = 1266;
}
);
note = C;
unicode = 0043;
},
{
glyphname = Cacute;
layers = (
{
layerId = "2811F81C-6B8F-4884-92F2-C07A91FF888C";
paths = (
{
closed = 1;
nodes = (
"544 1612 LINE",
"730 1612 LINE",
"1052 1916 LINE",
"845 1916 LINE"
);
},
{
closed = 1;
nodes = (
"432 137 OFFCURVE",
"310 294 OFFCURVE",
"310 593 CURVE SMOOTH",
"310 850 LINE SMOOTH",
"310 1149 OFFCURVE",
"432 1306 OFFCURVE",
"665 1306 CURVE SMOOTH",
"850 1306 OFFCURVE",
"979 1175 OFFCURVE",
"985 980 CURVE",
"1164 980 LINE",
"1158 1288 OFFCURVE",
"970 1473 OFFCURVE",
"666 1473 CURVE SMOOTH",
"327 1473 OFFCURVE",
"130 1244 OFFCURVE",
"130 850 CURVE SMOOTH",
"130 593 LINE SMOOTH",
"130 199 OFFCURVE",
"327 -30 OFFCURVE",
"666 -30 CURVE SMOOTH",
"961 -30 OFFCURVE",
"1163 159 OFFCURVE",
"1163 438 CURVE",
"985 438 LINE",
"980 252 OFFCURVE",
"858 137 OFFCURVE",
"666 137 CURVE SMOOTH"
);
}
);
width = 1266;
}
);
note = Cacute;
unicode = 0106;
},
{
glyphname = Ccaron;
layers = (
{
layerId = "2811F81C-6B8F-4884-92F2-C07A91FF888C";
paths = (
{
closed = 1;
nodes = (
"740 1610 LINE",
"1027 1919 LINE",
"847 1919 LINE",
"667 1719 LINE",
"654 1719 LINE",
"474 1919 LINE",
"294 1919 LINE",
"580 1610 LINE"
);
},
{
closed = 1;
nodes = (
"432 137 OFFCURVE",
"310 294 OFFCURVE",
"310 593 CURVE SMOOTH",
"310 850 LINE SMOOTH",
"310 1149 OFFCURVE",
"432 1306 OFFCURVE",
"665 1306 CURVE SMOOTH",
"850 1306 OFFCURVE",
"979 1175 OFFCURVE",
"985 980 CURVE",
"1164 980 LINE",
"1158 1288 OFFCURVE",
"970 1473 OFFCURVE",
"666 1473 CURVE SMOOTH",
"327 1473 OFFCURVE",
"130 1244 OFFCURVE",
"130 850 CURVE SMOOTH",
"130 593 LINE SMOOTH",
"130 199 OFFCURVE",
"327 -30 OFFCURVE",
"666 -30 CURVE SMOOTH",
"961 -30 OFFCURVE",
"1163 159 OFFCURVE",
"1163 438 CURVE",
"985 438 LINE",
"980 252 OFFCURVE",
"858 137 OFFCURVE",
"666 137 CURVE SMOOTH"
);
}
);
width = 1266;
}
);
note = Ccaron;
unicode = 010C;
},
{
glyphname = Ccedilla;
layers = (
{
layerId = "2811F81C-6B8F-4884-92F2-C07A91FF888C";
paths = (
{
closed = 1;
nodes = (
"545 -236 LINE",
"602 -236 LINE SMOOTH",
"705 -236 OFFCURVE",
"746 -255 OFFCURVE",
"746 -301 CURVE SMOOTH",
"746 -348 OFFCURVE",
"706 -373 OFFCURVE",
"632 -373 CURVE SMOOTH",
"595 -373 OFFCURVE",
"536 -366 OFFCURVE",
"513 -359 CURVE",
"513 -469 LINE",
"559 -481 OFFCURVE",
"594 -486 OFFCURVE",
"645 -486 CURVE SMOOTH",
"789 -486 OFFCURVE",
"883 -413 OFFCURVE",
"883 -297 CURVE SMOOTH",
"883 -191 OFFCURVE",
"813 -133 OFFCURVE",
"685 -132 CURVE",
"727 -27 LINE",
"988 -3 OFFCURVE",
"1163 179 OFFCURVE",
"1163 438 CURVE",
"985 438 LINE",
"980 252 OFFCURVE",
"858 137 OFFCURVE",
"666 137 CURVE SMOOTH",
"432 137 OFFCURVE",
"310 294 OFFCURVE",
"310 593 CURVE SMOOTH",
"310 850 LINE SMOOTH",
"310 1149 OFFCURVE",
"432 1306 OFFCURVE",
"665 1306 CURVE SMOOTH",
"850 1306 OFFCURVE",
"979 1175 OFFCURVE",
"985 980 CURVE",
"1164 980 LINE",
"1158 1288 OFFCURVE",
"970 1473 OFFCURVE",
"666 1473 CURVE SMOOTH",
"327 1473 OFFCURVE",
"130 1244 OFFCURVE",
"130 850 CURVE SMOOTH",
"130 593 LINE SMOOTH",
"130 227 OFFCURVE",
"300 4 OFFCURVE",
"595 -26 CURVE",
"545 -150 LINE"
);
}
);
width = 1266;
}
);
note = Ccedilla;
unicode = 00C7;
},
{
glyphname = Ccedillaacute;
layers = (
{
layerId = "2811F81C-6B8F-4884-92F2-C07A91FF888C";
paths = (
{
closed = 1;
nodes = (
"544 1612 LINE",
"730 1612 LINE",
"1052 1916 LINE",
"845 1916 LINE"
);
},
{
closed = 1;
nodes = (
"545 -236 LINE",
"602 -236 LINE SMOOTH",
"705 -236 OFFCURVE",
"746 -255 OFFCURVE",
"746 -301 CURVE SMOOTH",
"746 -348 OFFCURVE",
"706 -373 OFFCURVE",
"632 -373 CURVE SMOOTH",
"595 -373 OFFCURVE",
"536 -366 OFFCURVE",
"513 -359 CURVE",
"513 -469 LINE",
"559 -481 OFFCURVE",
"594 -486 OFFCURVE",
"645 -486 CURVE SMOOTH",
"789 -486 OFFCURVE",
"883 -413 OFFCURVE",
"883 -297 CURVE SMOOTH",
"883 -191 OFFCURVE",
"813 -133 OFFCURVE",
"685 -132 CURVE",
"727 -27 LINE",
"988 -3 OFFCURVE",
"1163 179 OFFCURVE",
"1163 438 CURVE",
"985 438 LINE",
"980 252 OFFCURVE",
"858 137 OFFCURVE",
"666 137 CURVE SMOOTH",
"432 137 OFFCURVE",
"310 294 OFFCURVE",
"310 593 CURVE SMOOTH",
"310 850 LINE SMOOTH",
"310 1149 OFFCURVE",
"432 1306 OFFCURVE",
"665 1306 CURVE SMOOTH",
"850 1306 OFFCURVE",
"979 1175 OFFCURVE",
"985 980 CURVE",
"1164 980 LINE",
"1158 1288 OFFCURVE",
"970 1473 OFFCURVE",
"666 1473 CURVE SMOOTH",
"327 1473 OFFCURVE",
"130 1244 OFFCURVE",
"130 850 CURVE SMOOTH",
"130 593 LINE SMOOTH",
"130 227 OFFCURVE",
"300 4 OFFCURVE",
"595 -26 CURVE",
"545 -150 LINE"
);
}
);
width = 1266;
}
);
note = Ccedillaacute;
unicode = 1E08;
},
{
glyphname = Ccircumflex;
layers = (
{
layerId = "2811F81C-6B8F-4884-92F2-C07A91FF888C";
paths = (
{
closed = 1;
nodes = (
"740 1921 LINE",
"580 1921 LINE",
"294 1612 LINE",
"474 1612 LINE",
"654 1812 LINE",
"667 1812 LINE",
"847 1612 LINE",
"1027 1612 LINE"
);
},
{
closed = 1;
nodes = (
"432 137 OFFCURVE",
"310 294 OFFCURVE",
"310 593 CURVE SMOOTH",
"310 850 LINE SMOOTH",
"310 1149 OFFCURVE",
"432 1306 OFFCURVE",
"665 1306 CURVE SMOOTH",
"850 1306 OFFCURVE",
"979 1175 OFFCURVE",
"985 980 CURVE",
"1164 980 LINE",
"1158 1288 OFFCURVE",
"970 1473 OFFCURVE",
"666 1473 CURVE SMOOTH",
"327 1473 OFFCURVE",
"130 1244 OFFCURVE",
"130 850 CURVE SMOOTH",
"130 593 LINE SMOOTH",
"130 199 OFFCURVE",
"327 -30 OFFCURVE",
"666 -30 CURVE SMOOTH",
"961 -30 OFFCURVE",
"1163 159 OFFCURVE",
"1163 438 CURVE",
"985 438 LINE",
"980 252 OFFCURVE",
"858 137 OFFCURVE",
"666 137 CURVE SMOOTH"
);
}
);
width = 1266;
}
);
note = Ccircumflex;
unicode = 0108;
},
{
glyphname = Cdotaccent;
layers = (
{
layerId = "2811F81C-6B8F-4884-92F2-C07A91FF888C";
paths = (
{
closed = 1;
nodes = (
"728 1640 OFFCURVE",
"786 1699 OFFCURVE",
"786 1769 CURVE SMOOTH",
"786 1839 OFFCURVE",
"728 1897 OFFCURVE",
"660 1897 CURVE SMOOTH",
"592 1897 OFFCURVE",
"534 1839 OFFCURVE",
"534 1769 CURVE SMOOTH",
"534 1699 OFFCURVE",
"592 1640 OFFCURVE",
"660 1640 CURVE SMOOTH"
);
},
{
closed = 1;
nodes = (
"432 137 OFFCURVE",
"310 294 OFFCURVE",
"310 593 CURVE SMOOTH",
"310 850 LINE SMOOTH",
"310 1149 OFFCURVE",
"432 1306 OFFCURVE",
"665 1306 CURVE SMOOTH",
"850 1306 OFFCURVE",
"979 1175 OFFCURVE",
"985 980 CURVE",
"1164 980 LINE",
"1158 1288 OFFCURVE",
"970 1473 OFFCURVE",
"666 1473 CURVE SMOOTH",
"327 1473 OFFCURVE",
"130 1244 OFFCURVE",
"130 850 CURVE SMOOTH",
"130 593 LINE SMOOTH",
"130 199 OFFCURVE",
"327 -30 OFFCURVE",
"666 -30 CURVE SMOOTH",
"961 -30 OFFCURVE",
"1163 159 OFFCURVE",
"1163 438 CURVE",
"985 438 LINE",
"980 252 OFFCURVE",
"858 137 OFFCURVE",
"666 137 CURVE SMOOTH"
);
}
);
width = 1266;
}
);
note = Cdotaccent;
unicode = 010A;
},
{
glyphname = D;
layers = (
{
layerId = "2811F81C-6B8F-4884-92F2-C07A91FF888C";
paths = (
{
closed = 1;
nodes = (
"160 1443 LINE",
"160 0 LINE",
"564 0 LINE SMOOTH",
"973 0 OFFCURVE",
"1179 242 OFFCURVE",
"1179 724 CURVE SMOOTH",
"1179 1202 OFFCURVE",
"973 1443 OFFCURVE",
"564 1443 CURVE SMOOTH"
);
},
{
closed = 1;
nodes = (
"337 1281 LINE",
"548 1281 LINE SMOOTH",
"853 1281 OFFCURVE",
"999 1101 OFFCURVE",
"999 723 CURVE SMOOTH",
"999 341 OFFCURVE",
"854 162 OFFCURVE",
"548 162 CURVE SMOOTH",
"337 162 LINE"
);
}
);
width = 1266;
}
);
note = D;
unicode = 0044;
},
{
glyphname = DZ;
layers = (
{
layerId = "2811F81C-6B8F-4884-92F2-C07A91FF888C";
paths = (
{
closed = 1;
nodes = (
"49 1443 LINE",
"49 0 LINE",
"220 0 LINE SMOOTH",
"531 0 OFFCURVE",
"645 189 OFFCURVE",
"645 723 CURVE SMOOTH",
"645 1253 OFFCURVE",
"530 1443 OFFCURVE",
"220 1443 CURVE SMOOTH"
);
},
{
closed = 1;
nodes = (
"659 0 LINE",
"1231 0 LINE",
"1231 145 LINE",
"822 145 LINE",
"822 159 LINE",
"1221 1313 LINE",
"1221 1443 LINE",
"684 1443 LINE",
"684 1298 LINE",
"1062 1298 LINE",
"1062 1284 LINE",
"659 129 LINE"
);
},
{
closed = 1;
nodes = (
"196 1303 LINE",
"219 1303 LINE SMOOTH",
"425 1303 OFFCURVE",
"494 1159 OFFCURVE",
"494 723 CURVE SMOOTH",
"494 281 OFFCURVE",
"426 139 OFFCURVE",
"219 139 CURVE SMOOTH",
"196 139 LINE"
);
}
);
width = 1266;
}
);
note = uni01F1;
unicode = 01F1;
},
{
glyphname = DZcaron;
layers = (
{
layerId = "2811F81C-6B8F-4884-92F2-C07A91FF888C";
paths = (
{
closed = 1;
nodes = (
"1028 1581 LINE",
"1304 1885 LINE",
"1130 1885 LINE",
"956 1684 LINE",
"942 1684 LINE",
"768 1885 LINE",
"594 1885 LINE",
"870 1581 LINE"
);
},
{
closed = 1;
nodes = (
"49 1443 LINE",
"49 0 LINE",
"220 0 LINE SMOOTH",
"531 0 OFFCURVE",
"645 189 OFFCURVE",
"645 723 CURVE SMOOTH",
"645 1253 OFFCURVE",
"530 1443 OFFCURVE",
"220 1443 CURVE SMOOTH"
);
},
{
closed = 1;
nodes = (
"659 0 LINE",
"1231 0 LINE",
"1231 145 LINE",
"822 145 LINE",
"822 159 LINE",
"1221 1313 LINE",
"1221 1443 LINE",
"684 1443 LINE",
"684 1298 LINE",
"1062 1298 LINE",
"1062 1284 LINE",
"659 129 LINE"
);
},
{
closed = 1;
nodes = (
"196 1303 LINE",
"219 1303 LINE SMOOTH",
"425 1303 OFFCURVE",
"494 1159 OFFCURVE",
"494 723 CURVE SMOOTH",
"494 281 OFFCURVE",
"426 139 OFFCURVE",
"219 139 CURVE SMOOTH",
"196 139 LINE"
);
}
);
width = 1266;
}
);
note = uni01C4;
unicode = 01C4;
},
{
glyphname = Eth;
layers = (
{
layerId = "2811F81C-6B8F-4884-92F2-C07A91FF888C";
paths = (
{
closed = 1;
nodes = (
"160 1443 LINE",
"160 815 LINE",
"25 815 LINE",
"25 658 LINE",
"160 658 LINE",
"160 0 LINE",
"564 0 LINE SMOOTH",
"973 0 OFFCURVE",
"1179 242 OFFCURVE",
"1179 724 CURVE SMOOTH",
"1179 1202 OFFCURVE",
"973 1443 OFFCURVE",
"564 1443 CURVE SMOOTH"
);
},
{
closed = 1;
nodes = (
"598 658 LINE",
"598 815 LINE",
"337 815 LINE",
"337 1281 LINE",
"548 1281 LINE SMOOTH",
"853 1281 OFFCURVE",
"999 1101 OFFCURVE",
"999 723 CURVE SMOOTH",
"999 341 OFFCURVE",
"854 162 OFFCURVE",
"548 162 CURVE SMOOTH",
"337 162 LINE",
"337 658 LINE"
);
}
);
width = 1266;
}
);
note = Eth;
unicode = 00D0;
},
{
glyphname = Dcaron;
layers = (
{
layerId = "2811F81C-6B8F-4884-92F2-C07A91FF888C";
paths = (
{
closed = 1;
nodes = (
"664 1610 LINE",
"951 1919 LINE",
"771 1919 LINE",
"591 1719 LINE",
"578 1719 LINE",
"398 1919 LINE",
"218 1919 LINE",
"504 1610 LINE"
);
},
{
closed = 1;
nodes = (
"160 1443 LINE",
"160 0 LINE",
"564 0 LINE SMOOTH",
"973 0 OFFCURVE",
"1179 242 OFFCURVE",
"1179 724 CURVE SMOOTH",
"1179 1202 OFFCURVE",
"973 1443 OFFCURVE",
"564 1443 CURVE SMOOTH"
);
},
{
closed = 1;
nodes = (
"337 1281 LINE",
"548 1281 LINE SMOOTH",
"853 1281 OFFCURVE",
"999 1101 OFFCURVE",
"999 723 CURVE SMOOTH",
"999 341 OFFCURVE",
"854 162 OFFCURVE",
"548 162 CURVE SMOOTH",
"337 162 LINE"
);
}
);
width = 1266;
}
);
note = Dcaron;
unicode = 010E;
},
{
glyphname = Dcedilla;
layers = (
{
layerId = "2811F81C-6B8F-4884-92F2-C07A91FF888C";
paths = (
{
closed = 1;
nodes = (
"160 1443 LINE",
"160 0 LINE",
"564 0 LINE SMOOTH",
"973 0 OFFCURVE",
"1179 242 OFFCURVE",
"1179 724 CURVE SMOOTH",
"1179 1202 OFFCURVE",
"973 1443 OFFCURVE",
"564 1443 CURVE SMOOTH"
);
},
{
closed = 1;
nodes = (
"337 1281 LINE",
"548 1281 LINE SMOOTH",
"853 1281 OFFCURVE",
"999 1101 OFFCURVE",
"999 723 CURVE SMOOTH",
"999 341 OFFCURVE",
"854 162 OFFCURVE",
"548 162 CURVE SMOOTH",
"337 162 LINE"
);
},
{
closed = 1;
nodes = (
"555 -503 LINE",
"684 -142 LINE",
"508 -142 LINE",
"398 -503 LINE"
);
}
);
width = 1266;
}
);
note = Dcommaaccent;
unicode = 1E10;
},
{
glyphname = Dcircumflexbelow;
layers = (
{
layerId = "2811F81C-6B8F-4884-92F2-C07A91FF888C";
paths = (
{
closed = 1;
nodes = (
"160 1443 LINE",
"160 0 LINE",
"564 0 LINE SMOOTH",
"973 0 OFFCURVE",
"1179 242 OFFCURVE",
"1179 724 CURVE SMOOTH",
"1179 1202 OFFCURVE",
"973 1443 OFFCURVE",
"564 1443 CURVE SMOOTH"
);
},
{
closed = 1;
nodes = (
"337 1281 LINE",
"548 1281 LINE SMOOTH",
"853 1281 OFFCURVE",
"999 1101 OFFCURVE",
"999 723 CURVE SMOOTH",
"999 341 OFFCURVE",
"854 162 OFFCURVE",
"548 162 CURVE SMOOTH",
"337 162 LINE"
);
},
{
closed = 1;
nodes = (
"484 -166 LINE",
"210 -508 LINE",
"405 -508 LINE",
"577 -281 LINE",
"592 -281 LINE",
"764 -508 LINE",
"958 -508 LINE",
"684 -166 LINE"
);
}
);
width = 1266;
}
);
note = Dcircumflexbelow;
unicode = 1E12;
},
{
glyphname = Dcroat;
layers = (
{
layerId = "2811F81C-6B8F-4884-92F2-C07A91FF888C";
paths = (
{
closed = 1;
nodes = (
"173 1443 LINE",
"173 815 LINE",
"24 815 LINE",
"24 663 LINE",
"173 663 LINE",
"173 0 LINE",
"564 0 LINE SMOOTH",
"974 0 OFFCURVE",
"1179 242 OFFCURVE",
"1179 724 CURVE SMOOTH",
"1179 1202 OFFCURVE",
"973 1443 OFFCURVE",
"564 1443 CURVE SMOOTH"
);
},
{
closed = 1;
nodes = (
"622 663 LINE",
"622 815 LINE",
"343 815 LINE",
"343 1286 LINE",
"550 1286 LINE SMOOTH",
"857 1286 OFFCURVE",
"1002 1105 OFFCURVE",
"1002 723 CURVE SMOOTH",
"1002 335 OFFCURVE",
"859 157 OFFCURVE",
"552 157 CURVE SMOOTH",
"343 157 LINE",
"343 663 LINE"
);
}
);
width = 1266;
}
);
note = Dcroat;
unicode = 0110;
},
{
glyphname = Ddotaccent;
layers = (
{
layerId = "2811F81C-6B8F-4884-92F2-C07A91FF888C";
paths = (
{
closed = 1;
nodes = (
"652 1640 OFFCURVE",
"710 1699 OFFCURVE",
"710 1769 CURVE SMOOTH",
"710 1839 OFFCURVE",
"652 1897 OFFCURVE",
"584 1897 CURVE SMOOTH",
"516 1897 OFFCURVE",
"458 1839 OFFCURVE",
"458 1769 CURVE SMOOTH",
"458 1699 OFFCURVE",
"516 1640 OFFCURVE",
"584 1640 CURVE SMOOTH"
);
},
{
closed = 1;
nodes = (
"160 1443 LINE",
"160 0 LINE",
"564 0 LINE SMOOTH",
"973 0 OFFCURVE",
"1179 242 OFFCURVE",
"1179 724 CURVE SMOOTH",
"1179 1202 OFFCURVE",
"973 1443 OFFCURVE",
"564 1443 CURVE SMOOTH"
);
},
{
closed = 1;
nodes = (
"337 1281 LINE",
"548 1281 LINE SMOOTH",
"853 1281 OFFCURVE",
"999 1101 OFFCURVE",
"999 723 CURVE SMOOTH",
"999 341 OFFCURVE",
"854 162 OFFCURVE",
"548 162 CURVE SMOOTH",
"337 162 LINE"
);
}
);
width = 1266;
}
);
note = Ddotaccent;
unicode = 1E0A;
},
{
glyphname = Ddotbelow;
layers = (
{
layerId = "2811F81C-6B8F-4884-92F2-C07A91FF888C";
paths = (
{
closed = 1;
nodes = (
"160 1443 LINE",
"160 0 LINE",
"564 0 LINE SMOOTH",
"973 0 OFFCURVE",
"1179 242 OFFCURVE",
"1179 724 CURVE SMOOTH",
"1179 1202 OFFCURVE",
"973 1443 OFFCURVE",
"564 1443 CURVE SMOOTH"
);
},
{
closed = 1;
nodes = (
"337 1281 LINE",
"548 1281 LINE SMOOTH",
"853 1281 OFFCURVE",
"999 1101 OFFCURVE",
"999 723 CURVE SMOOTH",
"999 341 OFFCURVE",
"854 162 OFFCURVE",
"548 162 CURVE SMOOTH",
"337 162 LINE"
);
},
{
closed = 1;
nodes = (
"652 -451 OFFCURVE",
"710 -393 OFFCURVE",
"710 -323 CURVE SMOOTH",
"710 -253 OFFCURVE",
"652 -194 OFFCURVE",
"584 -194 CURVE SMOOTH",
"516 -194 OFFCURVE",
"458 -253 OFFCURVE",
"458 -323 CURVE SMOOTH",
"458 -393 OFFCURVE",
"516 -451 OFFCURVE",
"584 -451 CURVE SMOOTH"
);
}
);
width = 1266;
}
);
note = Ddotbelow;
unicode = 1E0C;
},
{
glyphname = Dlinebelow;
layers = (
{
layerId = "2811F81C-6B8F-4884-92F2-C07A91FF888C";
paths = (
{
closed = 1;
nodes = (
"160 1443 LINE",
"160 0 LINE",
"564 0 LINE SMOOTH",
"973 0 OFFCURVE",
"1179 242 OFFCURVE",
"1179 724 CURVE SMOOTH",
"1179 1202 OFFCURVE",
"973 1443 OFFCURVE",
"564 1443 CURVE SMOOTH"
);
},
{
closed = 1;
nodes = (
"337 1281 LINE",
"548 1281 LINE SMOOTH",
"853 1281 OFFCURVE",
"999 1101 OFFCURVE",
"999 723 CURVE SMOOTH",
"999 341 OFFCURVE",
"854 162 OFFCURVE",
"548 162 CURVE SMOOTH",
"337 162 LINE"
);
},
{
closed = 1;
nodes = (
"914 -395 LINE",
"914 -256 LINE",
"254 -256 LINE",
"254 -395 LINE"
);
}
);
width = 1266;
}
);
note = Dlinebelow;
unicode = 1E0E;
},
{
glyphname = Dz;
layers = (
{
layerId = "2811F81C-6B8F-4884-92F2-C07A91FF888C";
paths = (
{
closed = 1;
nodes = (
"49 1443 LINE",
"49 0 LINE",
"220 0 LINE SMOOTH",
"531 0 OFFCURVE",
"645 189 OFFCURVE",
"645 723 CURVE SMOOTH",
"645 1253 OFFCURVE",
"530 1443 OFFCURVE",
"220 1443 CURVE SMOOTH"
);
},
{
closed = 1;
nodes = (
"198 1303 LINE",
"219 1303 LINE SMOOTH",
"425 1303 OFFCURVE",
"491 1159 OFFCURVE",
"491 723 CURVE SMOOTH",
"491 281 OFFCURVE",
"425 139 OFFCURVE",
"219 139 CURVE SMOOTH",
"198 139 LINE"
);
},
{
closed = 1;
nodes = (
"716 0 LINE",
"1241 0 LINE",
"1241 134 LINE",
"880 134 LINE",
"880 148 LINE",
"1237 958 LINE",
"1237 1085 LINE",
"727 1085 LINE",
"727 951 LINE",
"1080 951 LINE",
"1080 937 LINE",
"716 120 LINE"
);
}
);
width = 1266;
}
);
note = uni01F2;
unicode = 01F2;
},
{
glyphname = Dzcaron;
layers = (
{
layerId = "2811F81C-6B8F-4884-92F2-C07A91FF888C";
paths = (
{
closed = 1;
nodes = (
"1073 1296 LINE",
"1283 1638 LINE",
"1125 1638 LINE",
"995 1396 LINE",
"978 1396 LINE",
"847 1638 LINE",
"689 1638 LINE",
"899 1296 LINE"
);
},
{
closed = 1;
nodes = (
"49 1443 LINE",
"49 0 LINE",
"220 0 LINE SMOOTH",
"531 0 OFFCURVE",
"645 189 OFFCURVE",
"645 723 CURVE SMOOTH",
"645 1253 OFFCURVE",
"530 1443 OFFCURVE",
"220 1443 CURVE SMOOTH"
);
},
{
closed = 1;
nodes = (
"198 1303 LINE",
"219 1303 LINE SMOOTH",
"425 1303 OFFCURVE",
"491 1159 OFFCURVE",
"491 723 CURVE SMOOTH",
"491 281 OFFCURVE",
"425 139 OFFCURVE",
"219 139 CURVE SMOOTH",
"198 139 LINE"
);
},
{
closed = 1;
nodes = (
"716 0 LINE",
"1241 0 LINE",
"1241 134 LINE",
"880 134 LINE",
"880 148 LINE",
"1237 958 LINE",
"1237 1085 LINE",
"727 1085 LINE",
"727 951 LINE",
"1080 951 LINE",
"1080 937 LINE",
"716 120 LINE"
);
}
);
width = 1266;
}
);
note = uni01C5;
unicode = 01C5;
},
{
glyphname = E;
layers = (
{
layerId = "2811F81C-6B8F-4884-92F2-C07A91FF888C";
paths = (
{
closed = 1;
nodes = (
"1082 162 LINE",
"407 162 LINE",
"407 658 LINE",
"1045 658 LINE",
"1045 813 LINE",
"407 813 LINE",
"407 1281 LINE",
"1082 1281 LINE",
"1082 1443 LINE",
"230 1443 LINE",
"230 0 LINE",
"1082 0 LINE"
);
}
);
width = 1266;
}
);
note = E;
unicode = 0045;
},
{
glyphname = Eacute;
layers = (
{
layerId = "2811F81C-6B8F-4884-92F2-C07A91FF888C";
paths = (
{
closed = 1;
nodes = (
"536 1612 LINE",
"722 1612 LINE",
"1044 1916 LINE",
"837 1916 LINE"
);
},
{
closed = 1;
nodes = (
"1082 162 LINE",
"407 162 LINE",
"407 658 LINE",
"1045 658 LINE",
"1045 813 LINE",
"407 813 LINE",
"407 1281 LINE",
"1082 1281 LINE",
"1082 1443 LINE",
"230 1443 LINE",
"230 0 LINE",
"1082 0 LINE"
);
}
);
width = 1266;
}
);
note = Eacute;
unicode = 00C9;
},
{
glyphname = Ebreve;
layers = (
{
layerId = "2811F81C-6B8F-4884-92F2-C07A91FF888C";
paths = (
{
closed = 1;
nodes = (
"311 1918 LINE",
"311 1736 OFFCURVE",
"451 1609 OFFCURVE",
"656 1609 CURVE SMOOTH",
"861 1609 OFFCURVE",
"1001 1736 OFFCURVE",
"1001 1918 CURVE",
"863 1918 LINE",
"862 1807 OFFCURVE",
"777 1727 OFFCURVE",
"656 1727 CURVE SMOOTH",
"535 1727 OFFCURVE",
"450 1807 OFFCURVE",
"449 1918 CURVE"
);
},
{
closed = 1;
nodes = (
"1082 162 LINE",
"407 162 LINE",
"407 658 LINE",
"1045 658 LINE",
"1045 813 LINE",
"407 813 LINE",
"407 1281 LINE",
"1082 1281 LINE",
"1082 1443 LINE",
"230 1443 LINE",
"230 0 LINE",
"1082 0 LINE"
);
}
);
width = 1266;
}
);
note = Ebreve;
unicode = 0114;
},
{
glyphname = Ecaron;
layers = (
{
layerId = "2811F81C-6B8F-4884-92F2-C07A91FF888C";
paths = (
{
closed = 1;
nodes = (
"736 1610 LINE",
"1022 1919 LINE",
"843 1919 LINE",
"663 1719 LINE",
"649 1719 LINE",
"469 1919 LINE",
"289 1919 LINE",
"576 1610 LINE"
);
},
{
closed = 1;
nodes = (
"1082 162 LINE",
"407 162 LINE",
"407 658 LINE",
"1045 658 LINE",
"1045 813 LINE",
"407 813 LINE",
"407 1281 LINE",
"1082 1281 LINE",
"1082 1443 LINE",
"230 1443 LINE",
"230 0 LINE",
"1082 0 LINE"
);
}
);
width = 1266;
}
);
note = Ecaron;
unicode = 011A;
},
{
glyphname = Ecedilla;
layers = (
{
layerId = "2811F81C-6B8F-4884-92F2-C07A91FF888C";
paths = (
{
closed = 1;
nodes = (
"541 -236 LINE",
"598 -236 LINE SMOOTH",
"701 -236 OFFCURVE",
"742 -255 OFFCURVE",
"742 -301 CURVE SMOOTH",
"742 -348 OFFCURVE",
"701 -373 OFFCURVE",
"628 -373 CURVE SMOOTH",
"591 -373 OFFCURVE",
"532 -366 OFFCURVE",
"509 -359 CURVE",
"509 -469 LINE",
"555 -481 OFFCURVE",
"590 -486 OFFCURVE",
"640 -486 CURVE SMOOTH",
"785 -486 OFFCURVE",
"879 -413 OFFCURVE",
"879 -297 CURVE SMOOTH",
"879 -191 OFFCURVE",
"809 -133 OFFCURVE",
"680 -132 CURVE",
"733 0 LINE",
"1082 0 LINE",
"1082 162 LINE",
"407 162 LINE",
"407 658 LINE",
"1045 658 LINE",
"1045 813 LINE",
"407 813 LINE",
"407 1281 LINE",
"1082 1281 LINE",
"1082 1443 LINE",
"230 1443 LINE",
"230 0 LINE",
"602 0 LINE",
"541 -150 LINE"
);
}
);
width = 1266;
}
);
note = Ecedilla;
unicode = 0228;
},
{
glyphname = Ecedillabreve;
layers = (
{
layerId = "2811F81C-6B8F-4884-92F2-C07A91FF888C";
paths = (
{
closed = 1;
nodes = (
"311 1918 LINE",
"311 1736 OFFCURVE",
"451 1609 OFFCURVE",
"656 1609 CURVE SMOOTH",
"861 1609 OFFCURVE",
"1001 1736 OFFCURVE",
"1001 1918 CURVE",
"863 1918 LINE",
"862 1807 OFFCURVE",
"777 1727 OFFCURVE",
"656 1727 CURVE SMOOTH",
"535 1727 OFFCURVE",
"450 1807 OFFCURVE",
"449 1918 CURVE"
);
},
{
closed = 1;
nodes = (
"541 -236 LINE",
"598 -236 LINE SMOOTH",
"701 -236 OFFCURVE",
"742 -255 OFFCURVE",
"742 -301 CURVE SMOOTH",
"742 -348 OFFCURVE",
"701 -373 OFFCURVE",
"628 -373 CURVE SMOOTH",
"591 -373 OFFCURVE",
"532 -366 OFFCURVE",
"509 -359 CURVE",
"509 -469 LINE",
"555 -481 OFFCURVE",
"590 -486 OFFCURVE",
"640 -486 CURVE SMOOTH",
"785 -486 OFFCURVE",
"879 -413 OFFCURVE",
"879 -297 CURVE SMOOTH",
"879 -191 OFFCURVE",
"809 -133 OFFCURVE",
"680 -132 CURVE",
"733 0 LINE",
"1082 0 LINE",
"1082 162 LINE",
"407 162 LINE",
"407 658 LINE",
"1045 658 LINE",
"1045 813 LINE",
"407 813 LINE",
"407 1281 LINE",
"1082 1281 LINE",
"1082 1443 LINE",
"230 1443 LINE",
"230 0 LINE",
"602 0 LINE",
"541 -150 LINE"
);
}
);
width = 1266;
}
);
note = Ecedillabreve;
unicode = 1E1C;
},
{
glyphname = Ecircumflex;
layers = (
{
layerId = "2811F81C-6B8F-4884-92F2-C07A91FF888C";
paths = (
{
closed = 1;
nodes = (
"736 1921 LINE",
"576 1921 LINE",
"289 1612 LINE",
"469 1612 LINE",
"649 1812 LINE",
"663 1812 LINE",
"843 1612 LINE",
"1022 1612 LINE"
);
},
{
closed = 1;
nodes = (
"1082 162 LINE",
"407 162 LINE",
"407 658 LINE",
"1045 658 LINE",
"1045 813 LINE",
"407 813 LINE",
"407 1281 LINE",
"1082 1281 LINE",
"1082 1443 LINE",
"230 1443 LINE",
"230 0 LINE",
"1082 0 LINE"
);
}
);
width = 1266;
}
);
note = Ecircumflex;
unicode = 00CA;
},
{
glyphname = Ecircumflexacute;
layers = (
{
layerId = "2811F81C-6B8F-4884-92F2-C07A91FF888C";
paths = (
{
closed = 1;
nodes = (
"858 1844 LINE",
"1028 1844 LINE",
"1262 2083 LINE",
"1071 2083 LINE"
);
},
{
closed = 1;
nodes = (
"746 1813 LINE",
"566 1813 LINE",
"284 1578 LINE",
"478 1578 LINE",
"649 1724 LINE",
"663 1724 LINE",
"834 1578 LINE",
"1028 1578 LINE"
);
},
{
closed = 1;
nodes = (
"1082 162 LINE",
"407 162 LINE",
"407 658 LINE",
"1045 658 LINE",
"1045 813 LINE",
"407 813 LINE",
"407 1281 LINE",
"1082 1281 LINE",
"1082 1443 LINE",
"230 1443 LINE",
"230 0 LINE",
"1082 0 LINE"
);
}
);
width = 1266;
}
);
note = Ecircumflexacute;
unicode = 1EBE;
},
{
glyphname = Ecircumflexbelow;
layers = (
{
layerId = "2811F81C-6B8F-4884-92F2-C07A91FF888C";
paths = (
{
closed = 1;
nodes = (
"1082 162 LINE",
"407 162 LINE",
"407 658 LINE",
"1045 658 LINE",
"1045 813 LINE",
"407 813 LINE",
"407 1281 LINE",
"1082 1281 LINE",
"1082 1443 LINE",
"230 1443 LINE",
"230 0 LINE",
"1082 0 LINE"
);
},
{
closed = 1;
nodes = (
"556 -166 LINE",
"282 -508 LINE",
"476 -508 LINE",
"648 -281 LINE",
"663 -281 LINE",
"836 -508 LINE",
"1030 -508 LINE",
"756 -166 LINE"
);
}
);
width = 1266;
}
);
note = Ecircumflexbelow;
unicode = 1E18;
},
{
glyphname = Ecircumflexdotbelow;
layers = (
{
layerId = "2811F81C-6B8F-4884-92F2-C07A91FF888C";
paths = (
{
closed = 1;
nodes = (
"736 1921 LINE",
"576 1921 LINE",
"289 1612 LINE",
"469 1612 LINE",
"649 1812 LINE",
"663 1812 LINE",
"843 1612 LINE",
"1022 1612 LINE"
);
},
{
closed = 1;
nodes = (
"1082 162 LINE",
"407 162 LINE",
"407 658 LINE",
"1045 658 LINE",
"1045 813 LINE",
"407 813 LINE",
"407 1281 LINE",
"1082 1281 LINE",
"1082 1443 LINE",
"230 1443 LINE",
"230 0 LINE",
"1082 0 LINE"
);
},
{
closed = 1;
nodes = (
"724 -436 OFFCURVE",
"782 -377 OFFCURVE",
"782 -307 CURVE SMOOTH",
"782 -237 OFFCURVE",
"724 -179 OFFCURVE",
"656 -179 CURVE SMOOTH",
"588 -179 OFFCURVE",
"530 -237 OFFCURVE",
"530 -307 CURVE SMOOTH",
"530 -377 OFFCURVE",
"588 -436 OFFCURVE",
"656 -436 CURVE SMOOTH"
);
}
);
width = 1266;
}
);
note = Ecircumflexdotbelow;
unicode = 1EC6;
},
{
glyphname = Ecircumflexgrave;
layers = (
{
layerId = "2811F81C-6B8F-4884-92F2-C07A91FF888C";
paths = (
{
closed = 1;
nodes = (
"1093 1844 LINE",
"880 2083 LINE",
"688 2083 LINE",
"923 1844 LINE"
);
},
{
closed = 1;
nodes = (
"746 1813 LINE",
"566 1813 LINE",
"284 1578 LINE",
"478 1578 LINE",
"649 1724 LINE",
"663 1724 LINE",
"834 1578 LINE",
"1028 1578 LINE"
);
},
{
closed = 1;
nodes = (
"1082 162 LINE",
"407 162 LINE",
"407 658 LINE",
"1045 658 LINE",
"1045 813 LINE",
"407 813 LINE",
"407 1281 LINE",
"1082 1281 LINE",
"1082 1443 LINE",
"230 1443 LINE",
"230 0 LINE",
"1082 0 LINE"
);
}
);
width = 1266;
}
);
note = Ecircumflexgrave;
unicode = 1EC0;
},
{
glyphname = Ecircumflexhookabove;
layers = (
{
layerId = "2811F81C-6B8F-4884-92F2-C07A91FF888C";
paths = (
{
closed = 1;
nodes = (
"779 1991 LINE",
"800 2002 OFFCURVE",
"839 2009 OFFCURVE",
"873 2009 CURVE SMOOTH",
"926 2009 OFFCURVE",
"962 1981 OFFCURVE",
"962 1939 CURVE SMOOTH",
"962 1898 OFFCURVE",
"931 1861 OFFCURVE",
"879 1840 CURVE",
"960 1770 LINE",
"1039 1800 OFFCURVE",
"1089 1870 OFFCURVE",
"1089 1950 CURVE SMOOTH",
"1089 2047 OFFCURVE",
"1015 2111 OFFCURVE",
"905 2111 CURVE SMOOTH",
"856 2111 OFFCURVE",
"804 2103 OFFCURVE",
"779 2092 CURVE"
);
},
{
closed = 1;
nodes = (
"746 1813 LINE",
"566 1813 LINE",
"284 1578 LINE",
"478 1578 LINE",
"649 1724 LINE",
"663 1724 LINE",
"834 1578 LINE",
"1028 1578 LINE"
);
},
{
closed = 1;
nodes = (
"1082 162 LINE",
"407 162 LINE",
"407 658 LINE",
"1045 658 LINE",
"1045 813 LINE",
"407 813 LINE",
"407 1281 LINE",
"1082 1281 LINE",
"1082 1443 LINE",
"230 1443 LINE",
"230 0 LINE",
"1082 0 LINE"
);
}
);
width = 1266;
}
);
note = Ecircumflexhookabove;
unicode = 1EC2;
},
{
glyphname = Ecircumflextilde;
layers = (
{
layerId = "2811F81C-6B8F-4884-92F2-C07A91FF888C";
paths = (
{
closed = 1;
nodes = (
"920 1864 OFFCURVE",
"1006 1959 OFFCURVE",
"1006 2103 CURVE",
"886 2103 LINE",
"882 2025 OFFCURVE",
"847 1984 OFFCURVE",
"792 1984 CURVE SMOOTH",
"688 1984 OFFCURVE",
"683 2117 OFFCURVE",
"516 2117 CURVE SMOOTH",
"391 2117 OFFCURVE",
"306 2024 OFFCURVE",
"306 1879 CURVE",
"427 1879 LINE",
"430 1956 OFFCURVE",
"463 1997 OFFCURVE",
"520 1997 CURVE SMOOTH",
"624 1997 OFFCURVE",
"629 1864 OFFCURVE",
"796 1864 CURVE SMOOTH"
);
},
{
closed = 1;
nodes = (
"746 1813 LINE",
"566 1813 LINE",
"284 1578 LINE",
"478 1578 LINE",
"649 1724 LINE",
"663 1724 LINE",
"834 1578 LINE",
"1028 1578 LINE"
);
},
{
closed = 1;
nodes = (
"1082 162 LINE",
"407 162 LINE",
"407 658 LINE",
"1045 658 LINE",
"1045 813 LINE",
"407 813 LINE",
"407 1281 LINE",
"1082 1281 LINE",
"1082 1443 LINE",
"230 1443 LINE",
"230 0 LINE",
"1082 0 LINE"
);
}
);
width = 1266;
}
);
note = Ecircumflextilde;
unicode = 1EC4;
},
{
glyphname = Edblgrave;
layers = (
{
layerId = "2811F81C-6B8F-4884-92F2-C07A91FF888C";
paths = (
{
closed = 1;
nodes = (
"590 1612 LINE",
"296 1916 LINE",
"101 1916 LINE",
"414 1612 LINE"
);
},
{
closed = 1;
nodes = (
"969 1612 LINE",
"675 1916 LINE",
"480 1916 LINE",
"792 1612 LINE"
);
},
{
closed = 1;
nodes = (
"1082 162 LINE",
"407 162 LINE",
"407 658 LINE",
"1045 658 LINE",
"1045 813 LINE",
"407 813 LINE",
"407 1281 LINE",
"1082 1281 LINE",
"1082 1443 LINE",
"230 1443 LINE",
"230 0 LINE",
"1082 0 LINE"
);
}
);
width = 1266;
}
);
note = Edblgrave;
unicode = 0204;
},
{
glyphname = Edieresis;
layers = (
{
layerId = "2811F81C-6B8F-4884-92F2-C07A91FF888C";
paths = (
{
closed = 1;
nodes = (
"517 1651 OFFCURVE",
"571 1707 OFFCURVE",
"571 1772 CURVE SMOOTH",
"571 1838 OFFCURVE",
"517 1893 OFFCURVE",
"454 1893 CURVE SMOOTH",
"392 1893 OFFCURVE",
"337 1838 OFFCURVE",
"337 1772 CURVE SMOOTH",
"337 1707 OFFCURVE",
"392 1651 OFFCURVE",
"454 1651 CURVE SMOOTH"
);
},
{
closed = 1;
nodes = (
"920 1651 OFFCURVE",
"975 1707 OFFCURVE",
"975 1772 CURVE SMOOTH",
"975 1838 OFFCURVE",
"920 1893 OFFCURVE",
"858 1893 CURVE SMOOTH",
"795 1893 OFFCURVE",
"741 1838 OFFCURVE",
"741 1772 CURVE SMOOTH",
"741 1707 OFFCURVE",
"795 1651 OFFCURVE",
"858 1651 CURVE SMOOTH"
);
},
{
closed = 1;
nodes = (
"1082 162 LINE",
"407 162 LINE",
"407 658 LINE",
"1045 658 LINE",
"1045 813 LINE",
"407 813 LINE",
"407 1281 LINE",
"1082 1281 LINE",
"1082 1443 LINE",
"230 1443 LINE",
"230 0 LINE",
"1082 0 LINE"
);
}
);
width = 1266;
}
);
note = Edieresis;
unicode = 00CB;
},
{
glyphname = Edotaccent;
layers = (
{
layerId = "2811F81C-6B8F-4884-92F2-C07A91FF888C";
paths = (
{
closed = 1;
nodes = (
"726 1640 OFFCURVE",
"784 1699 OFFCURVE",
"784 1769 CURVE SMOOTH",
"784 1839 OFFCURVE",
"726 1897 OFFCURVE",
"658 1897 CURVE SMOOTH",
"590 1897 OFFCURVE",
"532 1839 OFFCURVE",
"532 1769 CURVE SMOOTH",
"532 1699 OFFCURVE",
"590 1640 OFFCURVE",
"658 1640 CURVE SMOOTH"
);
},
{
closed = 1;
nodes = (
"1082 162 LINE",
"407 162 LINE",
"407 658 LINE",
"1045 658 LINE",
"1045 813 LINE",
"407 813 LINE",
"407 1281 LINE",
"1082 1281 LINE",
"1082 1443 LINE",
"230 1443 LINE",
"230 0 LINE",
"1082 0 LINE"
);
}
);
width = 1266;
}
);
note = Edotaccent;
unicode = 0116;
},
{
glyphname = Edotbelow;
layers = (
{
layerId = "2811F81C-6B8F-4884-92F2-C07A91FF888C";
paths = (
{
closed = 1;
nodes = (
"1082 162 LINE",
"407 162 LINE",
"407 658 LINE",
"1045 658 LINE",
"1045 813 LINE",
"407 813 LINE",
"407 1281 LINE",
"1082 1281 LINE",
"1082 1443 LINE",
"230 1443 LINE",
"230 0 LINE",
"1082 0 LINE"
);
},
{
closed = 1;
nodes = (
"724 -436 OFFCURVE",
"782 -377 OFFCURVE",
"782 -307 CURVE SMOOTH",
"782 -237 OFFCURVE",
"724 -179 OFFCURVE",
"656 -179 CURVE SMOOTH",
"588 -179 OFFCURVE",
"530 -237 OFFCURVE",
"530 -307 CURVE SMOOTH",
"530 -377 OFFCURVE",
"588 -436 OFFCURVE",
"656 -436 CURVE SMOOTH"
);
}
);
width = 1266;
}
);
note = Edotbelow;
unicode = 1EB8;
},
{
glyphname = Egrave;
layers = (
{
layerId = "2811F81C-6B8F-4884-92F2-C07A91FF888C";
paths = (
{
closed = 1;
nodes = (
"770 1612 LINE",
"469 1916 LINE",
"262 1916 LINE",
"584 1612 LINE"
);
},
{
closed = 1;
nodes = (
"1082 162 LINE",
"407 162 LINE",
"407 658 LINE",
"1045 658 LINE",
"1045 813 LINE",
"407 813 LINE",
"407 1281 LINE",
"1082 1281 LINE",
"1082 1443 LINE",
"230 1443 LINE",
"230 0 LINE",
"1082 0 LINE"
);
}
);
width = 1266;
}
);
note = Egrave;
unicode = 00C8;
},
{
glyphname = Ehookabove;
layers = (
{
layerId = "2811F81C-6B8F-4884-92F2-C07A91FF888C";
paths = (
{
closed = 1;
nodes = (
"483 1816 LINE",
"508 1829 OFFCURVE",
"550 1838 OFFCURVE",
"593 1838 CURVE SMOOTH",
"656 1838 OFFCURVE",
"696 1807 OFFCURVE",
"696 1763 CURVE SMOOTH",
"696 1720 OFFCURVE",
"655 1678 OFFCURVE",
"595 1657 CURVE",
"662 1571 LINE",
"761 1609 OFFCURVE",
"825 1688 OFFCURVE",
"825 1777 CURVE SMOOTH",
"825 1886 OFFCURVE",
"742 1954 OFFCURVE",
"616 1954 CURVE SMOOTH",
"567 1954 OFFCURVE",
"514 1943 OFFCURVE",
"483 1929 CURVE"
);
},
{
closed = 1;
nodes = (
"1082 162 LINE",
"407 162 LINE",
"407 658 LINE",
"1045 658 LINE",
"1045 813 LINE",
"407 813 LINE",
"407 1281 LINE",
"1082 1281 LINE",
"1082 1443 LINE",
"230 1443 LINE",
"230 0 LINE",
"1082 0 LINE"
);
}
);
width = 1266;
}
);
note = Ehookabove;
unicode = 1EBA;
},
{
glyphname = Einvertedbreve;
layers = (
{
layerId = "2811F81C-6B8F-4884-92F2-C07A91FF888C";
paths = (
{
closed = 1;
nodes = (
"449 1609 LINE",
"450 1720 OFFCURVE",
"535 1799 OFFCURVE",
"656 1799 CURVE SMOOTH",
"777 1799 OFFCURVE",
"862 1720 OFFCURVE",
"863 1609 CURVE",
"1001 1609 LINE",
"1001 1791 OFFCURVE",
"861 1918 OFFCURVE",
"656 1918 CURVE SMOOTH",
"451 1918 OFFCURVE",
"311 1791 OFFCURVE",
"311 1609 CURVE"
);
},
{
closed = 1;
nodes = (
"1082 162 LINE",
"407 162 LINE",
"407 658 LINE",
"1045 658 LINE",
"1045 813 LINE",
"407 813 LINE",
"407 1281 LINE",
"1082 1281 LINE",
"1082 1443 LINE",
"230 1443 LINE",
"230 0 LINE",
"1082 0 LINE"
);
}
);
width = 1266;
}
);
note = Einvertedbreve;
unicode = 0206;
},
{
glyphname = Emacron;
layers = (
{
layerId = "2811F81C-6B8F-4884-92F2-C07A91FF888C";
paths = (
{
closed = 1;
nodes = (
"986 1696 LINE",
"986 1835 LINE",
"326 1835 LINE",
"326 1696 LINE"
);
},
{
closed = 1;
nodes = (
"1082 162 LINE",
"407 162 LINE",
"407 658 LINE",
"1045 658 LINE",
"1045 813 LINE",
"407 813 LINE",
"407 1281 LINE",
"1082 1281 LINE",
"1082 1443 LINE",
"230 1443 LINE",
"230 0 LINE",
"1082 0 LINE"
);
}
);
width = 1266;
}
);
note = Emacron;
unicode = 0112;
},
{
glyphname = Emacronacute;
layers = (
{
layerId = "2811F81C-6B8F-4884-92F2-C07A91FF888C";
paths = (
{
closed = 1;
nodes = (
"528 1851 LINE",
"702 1851 LINE",
"930 2082 LINE",
"735 2082 LINE"
);
},
{
closed = 1;
nodes = (
"324 1614 LINE",
"987 1614 LINE",
"987 1734 LINE",
"324 1734 LINE"
);
},
{
closed = 1;
nodes = (
"1082 162 LINE",
"407 162 LINE",
"407 658 LINE",
"1045 658 LINE",
"1045 813 LINE",
"407 813 LINE",
"407 1281 LINE",
"1082 1281 LINE",
"1082 1443 LINE",
"230 1443 LINE",
"230 0 LINE",
"1082 0 LINE"
);
}
);
width = 1266;
}
);
note = Emacronacute;
unicode = 1E16;
},
{
glyphname = Emacrongrave;
layers = (
{
layerId = "2811F81C-6B8F-4884-92F2-C07A91FF888C";
paths = (
{
closed = 1;
nodes = (
"782 1852 LINE",
"575 2083 LINE",
"380 2083 LINE",
"609 1852 LINE"
);
},
{
closed = 1;
nodes = (
"987 1615 LINE",
"987 1735 LINE",
"324 1735 LINE",
"324 1615 LINE"
);
},
{
closed = 1;
nodes = (
"1082 162 LINE",
"407 162 LINE",
"407 658 LINE",
"1045 658 LINE",
"1045 813 LINE",
"407 813 LINE",
"407 1281 LINE",
"1082 1281 LINE",
"1082 1443 LINE",
"230 1443 LINE",
"230 0 LINE",
"1082 0 LINE"
);
}
);
width = 1266;
}
);
note = Emacrongrave;
unicode = 1E14;
},
{
glyphname = Eogonek;
layers = (
{
layerId = "2811F81C-6B8F-4884-92F2-C07A91FF888C";
paths = (
{
closed = 1;
nodes = (
"891 0 LINE",
"891 -14 LINE",
"795 -72 OFFCURVE",
"748 -143 OFFCURVE",
"748 -229 CURVE SMOOTH",
"748 -347 OFFCURVE",
"845 -430 OFFCURVE",
"983 -430 CURVE SMOOTH",
"1023 -430 OFFCURVE",
"1061 -424 OFFCURVE",
"1090 -413 CURVE",
"1090 -293 LINE",
"1073 -297 OFFCURVE",
"1046 -301 OFFCURVE",
"1022 -301 CURVE SMOOTH",
"951 -301 OFFCURVE",
"899 -254 OFFCURVE",
"899 -191 CURVE SMOOTH",
"899 -113 OFFCURVE",
"951 -46 OFFCURVE",
"1067 2 CURVE SMOOTH",
"1082 8 LINE",
"1082 162 LINE",
"407 162 LINE",
"407 658 LINE",
"1045 658 LINE",
"1045 813 LINE",
"407 813 LINE",
"407 1281 LINE",
"1082 1281 LINE",
"1082 1443 LINE",
"230 1443 LINE",
"230 0 LINE"
);
}
);
width = 1266;
}
);
note = Eogonek;
unicode = 0118;
},
{
glyphname = Etilde;
layers = (
{
layerId = "2811F81C-6B8F-4884-92F2-C07A91FF888C";
paths = (
{
closed = 1;
nodes = (
"931 1620 OFFCURVE",
"1017 1724 OFFCURVE",
"1017 1888 CURVE",
"895 1888 LINE",
"891 1793 OFFCURVE",
"854 1743 OFFCURVE",
"796 1743 CURVE SMOOTH",
"704 1743 OFFCURVE",
"671 1900 OFFCURVE",
"508 1900 CURVE SMOOTH",
"379 1900 OFFCURVE",
"294 1798 OFFCURVE",
"294 1630 CURVE",
"418 1630 LINE",
"421 1728 OFFCURVE",
"456 1776 OFFCURVE",
"516 1776 CURVE SMOOTH",
"620 1776 OFFCURVE",
"648 1620 OFFCURVE",
"804 1620 CURVE SMOOTH"
);
},
{
closed = 1;
nodes = (
"1082 162 LINE",
"407 162 LINE",
"407 658 LINE",
"1045 658 LINE",
"1045 813 LINE",
"407 813 LINE",
"407 1281 LINE",
"1082 1281 LINE",
"1082 1443 LINE",
"230 1443 LINE",
"230 0 LINE",
"1082 0 LINE"
);
}
);
width = 1266;
}
);
note = Etilde;
unicode = 1EBC;
},
{
glyphname = Etildebelow;
layers = (
{
layerId = "2811F81C-6B8F-4884-92F2-C07A91FF888C";
paths = (
{
closed = 1;
nodes = (
"1082 162 LINE",
"407 162 LINE",
"407 658 LINE",
"1045 658 LINE",
"1045 813 LINE",
"407 813 LINE",
"407 1281 LINE",
"1082 1281 LINE",
"1082 1443 LINE",
"230 1443 LINE",
"230 0 LINE",
"1082 0 LINE"
);
},
{
closed = 1;
nodes = (
"600 -294 OFFCURVE",
"642 -452 OFFCURVE",
"798 -452 CURVE SMOOTH",
"939 -452 OFFCURVE",
"1025 -341 OFFCURVE",
"1025 -159 CURVE",
"885 -159 LINE",
"885 -267 OFFCURVE",
"859 -314 OFFCURVE",
"798 -314 CURVE SMOOTH",
"713 -314 OFFCURVE",
"670 -158 OFFCURVE",
"514 -158 CURVE SMOOTH",
"372 -158 OFFCURVE",
"287 -269 OFFCURVE",
"287 -451 CURVE",
"427 -451 LINE",
"427 -342 OFFCURVE",
"453 -294 OFFCURVE",
"514 -294 CURVE SMOOTH"
);
}
);
width = 1266;
}
);
note = Etildebelow;
unicode = 1E1A;
},
{
glyphname = F;
layers = (
{
layerId = "2811F81C-6B8F-4884-92F2-C07A91FF888C";
paths = (
{
closed = 1;
nodes = (
"431 0 LINE",
"431 629 LINE",
"1047 629 LINE",
"1047 786 LINE",
"431 786 LINE",
"431 1281 LINE",
"1105 1281 LINE",
"1105 1443 LINE",
"254 1443 LINE",
"254 0 LINE"
);
}
);
width = 1266;
}
);
note = F;
unicode = 0046;
},
{
glyphname = Fdotaccent;
layers = (
{
layerId = "2811F81C-6B8F-4884-92F2-C07A91FF888C";
paths = (
{
closed = 1;
nodes = (
"704 1640 OFFCURVE",
"762 1699 OFFCURVE",
"762 1769 CURVE SMOOTH",
"762 1839 OFFCURVE",
"704 1897 OFFCURVE",
"636 1897 CURVE SMOOTH",
"569 1897 OFFCURVE",
"510 1839 OFFCURVE",
"510 1769 CURVE SMOOTH",
"510 1699 OFFCURVE",
"569 1640 OFFCURVE",
"636 1640 CURVE SMOOTH"
);
},
{
closed = 1;
nodes = (
"431 0 LINE",
"431 629 LINE",
"1047 629 LINE",
"1047 786 LINE",
"431 786 LINE",
"431 1281 LINE",
"1105 1281 LINE",
"1105 1443 LINE",
"254 1443 LINE",
"254 0 LINE"
);
}
);
width = 1266;
}
);
note = Fdotaccent;
unicode = 1E1E;
},
{
glyphname = G;
layers = (
{
layerId = "2811F81C-6B8F-4884-92F2-C07A91FF888C";
paths = (
{
closed = 1;
nodes = (
"976 442 LINE SMOOTH",
"976 253 OFFCURVE",
"854 137 OFFCURVE",
"657 137 CURVE SMOOTH",
"424 137 OFFCURVE",
"302 294 OFFCURVE",
"302 593 CURVE SMOOTH",
"302 850 LINE SMOOTH",
"302 1149 OFFCURVE",
"423 1306 OFFCURVE",
"656 1306 CURVE SMOOTH",
"840 1306 OFFCURVE",
"968 1179 OFFCURVE",
"976 991 CURVE",
"1154 991 LINE",
"1147 1290 OFFCURVE",
"959 1473 OFFCURVE",
"659 1473 CURVE SMOOTH",
"320 1473 OFFCURVE",
"124 1245 OFFCURVE",
"124 850 CURVE SMOOTH",
"124 593 LINE SMOOTH",
"124 198 OFFCURVE",
"320 -30 OFFCURVE",
"659 -30 CURVE SMOOTH",
"950 -30 OFFCURVE",
"1154 156 OFFCURVE",
"1154 427 CURVE SMOOTH",
"1154 734 LINE",
"643 734 LINE",
"643 583 LINE",
"976 583 LINE"
);
}
);
width = 1266;
}
);
note = G;
unicode = 0047;
},
{
glyphname = Gacute;
layers = (
{
layerId = "2811F81C-6B8F-4884-92F2-C07A91FF888C";
paths = (
{
closed = 1;
nodes = (
"539 1612 LINE",
"724 1612 LINE",
"1046 1916 LINE",
"840 1916 LINE"
);
},
{
closed = 1;
nodes = (
"976 442 LINE SMOOTH",
"976 253 OFFCURVE",
"854 137 OFFCURVE",
"657 137 CURVE SMOOTH",
"424 137 OFFCURVE",
"302 294 OFFCURVE",
"302 593 CURVE SMOOTH",
"302 850 LINE SMOOTH",
"302 1149 OFFCURVE",
"423 1306 OFFCURVE",
"656 1306 CURVE SMOOTH",
"840 1306 OFFCURVE",
"968 1179 OFFCURVE",
"976 991 CURVE",
"1154 991 LINE",
"1147 1290 OFFCURVE",
"959 1473 OFFCURVE",
"659 1473 CURVE SMOOTH",
"320 1473 OFFCURVE",
"124 1245 OFFCURVE",
"124 850 CURVE SMOOTH",
"124 593 LINE SMOOTH",
"124 198 OFFCURVE",
"320 -30 OFFCURVE",
"659 -30 CURVE SMOOTH",
"950 -30 OFFCURVE",
"1154 156 OFFCURVE",
"1154 427 CURVE SMOOTH",
"1154 734 LINE",
"643 734 LINE",
"643 583 LINE",
"976 583 LINE"
);
}
);
width = 1266;
}
);
note = Gacute;
unicode = 01F4;
},
{
glyphname = Gbreve;
layers = (
{
layerId = "2811F81C-6B8F-4884-92F2-C07A91FF888C";
paths = (
{
closed = 1;
nodes = (
"301 1918 LINE",
"301 1736 OFFCURVE",
"441 1609 OFFCURVE",
"647 1609 CURVE SMOOTH",
"852 1609 OFFCURVE",
"992 1736 OFFCURVE",
"992 1918 CURVE",
"853 1918 LINE",
"853 1807 OFFCURVE",
"767 1727 OFFCURVE",
"647 1727 CURVE SMOOTH",
"526 1727 OFFCURVE",
"440 1807 OFFCURVE",
"440 1918 CURVE"
);
},
{
closed = 1;
nodes = (
"976 442 LINE SMOOTH",
"976 253 OFFCURVE",
"854 137 OFFCURVE",
"657 137 CURVE SMOOTH",
"424 137 OFFCURVE",
"302 294 OFFCURVE",
"302 593 CURVE SMOOTH",
"302 850 LINE SMOOTH",
"302 1149 OFFCURVE",
"423 1306 OFFCURVE",
"656 1306 CURVE SMOOTH",
"840 1306 OFFCURVE",
"968 1179 OFFCURVE",
"976 991 CURVE",
"1154 991 LINE",
"1147 1290 OFFCURVE",
"959 1473 OFFCURVE",
"659 1473 CURVE SMOOTH",
"320 1473 OFFCURVE",
"124 1245 OFFCURVE",
"124 850 CURVE SMOOTH",
"124 593 LINE SMOOTH",
"124 198 OFFCURVE",
"320 -30 OFFCURVE",
"659 -30 CURVE SMOOTH",
"950 -30 OFFCURVE",
"1154 156 OFFCURVE",
"1154 427 CURVE SMOOTH",
"1154 734 LINE",
"643 734 LINE",
"643 583 LINE",
"976 583 LINE"
);
}
);
width = 1266;
}
);
note = Gbreve;
unicode = 011E;
},
{
glyphname = Gcaron;
layers = (
{
layerId = "2811F81C-6B8F-4884-92F2-C07A91FF888C";
paths = (
{
closed = 1;
nodes = (
"727 1610 LINE",
"1013 1919 LINE",
"833 1919 LINE",
"653 1719 LINE",
"640 1719 LINE",
"460 1919 LINE",
"280 1919 LINE",
"567 1610 LINE"
);
},
{
closed = 1;
nodes = (
"976 442 LINE SMOOTH",
"976 253 OFFCURVE",
"854 137 OFFCURVE",
"657 137 CURVE SMOOTH",
"424 137 OFFCURVE",
"302 294 OFFCURVE",
"302 593 CURVE SMOOTH",
"302 850 LINE SMOOTH",
"302 1149 OFFCURVE",
"423 1306 OFFCURVE",
"656 1306 CURVE SMOOTH",
"840 1306 OFFCURVE",
"968 1179 OFFCURVE",
"976 991 CURVE",
"1154 991 LINE",
"1147 1290 OFFCURVE",
"959 1473 OFFCURVE",
"659 1473 CURVE SMOOTH",
"320 1473 OFFCURVE",
"124 1245 OFFCURVE",
"124 850 CURVE SMOOTH",
"124 593 LINE SMOOTH",
"124 198 OFFCURVE",
"320 -30 OFFCURVE",
"659 -30 CURVE SMOOTH",
"950 -30 OFFCURVE",
"1154 156 OFFCURVE",
"1154 427 CURVE SMOOTH",
"1154 734 LINE",
"643 734 LINE",
"643 583 LINE",
"976 583 LINE"
);
}
);
width = 1266;
}
);
note = Gcaron;
unicode = 01E6;
},
{
glyphname = Gcircumflex;
layers = (
{
layerId = "2811F81C-6B8F-4884-92F2-C07A91FF888C";
paths = (
{
closed = 1;
nodes = (
"727 1921 LINE",
"567 1921 LINE",
"280 1612 LINE",
"460 1612 LINE",
"640 1812 LINE",
"653 1812 LINE",
"833 1612 LINE",
"1013 1612 LINE"
);
},
{
closed = 1;
nodes = (
"976 442 LINE SMOOTH",
"976 253 OFFCURVE",
"854 137 OFFCURVE",
"657 137 CURVE SMOOTH",
"424 137 OFFCURVE",
"302 294 OFFCURVE",
"302 593 CURVE SMOOTH",
"302 850 LINE SMOOTH",
"302 1149 OFFCURVE",
"423 1306 OFFCURVE",
"656 1306 CURVE SMOOTH",
"840 1306 OFFCURVE",
"968 1179 OFFCURVE",
"976 991 CURVE",
"1154 991 LINE",
"1147 1290 OFFCURVE",
"959 1473 OFFCURVE",
"659 1473 CURVE SMOOTH",
"320 1473 OFFCURVE",
"124 1245 OFFCURVE",
"124 850 CURVE SMOOTH",
"124 593 LINE SMOOTH",
"124 198 OFFCURVE",
"320 -30 OFFCURVE",
"659 -30 CURVE SMOOTH",
"950 -30 OFFCURVE",
"1154 156 OFFCURVE",
"1154 427 CURVE SMOOTH",
"1154 734 LINE",
"643 734 LINE",
"643 583 LINE",
"976 583 LINE"
);
}
);
width = 1266;
}
);
note = Gcircumflex;
unicode = 011C;
},
{
glyphname = Gcommaaccent;
layers = (
{
layerId = "2811F81C-6B8F-4884-92F2-C07A91FF888C";
paths = (
{
closed = 1;
nodes = (
"976 442 LINE SMOOTH",
"976 253 OFFCURVE",
"854 137 OFFCURVE",
"657 137 CURVE SMOOTH",
"424 137 OFFCURVE",
"302 294 OFFCURVE",
"302 593 CURVE SMOOTH",
"302 850 LINE SMOOTH",
"302 1149 OFFCURVE",
"423 1306 OFFCURVE",
"656 1306 CURVE SMOOTH",
"840 1306 OFFCURVE",
"968 1179 OFFCURVE",
"976 991 CURVE",
"1154 991 LINE",
"1147 1290 OFFCURVE",
"959 1473 OFFCURVE",
"659 1473 CURVE SMOOTH",
"320 1473 OFFCURVE",
"124 1245 OFFCURVE",
"124 850 CURVE SMOOTH",
"124 593 LINE SMOOTH",
"124 198 OFFCURVE",
"320 -30 OFFCURVE",
"659 -30 CURVE SMOOTH",
"950 -30 OFFCURVE",
"1154 156 OFFCURVE",
"1154 427 CURVE SMOOTH",
"1154 734 LINE",
"643 734 LINE",
"643 583 LINE",
"976 583 LINE"
);
},
{
closed = 1;
nodes = (
"623 -503 LINE",
"752 -142 LINE",
"576 -142 LINE",
"466 -503 LINE"
);
}
);
width = 1266;
}
);
note = Gcommaaccent;
unicode = 0122;
},
{
glyphname = Gdotaccent;
layers = (
{
layerId = "2811F81C-6B8F-4884-92F2-C07A91FF888C";
paths = (
{
closed = 1;
nodes = (
"715 1640 OFFCURVE",
"773 1699 OFFCURVE",
"773 1769 CURVE SMOOTH",
"773 1839 OFFCURVE",
"715 1897 OFFCURVE",
"647 1897 CURVE SMOOTH",
"579 1897 OFFCURVE",
"521 1839 OFFCURVE",
"521 1769 CURVE SMOOTH",
"521 1699 OFFCURVE",
"579 1640 OFFCURVE",
"647 1640 CURVE SMOOTH"
);
},
{
closed = 1;
nodes = (
"976 442 LINE SMOOTH",
"976 253 OFFCURVE",
"854 137 OFFCURVE",
"657 137 CURVE SMOOTH",
"424 137 OFFCURVE",
"302 294 OFFCURVE",
"302 593 CURVE SMOOTH",
"302 850 LINE SMOOTH",
"302 1149 OFFCURVE",
"423 1306 OFFCURVE",
"656 1306 CURVE SMOOTH",
"840 1306 OFFCURVE",
"968 1179 OFFCURVE",
"976 991 CURVE",
"1154 991 LINE",
"1147 1290 OFFCURVE",
"959 1473 OFFCURVE",
"659 1473 CURVE SMOOTH",
"320 1473 OFFCURVE",
"124 1245 OFFCURVE",
"124 850 CURVE SMOOTH",
"124 593 LINE SMOOTH",
"124 198 OFFCURVE",
"320 -30 OFFCURVE",
"659 -30 CURVE SMOOTH",
"950 -30 OFFCURVE",
"1154 156 OFFCURVE",
"1154 427 CURVE SMOOTH",
"1154 734 LINE",
"643 734 LINE",
"643 583 LINE",
"976 583 LINE"
);
}
);
width = 1266;
}
);
note = Gdotaccent;
unicode = 0120;
},
{
glyphname = Gmacron;
layers = (
{
layerId = "2811F81C-6B8F-4884-92F2-C07A91FF888C";
paths = (
{
closed = 1;
nodes = (
"977 1696 LINE",
"977 1835 LINE",
"317 1835 LINE",
"317 1696 LINE"
);
},
{
closed = 1;
nodes = (
"976 442 LINE SMOOTH",
"976 253 OFFCURVE",
"854 137 OFFCURVE",
"657 137 CURVE SMOOTH",
"424 137 OFFCURVE",
"302 294 OFFCURVE",
"302 593 CURVE SMOOTH",
"302 850 LINE SMOOTH",
"302 1149 OFFCURVE",
"423 1306 OFFCURVE",
"656 1306 CURVE SMOOTH",
"840 1306 OFFCURVE",
"968 1179 OFFCURVE",
"976 991 CURVE",
"1154 991 LINE",
"1147 1290 OFFCURVE",
"959 1473 OFFCURVE",
"659 1473 CURVE SMOOTH",
"320 1473 OFFCURVE",
"124 1245 OFFCURVE",
"124 850 CURVE SMOOTH",
"124 593 LINE SMOOTH",
"124 198 OFFCURVE",
"320 -30 OFFCURVE",
"659 -30 CURVE SMOOTH",
"950 -30 OFFCURVE",
"1154 156 OFFCURVE",
"1154 427 CURVE SMOOTH",
"1154 734 LINE",
"643 734 LINE",
"643 583 LINE",
"976 583 LINE"
);
}
);
width = 1266;
}
);
note = Gmacron;
unicode = 1E20;
},
{
glyphname = H;
layers = (
{
layerId = "2811F81C-6B8F-4884-92F2-C07A91FF888C";
paths = (
{
closed = 1;
nodes = (
"1113 0 LINE",
"1113 1443 LINE",
"938 1443 LINE",
"938 818 LINE",
"328 818 LINE",
"328 1443 LINE",
"153 1443 LINE",
"153 0 LINE",
"328 0 LINE",
"328 656 LINE",
"938 656 LINE",
"938 0 LINE"
);
}
);
width = 1266;
}
);
note = H;
unicode = 0048;
},
{
glyphname = Hbar;
layers = (
{
layerId = "2811F81C-6B8F-4884-92F2-C07A91FF888C";
paths = (
{
closed = 1;
nodes = (
"337 656 LINE",
"928 656 LINE",
"928 0 LINE",
"1105 0 LINE",
"1105 1084 LINE",
"1225 1084 LINE",
"1225 1222 LINE",
"1105 1222 LINE",
"1105 1443 LINE",
"928 1443 LINE",
"928 1222 LINE",
"337 1222 LINE",
"337 1443 LINE",
"160 1443 LINE",
"160 1222 LINE",
"41 1222 LINE",
"41 1084 LINE",
"160 1084 LINE",
"160 0 LINE",
"337 0 LINE"
);
},
{
closed = 1;
nodes = (
"335 816 LINE",
"335 1086 LINE",
"930 1086 LINE",
"930 816 LINE"
);
}
);
width = 1266;
}
);
note = Hbar;
unicode = 0126;
},
{
glyphname = Hbrevebelow;
layers = (
{
layerId = "2811F81C-6B8F-4884-92F2-C07A91FF888C";
paths = (
{
closed = 1;
nodes = (
"1113 0 LINE",
"1113 1443 LINE",
"938 1443 LINE",
"938 818 LINE",
"328 818 LINE",
"328 1443 LINE",
"153 1443 LINE",
"153 0 LINE",
"328 0 LINE",
"328 656 LINE",
"938 656 LINE",
"938 0 LINE"
);
},
{
closed = 1;
nodes = (
"502 -340 OFFCURVE",
"429 -255 OFFCURVE",
"429 -140 CURVE",
"277 -140 LINE",
"277 -332 OFFCURVE",
"412 -470 OFFCURVE",
"633 -470 CURVE SMOOTH",
"854 -470 OFFCURVE",
"989 -332 OFFCURVE",
"989 -140 CURVE",
"837 -140 LINE",
"838 -255 OFFCURVE",
"765 -340 OFFCURVE",
"633 -340 CURVE SMOOTH"
);
}
);
width = 1266;
}
);
note = Hbrevebelow;
unicode = 1E2A;
},
{
glyphname = Hcaron;
layers = (
{
layerId = "2811F81C-6B8F-4884-92F2-C07A91FF888C";
paths = (
{
closed = 1;
nodes = (
"713 1610 LINE",
"999 1919 LINE",
"820 1919 LINE",
"640 1719 LINE",
"626 1719 LINE",
"446 1919 LINE",
"267 1919 LINE",
"553 1610 LINE"
);
},
{
closed = 1;
nodes = (
"1113 0 LINE",
"1113 1443 LINE",
"938 1443 LINE",
"938 818 LINE",
"328 818 LINE",
"328 1443 LINE",
"153 1443 LINE",
"153 0 LINE",
"328 0 LINE",
"328 656 LINE",
"938 656 LINE",
"938 0 LINE"
);
}
);
width = 1266;
}
);
note = Hcaron;
unicode = 021E;
},
{
glyphname = Hcedilla;
layers = (
{
layerId = "2811F81C-6B8F-4884-92F2-C07A91FF888C";
paths = (
{
closed = 1;
nodes = (
"136 -236 LINE",
"193 -236 LINE SMOOTH",
"296 -236 OFFCURVE",
"337 -255 OFFCURVE",
"337 -301 CURVE SMOOTH",
"337 -348 OFFCURVE",
"297 -373 OFFCURVE",
"223 -373 CURVE SMOOTH",
"186 -373 OFFCURVE",
"127 -366 OFFCURVE",
"104 -359 CURVE",
"104 -469 LINE",
"150 -481 OFFCURVE",
"185 -486 OFFCURVE",
"235 -486 CURVE SMOOTH",
"380 -486 OFFCURVE",
"474 -413 OFFCURVE",
"474 -297 CURVE SMOOTH",
"474 -191 OFFCURVE",
"404 -133 OFFCURVE",
"276 -132 CURVE",
"328 0 LINE",
"328 656 LINE",
"938 656 LINE",
"938 0 LINE",
"1113 0 LINE",
"1113 1443 LINE",
"938 1443 LINE",
"938 818 LINE",
"328 818 LINE",
"328 1443 LINE",
"153 1443 LINE",
"153 0 LINE",
"197 0 LINE",
"136 -150 LINE"
);
}
);
width = 1266;
}
);
note = Hcedilla;
unicode = 1E28;
},
{
glyphname = Hcircumflex;
layers = (
{
layerId = "2811F81C-6B8F-4884-92F2-C07A91FF888C";
paths = (
{
closed = 1;
nodes = (
"713 1921 LINE",
"553 1921 LINE",
"267 1612 LINE",
"446 1612 LINE",
"626 1812 LINE",
"640 1812 LINE",
"820 1612 LINE",
"999 1612 LINE"
);
},
{
closed = 1;
nodes = (
"1113 0 LINE",
"1113 1443 LINE",
"938 1443 LINE",
"938 818 LINE",
"328 818 LINE",
"328 1443 LINE",
"153 1443 LINE",
"153 0 LINE",
"328 0 LINE",
"328 656 LINE",
"938 656 LINE",
"938 0 LINE"
);
}
);
width = 1266;
}
);
note = Hcircumflex;
unicode = 0124;
},
{
glyphname = Hdieresis;
layers = (
{
layerId = "2811F81C-6B8F-4884-92F2-C07A91FF888C";
paths = (
{
closed = 1;
nodes = (
"494 1651 OFFCURVE",
"548 1707 OFFCURVE",
"548 1772 CURVE SMOOTH",
"548 1838 OFFCURVE",
"494 1893 OFFCURVE",
"431 1893 CURVE SMOOTH",
"369 1893 OFFCURVE",
"314 1838 OFFCURVE",
"314 1772 CURVE SMOOTH",
"314 1707 OFFCURVE",
"369 1651 OFFCURVE",
"431 1651 CURVE SMOOTH"
);
},
{
closed = 1;
nodes = (
"897 1651 OFFCURVE",
"952 1707 OFFCURVE",
"952 1772 CURVE SMOOTH",
"952 1838 OFFCURVE",
"897 1893 OFFCURVE",
"835 1893 CURVE SMOOTH",
"772 1893 OFFCURVE",
"718 1838 OFFCURVE",
"718 1772 CURVE SMOOTH",
"718 1707 OFFCURVE",
"772 1651 OFFCURVE",
"835 1651 CURVE SMOOTH"
);
},
{
closed = 1;
nodes = (
"1113 0 LINE",
"1113 1443 LINE",
"938 1443 LINE",
"938 818 LINE",
"328 818 LINE",
"328 1443 LINE",
"153 1443 LINE",
"153 0 LINE",
"328 0 LINE",
"328 656 LINE",
"938 656 LINE",
"938 0 LINE"
);
}
);
width = 1266;
}
);
note = Hdieresis;
unicode = 1E26;
},
{
glyphname = Hdotaccent;
layers = (
{
layerId = "2811F81C-6B8F-4884-92F2-C07A91FF888C";
paths = (
{
closed = 1;
nodes = (
"701 1640 OFFCURVE",
"759 1699 OFFCURVE",
"759 1769 CURVE SMOOTH",
"759 1839 OFFCURVE",
"701 1897 OFFCURVE",
"633 1897 CURVE SMOOTH",
"565 1897 OFFCURVE",
"507 1839 OFFCURVE",
"507 1769 CURVE SMOOTH",
"507 1699 OFFCURVE",
"565 1640 OFFCURVE",
"633 1640 CURVE SMOOTH"
);
},
{
closed = 1;
nodes = (
"1113 0 LINE",
"1113 1443 LINE",
"938 1443 LINE",
"938 818 LINE",
"328 818 LINE",
"328 1443 LINE",
"153 1443 LINE",
"153 0 LINE",
"328 0 LINE",
"328 656 LINE",
"938 656 LINE",
"938 0 LINE"
);
}
);
width = 1266;
}
);
note = Hdotaccent;
unicode = 1E22;
},
{
glyphname = Hdotbelow;
layers = (
{
layerId = "2811F81C-6B8F-4884-92F2-C07A91FF888C";
paths = (
{
closed = 1;
nodes = (
"1113 0 LINE",
"1113 1443 LINE",
"938 1443 LINE",
"938 818 LINE",
"328 818 LINE",
"328 1443 LINE",
"153 1443 LINE",
"153 0 LINE",
"328 0 LINE",
"328 656 LINE",
"938 656 LINE",
"938 0 LINE"
);
},
{
closed = 1;
nodes = (
"701 -451 OFFCURVE",
"759 -393 OFFCURVE",
"759 -323 CURVE SMOOTH",
"759 -253 OFFCURVE",
"701 -194 OFFCURVE",
"633 -194 CURVE SMOOTH",
"565 -194 OFFCURVE",
"507 -253 OFFCURVE",
"507 -323 CURVE SMOOTH",
"507 -393 OFFCURVE",
"565 -451 OFFCURVE",
"633 -451 CURVE SMOOTH"
);
}
);
width = 1266;
}
);
note = Hdotbelow;
unicode = 1E24;
},
{
glyphname = I;
layers = (
{
layerId = "2811F81C-6B8F-4884-92F2-C07A91FF888C";
paths = (
{
closed = 1;
nodes = (
"1013 0 LINE",
"1013 157 LINE",
"721 157 LINE",
"721 1286 LINE",
"1013 1286 LINE",
"1013 1443 LINE",
"253 1443 LINE",
"253 1286 LINE",
"545 1286 LINE",
"545 157 LINE",
"253 157 LINE",
"253 0 LINE"
);
}
);
width = 1266;
}
);
note = I;
unicode = 0049;
},
{
glyphname = IJ;
layers = (
{
layerId = "2811F81C-6B8F-4884-92F2-C07A91FF888C";
paths = (
{
closed = 1;
nodes = (
"384 0 LINE",
"384 1443 LINE",
"213 1443 LINE",
"213 0 LINE"
);
},
{
closed = 1;
nodes = (
"1074 -32 OFFCURVE",
"1190 117 OFFCURVE",
"1190 391 CURVE SMOOTH",
"1190 1443 LINE",
"650 1443 LINE",
"650 1283 LINE",
"1023 1283 LINE",
"1023 402 LINE SMOOTH",
"1023 220 OFFCURVE",
"969 136 OFFCURVE",
"858 136 CURVE SMOOTH",
"756 136 OFFCURVE",
"694 215 OFFCURVE",
"689 359 CURVE",
"524 359 LINE",
"526 112 OFFCURVE",
"653 -32 OFFCURVE",
"861 -32 CURVE SMOOTH"
);
}
);
width = 1266;
}
);
note = IJ;
unicode = 0132;
},
{
glyphname = Iacute;
layers = (
{
layerId = "2811F81C-6B8F-4884-92F2-C07A91FF888C";
paths = (
{
closed = 1;
nodes = (
"517 1612 LINE",
"702 1612 LINE",
"1025 1916 LINE",
"818 1916 LINE"
);
},
{
closed = 1;
nodes = (
"1013 0 LINE",
"1013 157 LINE",
"721 157 LINE",
"721 1286 LINE",
"1013 1286 LINE",
"1013 1443 LINE",
"253 1443 LINE",
"253 1286 LINE",
"545 1286 LINE",
"545 157 LINE",
"253 157 LINE",
"253 0 LINE"
);
}
);
width = 1266;
}
);
note = Iacute;
unicode = 00CD;
},
{
glyphname = Ibreve;
layers = (
{
layerId = "2811F81C-6B8F-4884-92F2-C07A91FF888C";
paths = (
{
closed = 1;
nodes = (
"288 1918 LINE",
"288 1736 OFFCURVE",
"428 1609 OFFCURVE",
"633 1609 CURVE SMOOTH",
"838 1609 OFFCURVE",
"978 1736 OFFCURVE",
"978 1918 CURVE",
"840 1918 LINE",
"839 1807 OFFCURVE",
"754 1727 OFFCURVE",
"633 1727 CURVE SMOOTH",
"512 1727 OFFCURVE",
"427 1807 OFFCURVE",
"426 1918 CURVE"
);
},
{
closed = 1;
nodes = (
"1013 0 LINE",
"1013 157 LINE",
"721 157 LINE",
"721 1286 LINE",
"1013 1286 LINE",
"1013 1443 LINE",
"253 1443 LINE",
"253 1286 LINE",
"545 1286 LINE",
"545 157 LINE",
"253 157 LINE",
"253 0 LINE"
);
}
);
width = 1266;
}
);
note = Ibreve;
unicode = 012C;
},
{
glyphname = Icaron;
layers = (
{
layerId = "2811F81C-6B8F-4884-92F2-C07A91FF888C";
paths = (
{
closed = 1;
nodes = (
"713 1610 LINE",
"999 1919 LINE",
"820 1919 LINE",
"640 1719 LINE",
"626 1719 LINE",
"446 1919 LINE",
"267 1919 LINE",
"553 1610 LINE"
);
},
{
closed = 1;
nodes = (
"1013 0 LINE",
"1013 157 LINE",
"721 157 LINE",
"721 1286 LINE",
"1013 1286 LINE",
"1013 1443 LINE",
"253 1443 LINE",
"253 1286 LINE",
"545 1286 LINE",
"545 157 LINE",
"253 157 LINE",
"253 0 LINE"
);
}
);
width = 1266;
}
);
note = Icaron;
unicode = 01CF;
},
{
glyphname = Icircumflex;
layers = (
{
layerId = "2811F81C-6B8F-4884-92F2-C07A91FF888C";
paths = (
{
closed = 1;
nodes = (
"713 1921 LINE",
"553 1921 LINE",
"267 1612 LINE",
"446 1612 LINE",
"626 1812 LINE",
"640 1812 LINE",
"820 1612 LINE",
"999 1612 LINE"
);
},
{
closed = 1;
nodes = (
"1013 0 LINE",
"1013 157 LINE",
"721 157 LINE",
"721 1286 LINE",
"1013 1286 LINE",
"1013 1443 LINE",
"253 1443 LINE",
"253 1286 LINE",
"545 1286 LINE",
"545 157 LINE",
"253 157 LINE",
"253 0 LINE"
);
}
);
width = 1266;
}
);
note = Icircumflex;
unicode = 00CE;
},
{
glyphname = Idblgrave;
layers = (
{
layerId = "2811F81C-6B8F-4884-92F2-C07A91FF888C";
paths = (
{
closed = 1;
nodes = (
"567 1612 LINE",
"273 1916 LINE",
"78 1916 LINE",
"391 1612 LINE"
);
},
{
closed = 1;
nodes = (
"946 1612 LINE",
"652 1916 LINE",
"457 1916 LINE",
"769 1612 LINE"
);
},
{
closed = 1;
nodes = (
"1013 0 LINE",
"1013 157 LINE",
"721 157 LINE",
"721 1286 LINE",
"1013 1286 LINE",
"1013 1443 LINE",
"253 1443 LINE",
"253 1286 LINE",
"545 1286 LINE",
"545 157 LINE",
"253 157 LINE",
"253 0 LINE"
);
}
);
width = 1266;
}
);
note = Idblgrave;
unicode = 0208;
},
{
glyphname = Idieresis;
layers = (
{
layerId = "2811F81C-6B8F-4884-92F2-C07A91FF888C";
paths = (
{
closed = 1;
nodes = (
"494 1651 OFFCURVE",
"548 1707 OFFCURVE",
"548 1772 CURVE SMOOTH",
"548 1838 OFFCURVE",
"494 1893 OFFCURVE",
"431 1893 CURVE SMOOTH",
"369 1893 OFFCURVE",
"314 1838 OFFCURVE",
"314 1772 CURVE SMOOTH",
"314 1707 OFFCURVE",
"369 1651 OFFCURVE",
"431 1651 CURVE SMOOTH"
);
},
{
closed = 1;
nodes = (
"897 1651 OFFCURVE",
"952 1707 OFFCURVE",
"952 1772 CURVE SMOOTH",
"952 1838 OFFCURVE",
"897 1893 OFFCURVE",
"835 1893 CURVE SMOOTH",
"772 1893 OFFCURVE",
"718 1838 OFFCURVE",
"718 1772 CURVE SMOOTH",
"718 1707 OFFCURVE",
"772 1651 OFFCURVE",
"835 1651 CURVE SMOOTH"
);
},
{
closed = 1;
nodes = (
"1013 0 LINE",
"1013 157 LINE",
"721 157 LINE",
"721 1286 LINE",
"1013 1286 LINE",
"1013 1443 LINE",
"253 1443 LINE",
"253 1286 LINE",
"545 1286 LINE",
"545 157 LINE",
"253 157 LINE",
"253 0 LINE"
);
}
);
width = 1266;
}
);
note = Idieresis;
unicode = 00CF;
},
{
glyphname = Idieresisacute;
layers = (
{
layerId = "2811F81C-6B8F-4884-92F2-C07A91FF888C";
paths = (
{
closed = 1;
nodes = (
"508 1859 LINE",
"678 1859 LINE",
"911 2083 LINE",
"716 2083 LINE"
);
},
{
closed = 1;
nodes = (
"499 1566 OFFCURVE",
"546 1615 OFFCURVE",
"546 1676 CURVE SMOOTH",
"546 1738 OFFCURVE",
"499 1787 OFFCURVE",
"439 1787 CURVE SMOOTH",
"380 1787 OFFCURVE",
"333 1738 OFFCURVE",
"333 1676 CURVE SMOOTH",
"333 1615 OFFCURVE",
"380 1566 OFFCURVE",
"439 1566 CURVE SMOOTH"
);
},
{
closed = 1;
nodes = (
"887 1566 OFFCURVE",
"935 1615 OFFCURVE",
"935 1676 CURVE SMOOTH",
"935 1738 OFFCURVE",
"887 1787 OFFCURVE",
"828 1787 CURVE SMOOTH",
"769 1787 OFFCURVE",
"722 1738 OFFCURVE",
"722 1676 CURVE SMOOTH",
"722 1615 OFFCURVE",
"769 1566 OFFCURVE",
"828 1566 CURVE SMOOTH"
);
},
{
closed = 1;
nodes = (
"1013 0 LINE",
"1013 157 LINE",
"721 157 LINE",
"721 1286 LINE",
"1013 1286 LINE",
"1013 1443 LINE",
"253 1443 LINE",
"253 1286 LINE",
"545 1286 LINE",
"545 157 LINE",
"253 157 LINE",
"253 0 LINE"
);
}
);
width = 1266;
}
);
note = Idieresisacute;
unicode = 1E2E;
},
{
glyphname = Idotaccent;
layers = (
{
layerId = "2811F81C-6B8F-4884-92F2-C07A91FF888C";
paths = (
{
closed = 1;
nodes = (
"701 1640 OFFCURVE",
"759 1699 OFFCURVE",
"759 1769 CURVE SMOOTH",
"759 1839 OFFCURVE",
"701 1897 OFFCURVE",
"633 1897 CURVE SMOOTH",
"565 1897 OFFCURVE",
"507 1839 OFFCURVE",
"507 1769 CURVE SMOOTH",
"507 1699 OFFCURVE",
"565 1640 OFFCURVE",
"633 1640 CURVE SMOOTH"
);
},
{
closed = 1;
nodes = (
"1013 0 LINE",
"1013 157 LINE",
"721 157 LINE",
"721 1286 LINE",
"1013 1286 LINE",
"1013 1443 LINE",
"253 1443 LINE",
"253 1286 LINE",
"545 1286 LINE",
"545 157 LINE",
"253 157 LINE",
"253 0 LINE"
);
}
);
width = 1266;
}
);
note = Idotaccent;
unicode = 0130;
},
{
glyphname = Idotbelow;
layers = (
{
layerId = "2811F81C-6B8F-4884-92F2-C07A91FF888C";
paths = (
{
closed = 1;
nodes = (
"1013 0 LINE",
"1013 157 LINE",
"721 157 LINE",
"721 1286 LINE",
"1013 1286 LINE",
"1013 1443 LINE",
"253 1443 LINE",
"253 1286 LINE",
"545 1286 LINE",
"545 157 LINE",
"253 157 LINE",
"253 0 LINE"
);
},
{
closed = 1;
nodes = (
"700 -451 OFFCURVE",
"758 -393 OFFCURVE",
"758 -323 CURVE SMOOTH",
"758 -253 OFFCURVE",
"700 -194 OFFCURVE",
"632 -194 CURVE SMOOTH",
"564 -194 OFFCURVE",
"506 -253 OFFCURVE",
"506 -323 CURVE SMOOTH",
"506 -393 OFFCURVE",
"564 -451 OFFCURVE",
"632 -451 CURVE SMOOTH"
);
}
);
width = 1266;
}
);
note = Idotbelow;
unicode = 1ECA;
},
{
glyphname = Igrave;
layers = (
{
layerId = "2811F81C-6B8F-4884-92F2-C07A91FF888C";
paths = (
{
closed = 1;
nodes = (
"747 1612 LINE",
"446 1916 LINE",
"239 1916 LINE",
"561 1612 LINE"
);
},
{
closed = 1;
nodes = (
"1013 0 LINE",
"1013 157 LINE",
"721 157 LINE",
"721 1286 LINE",
"1013 1286 LINE",
"1013 1443 LINE",
"253 1443 LINE",
"253 1286 LINE",
"545 1286 LINE",
"545 157 LINE",
"253 157 LINE",
"253 0 LINE"
);
}
);
width = 1266;
}
);
note = Igrave;
unicode = 00CC;
},
{
glyphname = Ihookabove;
layers = (
{
layerId = "2811F81C-6B8F-4884-92F2-C07A91FF888C";
paths = (
{
closed = 1;
nodes = (
"460 1816 LINE",
"485 1829 OFFCURVE",
"527 1838 OFFCURVE",
"570 1838 CURVE SMOOTH",
"633 1838 OFFCURVE",
"673 1807 OFFCURVE",
"673 1763 CURVE SMOOTH",
"673 1720 OFFCURVE",
"632 1678 OFFCURVE",
"572 1657 CURVE",
"639 1571 LINE",
"738 1609 OFFCURVE",
"802 1688 OFFCURVE",
"802 1777 CURVE SMOOTH",
"802 1886 OFFCURVE",
"719 1954 OFFCURVE",
"593 1954 CURVE SMOOTH",
"544 1954 OFFCURVE",
"491 1943 OFFCURVE",
"460 1929 CURVE"
);
},
{
closed = 1;
nodes = (
"1013 0 LINE",
"1013 157 LINE",
"721 157 LINE",
"721 1286 LINE",
"1013 1286 LINE",
"1013 1443 LINE",
"253 1443 LINE",
"253 1286 LINE",
"545 1286 LINE",
"545 157 LINE",
"253 157 LINE",
"253 0 LINE"
);
}
);
width = 1266;
}
);
note = Ihookabove;
unicode = 1EC8;
},
{
glyphname = Iinvertedbreve;
layers = (
{
layerId = "2811F81C-6B8F-4884-92F2-C07A91FF888C";
paths = (
{
closed = 1;
nodes = (
"426 1609 LINE",
"427 1720 OFFCURVE",
"512 1799 OFFCURVE",
"633 1799 CURVE SMOOTH",
"754 1799 OFFCURVE",
"839 1720 OFFCURVE",
"840 1609 CURVE",
"978 1609 LINE",
"978 1791 OFFCURVE",
"838 1918 OFFCURVE",
"633 1918 CURVE SMOOTH",
"428 1918 OFFCURVE",
"288 1791 OFFCURVE",
"288 1609 CURVE"
);
},
{
closed = 1;
nodes = (
"1013 0 LINE",
"1013 157 LINE",
"721 157 LINE",
"721 1286 LINE",
"1013 1286 LINE",
"1013 1443 LINE",
"253 1443 LINE",
"253 1286 LINE",
"545 1286 LINE",
"545 157 LINE",
"253 157 LINE",
"253 0 LINE"
);
}
);
width = 1266;
}
);
note = Iinvertedbreve;
unicode = 020A;
},
{
glyphname = Imacron;
layers = (
{
layerId = "2811F81C-6B8F-4884-92F2-C07A91FF888C";
paths = (
{
closed = 1;
nodes = (
"963 1696 LINE",
"963 1835 LINE",
"303 1835 LINE",
"303 1696 LINE"
);
},
{
closed = 1;
nodes = (
"1013 0 LINE",
"1013 157 LINE",
"721 157 LINE",
"721 1286 LINE",
"1013 1286 LINE",
"1013 1443 LINE",
"253 1443 LINE",
"253 1286 LINE",
"545 1286 LINE",
"545 157 LINE",
"253 157 LINE",
"253 0 LINE"
);
}
);
width = 1266;
}
);
note = Imacron;
unicode = 012A;
},
{
glyphname = Iogonek;
layers = (
{
layerId = "2811F81C-6B8F-4884-92F2-C07A91FF888C";
paths = (
{
closed = 1;
nodes = (
"1013 0 LINE",
"1013 157 LINE",
"721 157 LINE",
"721 1286 LINE",
"1013 1286 LINE",
"1013 1443 LINE",
"253 1443 LINE",
"253 1286 LINE",
"545 1286 LINE",
"545 157 LINE",
"253 157 LINE",
"253 0 LINE",
"851 0 LINE",
"752 -58 OFFCURVE",
"697 -145 OFFCURVE",
"697 -242 CURVE SMOOTH",
"697 -354 OFFCURVE",
"782 -430 OFFCURVE",
"906 -430 CURVE SMOOTH",
"944 -430 OFFCURVE",
"983 -424 OFFCURVE",
"1013 -413 CURVE",
"1013 -290 LINE",
"998 -295 OFFCURVE",
"973 -298 OFFCURVE",
"952 -298 CURVE SMOOTH",
"887 -298 OFFCURVE",
"845 -260 OFFCURVE",
"845 -202 CURVE SMOOTH",
"845 -129 OFFCURVE",
"898 -64 OFFCURVE",
"1009 -2 CURVE"
);
}
);
width = 1266;
}
);
note = Iogonek;
unicode = 012E;
},
{
glyphname = Itilde;
layers = (
{
layerId = "2811F81C-6B8F-4884-92F2-C07A91FF888C";
paths = (
{
closed = 1;
nodes = (
"908 1620 OFFCURVE",
"995 1724 OFFCURVE",
"995 1888 CURVE",
"872 1888 LINE",
"868 1793 OFFCURVE",
"831 1743 OFFCURVE",
"773 1743 CURVE SMOOTH",
"681 1743 OFFCURVE",
"648 1900 OFFCURVE",
"485 1900 CURVE SMOOTH",
"356 1900 OFFCURVE",
"271 1798 OFFCURVE",
"271 1630 CURVE",
"395 1630 LINE",
"398 1728 OFFCURVE",
"433 1776 OFFCURVE",
"493 1776 CURVE SMOOTH",
"597 1776 OFFCURVE",
"625 1620 OFFCURVE",
"781 1620 CURVE SMOOTH"
);
},
{
closed = 1;
nodes = (
"1013 0 LINE",
"1013 157 LINE",
"721 157 LINE",
"721 1286 LINE",
"1013 1286 LINE",
"1013 1443 LINE",
"253 1443 LINE",
"253 1286 LINE",
"545 1286 LINE",
"545 157 LINE",
"253 157 LINE",
"253 0 LINE"
);
}
);
width = 1266;
}
);
note = Itilde;
unicode = 0128;
},
{
glyphname = Itildebelow;
layers = (
{
layerId = "2811F81C-6B8F-4884-92F2-C07A91FF888C";
paths = (
{
closed = 1;
nodes = (
"1013 0 LINE",
"1013 157 LINE",
"721 157 LINE",
"721 1286 LINE",
"1013 1286 LINE",
"1013 1443 LINE",
"253 1443 LINE",
"253 1286 LINE",
"545 1286 LINE",
"545 157 LINE",
"253 157 LINE",
"253 0 LINE"
);
},
{
closed = 1;
nodes = (
"576 -310 OFFCURVE",
"618 -467 OFFCURVE",
"774 -467 CURVE SMOOTH",
"915 -467 OFFCURVE",
"1001 -356 OFFCURVE",
"1001 -175 CURVE",
"861 -175 LINE",
"861 -283 OFFCURVE",
"835 -330 OFFCURVE",
"775 -330 CURVE SMOOTH",
"689 -330 OFFCURVE",
"646 -174 OFFCURVE",
"490 -174 CURVE SMOOTH",
"349 -174 OFFCURVE",
"263 -284 OFFCURVE",
"263 -467 CURVE",
"403 -467 LINE",
"403 -357 OFFCURVE",
"429 -310 OFFCURVE",
"490 -310 CURVE SMOOTH"
);
}
);
width = 1266;
}
);
note = Itildebelow;
unicode = 1E2C;
},
{
glyphname = J;
layers = (
{
layerId = "2811F81C-6B8F-4884-92F2-C07A91FF888C";
paths = (
{
closed = 1;
nodes = (
"858 -30 OFFCURVE",
"1021 136 OFFCURVE",
"1021 411 CURVE SMOOTH",
"1021 1443 LINE",
"348 1443 LINE",
"348 1286 LINE",
"844 1286 LINE",
"844 416 LINE SMOOTH",
"844 238 OFFCURVE",
"752 138 OFFCURVE",
"589 138 CURVE SMOOTH",
"446 138 OFFCURVE",
"345 228 OFFCURVE",
"340 361 CURVE",
"167 361 LINE",
"168 128 OFFCURVE",
"340 -30 OFFCURVE",
"591 -30 CURVE SMOOTH"
);
}
);
width = 1266;
}
);
note = J;
unicode = 004A;
},
{
glyphname = Jcircumflex;
layers = (
{
layerId = "2811F81C-6B8F-4884-92F2-C07A91FF888C";
paths = (
{
closed = 1;
nodes = (
"762 1921 LINE",
"602 1921 LINE",
"315 1612 LINE",
"495 1612 LINE",
"675 1812 LINE",
"688 1812 LINE",
"868 1612 LINE",
"1048 1612 LINE"
);
},
{
closed = 1;
nodes = (
"858 -30 OFFCURVE",
"1021 136 OFFCURVE",
"1021 411 CURVE SMOOTH",
"1021 1443 LINE",
"348 1443 LINE",
"348 1286 LINE",
"844 1286 LINE",
"844 416 LINE SMOOTH",
"844 238 OFFCURVE",
"752 138 OFFCURVE",
"589 138 CURVE SMOOTH",
"446 138 OFFCURVE",
"345 228 OFFCURVE",
"340 361 CURVE",
"167 361 LINE",
"168 128 OFFCURVE",
"340 -30 OFFCURVE",
"591 -30 CURVE SMOOTH"
);
}
);
width = 1266;
}
);
note = Jcircumflex;
unicode = 0134;
},
{
glyphname = K;
layers = (
{
layerId = "2811F81C-6B8F-4884-92F2-C07A91FF888C";
paths = (
{
closed = 1;
nodes = (
"389 0 LINE",
"389 491 LINE",
"539 669 LINE",
"1025 0 LINE",
"1244 0 LINE",
"658 805 LINE",
"1192 1443 LINE",
"986 1443 LINE",
"402 725 LINE",
"389 725 LINE",
"389 1443 LINE",
"216 1443 LINE",
"216 0 LINE"
);
}
);
width = 1266;
}
);
note = K;
unicode = 004B;
},
{
glyphname = Kacute;
layers = (
{
layerId = "2811F81C-6B8F-4884-92F2-C07A91FF888C";
paths = (
{
closed = 1;
nodes = (
"547 1612 LINE",
"733 1612 LINE",
"1055 1916 LINE",
"848 1916 LINE"
);
},
{
closed = 1;
nodes = (
"389 0 LINE",
"389 491 LINE",
"539 669 LINE",
"1025 0 LINE",
"1244 0 LINE",
"658 805 LINE",
"1192 1443 LINE",
"986 1443 LINE",
"402 725 LINE",
"389 725 LINE",
"389 1443 LINE",
"216 1443 LINE",
"216 0 LINE"
);
}
);
width = 1266;
}
);
note = Kacute;
unicode = 1E30;
},
{
glyphname = Kcaron;
layers = (
{
layerId = "2811F81C-6B8F-4884-92F2-C07A91FF888C";
paths = (
{
closed = 1;
nodes = (
"743 1610 LINE",
"1030 1919 LINE",
"850 1919 LINE",
"670 1719 LINE",
"657 1719 LINE",
"477 1919 LINE",
"297 1919 LINE",
"583 1610 LINE"
);
},
{
closed = 1;
nodes = (
"389 0 LINE",
"389 491 LINE",
"539 669 LINE",
"1025 0 LINE",
"1244 0 LINE",
"658 805 LINE",
"1192 1443 LINE",
"986 1443 LINE",
"402 725 LINE",
"389 725 LINE",
"389 1443 LINE",
"216 1443 LINE",
"216 0 LINE"
);
}
);
width = 1266;
}
);
note = Kcaron;
unicode = 01E8;
},
{
glyphname = Kcommaaccent;
layers = (
{
layerId = "2811F81C-6B8F-4884-92F2-C07A91FF888C";
paths = (
{
closed = 1;
nodes = (
"389 0 LINE",
"389 491 LINE",
"539 669 LINE",
"1025 0 LINE",
"1244 0 LINE",
"658 805 LINE",
"1192 1443 LINE",
"986 1443 LINE",
"402 725 LINE",
"389 725 LINE",
"389 1443 LINE",
"216 1443 LINE",
"216 0 LINE"
);
},
{
closed = 1;
nodes = (
"646 -503 LINE",
"775 -142 LINE",
"599 -142 LINE",
"489 -503 LINE"
);
}
);
width = 1266;
}
);
note = Kcommaaccent;
unicode = 0136;
},
{
glyphname = Kdotbelow;
layers = (
{
layerId = "2811F81C-6B8F-4884-92F2-C07A91FF888C";
paths = (
{
closed = 1;
nodes = (
"389 0 LINE",
"389 491 LINE",
"539 669 LINE",
"1025 0 LINE",
"1244 0 LINE",
"658 805 LINE",
"1192 1443 LINE",
"986 1443 LINE",
"402 725 LINE",
"389 725 LINE",
"389 1443 LINE",
"216 1443 LINE",
"216 0 LINE"
);
},
{
closed = 1;
nodes = (
"752 -451 OFFCURVE",
"810 -393 OFFCURVE",
"810 -323 CURVE SMOOTH",
"810 -253 OFFCURVE",
"752 -194 OFFCURVE",
"684 -194 CURVE SMOOTH",
"616 -194 OFFCURVE",
"558 -253 OFFCURVE",
"558 -323 CURVE SMOOTH",
"558 -393 OFFCURVE",
"616 -451 OFFCURVE",
"684 -451 CURVE SMOOTH"
);
}
);
width = 1266;
}
);
note = Kdotbelow;
unicode = 1E32;
},
{
glyphname = Klinebelow;
layers = (
{
layerId = "2811F81C-6B8F-4884-92F2-C07A91FF888C";
paths = (
{
closed = 1;
nodes = (
"389 0 LINE",
"389 491 LINE",
"539 669 LINE",
"1025 0 LINE",
"1244 0 LINE",
"658 805 LINE",
"1192 1443 LINE",
"986 1443 LINE",
"402 725 LINE",
"389 725 LINE",
"389 1443 LINE",
"216 1443 LINE",
"216 0 LINE"
);
},
{
closed = 1;
nodes = (
"1014 -395 LINE",
"1014 -256 LINE",
"354 -256 LINE",
"354 -395 LINE"
);
}
);
width = 1266;
}
);
note = Klinebelow;
unicode = 1E34;
},
{
glyphname = L;
layers = (
{
layerId = "2811F81C-6B8F-4884-92F2-C07A91FF888C";
paths = (
{
closed = 1;
nodes = (
"1122 164 LINE",
"438 164 LINE",
"438 1443 LINE",
"263 1443 LINE",
"263 0 LINE",
"1122 0 LINE"
);
}
);
width = 1266;
}
);
note = L;
unicode = 004C;
},
{
glyphname = LJ;
layers = (
{
layerId = "2811F81C-6B8F-4884-92F2-C07A91FF888C";
paths = (
{
closed = 1;
nodes = (
"569 154 LINE",
"241 154 LINE",
"241 1443 LINE",
"75 1443 LINE",
"75 0 LINE",
"569 0 LINE"
);
},
{
closed = 1;
nodes = (
"1086 -30 OFFCURVE",
"1188 108 OFFCURVE",
"1188 381 CURVE SMOOTH",
"1188 1443 LINE",
"697 1443 LINE",
"697 1289 LINE",
"1030 1289 LINE",
"1030 395 LINE SMOOTH",
"1030 199 OFFCURVE",
"988 128 OFFCURVE",
"886 128 CURVE SMOOTH",
"792 128 OFFCURVE",
"741 202 OFFCURVE",
"737 343 CURVE",
"578 343 LINE",
"579 104 OFFCURVE",
"691 -30 OFFCURVE",
"885 -30 CURVE SMOOTH"
);
}
);
width = 1266;
}
);
note = uni01C7;
unicode = 01C7;
},
{
glyphname = Lacute;
layers = (
{
layerId = "2811F81C-6B8F-4884-92F2-C07A91FF888C";
paths = (
{
closed = 1;
nodes = (
"235 1612 LINE",
"421 1612 LINE",
"743 1916 LINE",
"536 1916 LINE"
);
},
{
closed = 1;
nodes = (
"1122 164 LINE",
"438 164 LINE",
"438 1443 LINE",
"263 1443 LINE",
"263 0 LINE",
"1122 0 LINE"
);
}
);
width = 1266;
}
);
note = Lacute;
unicode = 0139;
},
{
glyphname = Lcaron;
layers = (
{
layerId = "2811F81C-6B8F-4884-92F2-C07A91FF888C";
paths = (
{
closed = 1;
nodes = (
"780 1443 LINE",
"780 962 LINE",
"899 962 LINE",
"937 1443 LINE"
);
},
{
closed = 1;
nodes = (
"1122 164 LINE",
"438 164 LINE",
"438 1443 LINE",
"263 1443 LINE",
"263 0 LINE",
"1122 0 LINE"
);
}
);
width = 1266;
}
);
note = Lcaron;
unicode = 013D;
},
{
glyphname = Lcircumflexbelow;
layers = (
{
layerId = "2811F81C-6B8F-4884-92F2-C07A91FF888C";
paths = (
{
closed = 1;
nodes = (
"1122 164 LINE",
"438 164 LINE",
"438 1443 LINE",
"263 1443 LINE",
"263 0 LINE",
"1122 0 LINE"
);
},
{
closed = 1;
nodes = (
"591 -166 LINE",
"318 -508 LINE",
"512 -508 LINE",
"684 -281 LINE",
"699 -281 LINE",
"871 -508 LINE",
"1066 -508 LINE",
"792 -166 LINE"
);
}
);
width = 1266;
}
);
note = Lcircumflexbelow;
unicode = 1E3C;
},
{
glyphname = Lcommaaccent;
layers = (
{
layerId = "2811F81C-6B8F-4884-92F2-C07A91FF888C";
paths = (
{
closed = 1;
nodes = (
"1122 164 LINE",
"438 164 LINE",
"438 1443 LINE",
"263 1443 LINE",
"263 0 LINE",
"1122 0 LINE"
);
},
{
closed = 1;
nodes = (
"662 -503 LINE",
"791 -142 LINE",
"615 -142 LINE",
"505 -503 LINE"
);
}
);
width = 1266;
}
);
note = Lcommaaccent;
unicode = 013B;
},
{
glyphname = Ldot;
layers = (
{
layerId = "2811F81C-6B8F-4884-92F2-C07A91FF888C";
paths = (
{
closed = 1;
nodes = (
"1122 164 LINE",
"438 164 LINE",
"438 1443 LINE",
"263 1443 LINE",
"263 0 LINE",
"1122 0 LINE"
);
},
{
closed = 1;
nodes = (
"1038 862 OFFCURVE",
"1096 921 OFFCURVE",
"1096 990 CURVE SMOOTH",
"1096 1060 OFFCURVE",
"1038 1119 OFFCURVE",
"970 1119 CURVE SMOOTH",
"902 1119 OFFCURVE",
"844 1060 OFFCURVE",
"844 990 CURVE SMOOTH",
"844 921 OFFCURVE",
"902 862 OFFCURVE",
"970 862 CURVE SMOOTH"
);
}
);
width = 1266;
}
);
note = Ldot;
unicode = 013F;
},
{
glyphname = Ldotbelow;
layers = (
{
layerId = "2811F81C-6B8F-4884-92F2-C07A91FF888C";
paths = (
{
closed = 1;
nodes = (
"1122 164 LINE",
"438 164 LINE",
"438 1443 LINE",
"263 1443 LINE",
"263 0 LINE",
"1122 0 LINE"
);
},
{
closed = 1;
nodes = (
"760 -451 OFFCURVE",
"818 -393 OFFCURVE",
"818 -323 CURVE SMOOTH",
"818 -253 OFFCURVE",
"760 -194 OFFCURVE",
"692 -194 CURVE SMOOTH",
"624 -194 OFFCURVE",
"566 -253 OFFCURVE",
"566 -323 CURVE SMOOTH",
"566 -393 OFFCURVE",
"624 -451 OFFCURVE",
"692 -451 CURVE SMOOTH"
);
}
);
width = 1266;
}
);
note = Ldotbelow;
unicode = 1E36;
},
{
glyphname = Ldotbelowmacron;
layers = (
{
layerId = "2811F81C-6B8F-4884-92F2-C07A91FF888C";
paths = (
{
closed = 1;
nodes = (
"681 1696 LINE",
"681 1835 LINE",
"21 1835 LINE",
"21 1696 LINE"
);
},
{
closed = 1;
nodes = (
"1122 164 LINE",
"438 164 LINE",
"438 1443 LINE",
"263 1443 LINE",
"263 0 LINE",
"1122 0 LINE"
);
},
{
closed = 1;
nodes = (
"760 -451 OFFCURVE",
"818 -393 OFFCURVE",
"818 -323 CURVE SMOOTH",
"818 -253 OFFCURVE",
"760 -194 OFFCURVE",
"692 -194 CURVE SMOOTH",
"624 -194 OFFCURVE",
"566 -253 OFFCURVE",
"566 -323 CURVE SMOOTH",
"566 -393 OFFCURVE",
"624 -451 OFFCURVE",
"692 -451 CURVE SMOOTH"
);
}
);
width = 1266;
}
);
note = Ldotbelowmacron;
unicode = 1E38;
},
{
glyphname = Lj;
layers = (
{
layerId = "2811F81C-6B8F-4884-92F2-C07A91FF888C";
paths = (
{
closed = 1;
nodes = (
"1061 1351 OFFCURVE",
"1122 1411 OFFCURVE",
"1122 1491 CURVE SMOOTH",
"1122 1570 OFFCURVE",
"1061 1630 OFFCURVE",
"981 1630 CURVE SMOOTH",
"901 1630 OFFCURVE",
"840 1570 OFFCURVE",
"840 1491 CURVE SMOOTH",
"840 1411 OFFCURVE",
"901 1351 OFFCURVE",
"981 1351 CURVE SMOOTH"
);
},
{
closed = 1;
nodes = (
"672 154 LINE",
"351 154 LINE",
"351 1443 LINE",
"189 1443 LINE",
"189 0 LINE",
"672 0 LINE"
);
},
{
closed = 1;
nodes = (
"1077 1085 LINE",
"912 1085 LINE",
"912 24 LINE SMOOTH",
"912 -130 OFFCURVE",
"851 -179 OFFCURVE",
"649 -179 CURVE SMOOTH",
"576 -179 OFFCURVE",
"439 -176 OFFCURVE",
"392 -171 CURVE",
"392 -321 LINE",
"457 -327 OFFCURVE",
"570 -329 OFFCURVE",
"652 -329 CURVE SMOOTH",
"954 -329 OFFCURVE",
"1077 -234 OFFCURVE",
"1077 6 CURVE SMOOTH"
);
}
);
width = 1266;
}
);
note = uni01C8;
unicode = 01C8;
},
{
glyphname = Llinebelow;
layers = (
{
layerId = "2811F81C-6B8F-4884-92F2-C07A91FF888C";
paths = (
{
closed = 1;
nodes = (
"1122 164 LINE",
"438 164 LINE",
"438 1443 LINE",
"263 1443 LINE",
"263 0 LINE",
"1122 0 LINE"
);
},
{
closed = 1;
nodes = (
"1022 -395 LINE",
"1022 -256 LINE",
"362 -256 LINE",
"362 -395 LINE"
);
}
);
width = 1266;
}
);
note = Llinebelow;
unicode = 1E3A;
},
{
glyphname = Lslash;
layers = (
{
layerId = "2811F81C-6B8F-4884-92F2-C07A91FF888C";
paths = (
{
closed = 1;
nodes = (
"1122 164 LINE",
"438 164 LINE",
"438 672 LINE",
"936 954 LINE",
"936 1116 LINE",
"438 830 LINE",
"438 1443 LINE",
"263 1443 LINE",
"263 729 LINE",
"86 627 LINE",
"86 473 LINE",
"263 573 LINE",
"263 0 LINE",
"1122 0 LINE"
);
}
);
width = 1266;
}
);
note = Lslash;
unicode = 0141;
},
{
glyphname = M;
layers = (
{
layerId = "2811F81C-6B8F-4884-92F2-C07A91FF888C";
paths = (
{
closed = 1;
nodes = (
"270 554 LINE",
"261 1138 LINE",
"274 1138 LINE",
"564 339 LINE",
"702 339 LINE",
"992 1138 LINE",
"1005 1138 LINE",
"996 554 LINE",
"996 0 LINE",
"1153 0 LINE",
"1153 1443 LINE",
"955 1443 LINE",
"640 547 LINE",
"627 547 LINE",
"310 1443 LINE",
"113 1443 LINE",
"113 0 LINE",
"270 0 LINE"
);
}
);
width = 1266;
}
);
note = M;
unicode = 004D;
},
{
glyphname = Macute;
layers = (
{
layerId = "2811F81C-6B8F-4884-92F2-C07A91FF888C";
paths = (
{
closed = 1;
nodes = (
"517 1612 LINE",
"702 1612 LINE",
"1024 1916 LINE",
"817 1916 LINE"
);
},
{
closed = 1;
nodes = (
"270 554 LINE",
"261 1138 LINE",
"274 1138 LINE",
"564 339 LINE",
"702 339 LINE",
"992 1138 LINE",
"1005 1138 LINE",
"996 554 LINE",
"996 0 LINE",
"1153 0 LINE",
"1153 1443 LINE",
"955 1443 LINE",
"640 547 LINE",
"627 547 LINE",
"310 1443 LINE",
"113 1443 LINE",
"113 0 LINE",
"270 0 LINE"
);
}
);
width = 1266;
}
);
note = Macute;
unicode = 1E3E;
},
{
glyphname = Mdotaccent;
layers = (
{
layerId = "2811F81C-6B8F-4884-92F2-C07A91FF888C";
paths = (
{
closed = 1;
nodes = (
"701 1640 OFFCURVE",
"759 1699 OFFCURVE",
"759 1769 CURVE SMOOTH",
"759 1839 OFFCURVE",
"701 1897 OFFCURVE",
"633 1897 CURVE SMOOTH",
"565 1897 OFFCURVE",
"507 1839 OFFCURVE",
"507 1769 CURVE SMOOTH",
"507 1699 OFFCURVE",
"565 1640 OFFCURVE",
"633 1640 CURVE SMOOTH"
);
},
{
closed = 1;
nodes = (
"270 554 LINE",
"261 1138 LINE",
"274 1138 LINE",
"564 339 LINE",
"702 339 LINE",
"992 1138 LINE",
"1005 1138 LINE",
"996 554 LINE",
"996 0 LINE",
"1153 0 LINE",
"1153 1443 LINE",
"955 1443 LINE",
"640 547 LINE",
"627 547 LINE",
"310 1443 LINE",
"113 1443 LINE",
"113 0 LINE",
"270 0 LINE"
);
}
);
width = 1266;
}
);
note = Mdotaccent;
unicode = 1E40;
},
{
glyphname = Mdotbelow;
layers = (
{
layerId = "2811F81C-6B8F-4884-92F2-C07A91FF888C";
paths = (
{
closed = 1;
nodes = (
"270 554 LINE",
"261 1138 LINE",
"274 1138 LINE",
"564 339 LINE",
"702 339 LINE",
"992 1138 LINE",
"1005 1138 LINE",
"996 554 LINE",
"996 0 LINE",
"1153 0 LINE",
"1153 1443 LINE",
"955 1443 LINE",
"640 547 LINE",
"627 547 LINE",
"310 1443 LINE",
"113 1443 LINE",
"113 0 LINE",
"270 0 LINE"
);
},
{
closed = 1;
nodes = (
"701 -451 OFFCURVE",
"759 -393 OFFCURVE",
"759 -323 CURVE SMOOTH",
"759 -253 OFFCURVE",
"701 -194 OFFCURVE",
"633 -194 CURVE SMOOTH",
"565 -194 OFFCURVE",
"507 -253 OFFCURVE",
"507 -323 CURVE SMOOTH",
"507 -393 OFFCURVE",
"565 -451 OFFCURVE",
"633 -451 CURVE SMOOTH"
);
}
);
width = 1266;
}
);
note = Mdotbelow;
unicode = 1E42;
},
{
glyphname = N;
layers = (
{
layerId = "2811F81C-6B8F-4884-92F2-C07A91FF888C";
paths = (
{
closed = 1;
nodes = (
"312 0 LINE",
"312 1126 LINE",
"326 1126 LINE",
"946 0 LINE",
"1113 0 LINE",
"1113 1443 LINE",
"954 1443 LINE",
"954 320 LINE",
"940 320 LINE",
"322 1443 LINE",
"153 1443 LINE",
"153 0 LINE"
);
}
);
width = 1266;
}
);
note = N;
unicode = 004E;
},
{
glyphname = NJ;
layers = (
{
layerId = "2811F81C-6B8F-4884-92F2-C07A91FF888C";
paths = (
{
closed = 1;
nodes = (
"1112 -30 OFFCURVE",
"1188 98 OFFCURVE",
"1188 381 CURVE SMOOTH",
"1188 1443 LINE",
"1044 1443 LINE",
"1044 380 LINE SMOOTH",
"1044 174 OFFCURVE",
"1022 120 OFFCURVE",
"940 120 CURVE SMOOTH",
"868 120 OFFCURVE",
"839 177 OFFCURVE",
"833 343 CURVE",
"689 343 LINE",
"689 103 OFFCURVE",
"779 -30 OFFCURVE",
"942 -30 CURVE SMOOTH"
);
},
{
closed = 1;
nodes = (
"202 0 LINE",
"202 888 LINE",
"190 1092 LINE",
"204 1092 LINE",
"464 0 LINE",
"615 0 LINE",
"615 1443 LINE",
"485 1443 LINE",
"485 563 LINE",
"496 353 LINE",
"482 353 LINE",
"224 1443 LINE",
"71 1443 LINE",
"71 0 LINE"
);
}
);
width = 1266;
}
);
note = uni01CA;
unicode = 01CA;
},
{
glyphname = Nacute;
layers = (
{
layerId = "2811F81C-6B8F-4884-92F2-C07A91FF888C";
paths = (
{
closed = 1;
nodes = (
"514 1612 LINE",
"699 1612 LINE",
"1021 1916 LINE",
"815 1916 LINE"
);
},
{
closed = 1;
nodes = (
"312 0 LINE",
"312 1126 LINE",
"326 1126 LINE",
"946 0 LINE",
"1113 0 LINE",
"1113 1443 LINE",
"954 1443 LINE",
"954 320 LINE",
"940 320 LINE",
"322 1443 LINE",
"153 1443 LINE",
"153 0 LINE"
);
}
);
width = 1266;
}
);
note = Nacute;
unicode = 0143;
},
{
glyphname = Ncaron;
layers = (
{
layerId = "2811F81C-6B8F-4884-92F2-C07A91FF888C";
paths = (
{
closed = 1;
nodes = (
"710 1610 LINE",
"996 1919 LINE",
"816 1919 LINE",
"636 1719 LINE",
"623 1719 LINE",
"443 1919 LINE",
"263 1919 LINE",
"550 1610 LINE"
);
},
{
closed = 1;
nodes = (
"312 0 LINE",
"312 1126 LINE",
"326 1126 LINE",
"946 0 LINE",
"1113 0 LINE",
"1113 1443 LINE",
"954 1443 LINE",
"954 320 LINE",
"940 320 LINE",
"322 1443 LINE",
"153 1443 LINE",
"153 0 LINE"
);
}
);
width = 1266;
}
);
note = Ncaron;
unicode = 0147;
},
{
glyphname = Ncircumflexbelow;
layers = (
{
layerId = "2811F81C-6B8F-4884-92F2-C07A91FF888C";
paths = (
{
closed = 1;
nodes = (
"312 0 LINE",
"312 1126 LINE",
"326 1126 LINE",
"946 0 LINE",
"1113 0 LINE",
"1113 1443 LINE",
"954 1443 LINE",
"954 320 LINE",
"940 320 LINE",
"322 1443 LINE",
"153 1443 LINE",
"153 0 LINE"
);
},
{
closed = 1;
nodes = (
"531 -166 LINE",
"257 -508 LINE",
"452 -508 LINE",
"624 -281 LINE",
"639 -281 LINE",
"811 -508 LINE",
"1005 -508 LINE",
"732 -166 LINE"
);
}
);
width = 1266;
}
);
note = Ncircumflexbelow;
unicode = 1E4A;
},
{
glyphname = Ncommaaccent;
layers = (
{
layerId = "2811F81C-6B8F-4884-92F2-C07A91FF888C";
paths = (
{
closed = 1;
nodes = (
"312 0 LINE",
"312 1126 LINE",
"326 1126 LINE",
"946 0 LINE",
"1113 0 LINE",
"1113 1443 LINE",
"954 1443 LINE",
"954 320 LINE",
"940 320 LINE",
"322 1443 LINE",
"153 1443 LINE",
"153 0 LINE"
);
},
{
closed = 1;
nodes = (
"591 -503 LINE",
"721 -142 LINE",
"544 -142 LINE",
"434 -503 LINE"
);
}
);
width = 1266;
}
);
note = Ncommaaccent;
unicode = 0145;
},
{
glyphname = Ndotaccent;
layers = (
{
layerId = "2811F81C-6B8F-4884-92F2-C07A91FF888C";
paths = (
{
closed = 1;
nodes = (
"698 1640 OFFCURVE",
"756 1699 OFFCURVE",
"756 1769 CURVE SMOOTH",
"756 1839 OFFCURVE",
"698 1897 OFFCURVE",
"630 1897 CURVE SMOOTH",
"562 1897 OFFCURVE",
"504 1839 OFFCURVE",
"504 1769 CURVE SMOOTH",
"504 1699 OFFCURVE",
"562 1640 OFFCURVE",
"630 1640 CURVE SMOOTH"
);
},
{
closed = 1;
nodes = (
"312 0 LINE",
"312 1126 LINE",
"326 1126 LINE",
"946 0 LINE",
"1113 0 LINE",
"1113 1443 LINE",
"954 1443 LINE",
"954 320 LINE",
"940 320 LINE",
"322 1443 LINE",
"153 1443 LINE",
"153 0 LINE"
);
}
);
width = 1266;
}
);
note = Ndotaccent;
unicode = 1E44;
},
{
glyphname = Ndotbelow;
layers = (
{
layerId = "2811F81C-6B8F-4884-92F2-C07A91FF888C";
paths = (
{
closed = 1;
nodes = (
"312 0 LINE",
"312 1126 LINE",
"326 1126 LINE",
"946 0 LINE",
"1113 0 LINE",
"1113 1443 LINE",
"954 1443 LINE",
"954 320 LINE",
"940 320 LINE",
"322 1443 LINE",
"153 1443 LINE",
"153 0 LINE"
);
},
{
closed = 1;
nodes = (
"699 -451 OFFCURVE",
"757 -393 OFFCURVE",
"757 -323 CURVE SMOOTH",
"757 -253 OFFCURVE",
"699 -194 OFFCURVE",
"631 -194 CURVE SMOOTH",
"563 -194 OFFCURVE",
"505 -253 OFFCURVE",
"505 -323 CURVE SMOOTH",
"505 -393 OFFCURVE",
"563 -451 OFFCURVE",
"631 -451 CURVE SMOOTH"
);
}
);
width = 1266;
}
);
note = Ndotbelow;
unicode = 1E46;
},
{
glyphname = Ngrave;
layers = (
{
layerId = "2811F81C-6B8F-4884-92F2-C07A91FF888C";
paths = (
{
closed = 1;
nodes = (
"744 1612 LINE",
"443 1916 LINE",
"236 1916 LINE",
"558 1612 LINE"
);
},
{
closed = 1;
nodes = (
"312 0 LINE",
"312 1126 LINE",
"326 1126 LINE",
"946 0 LINE",
"1113 0 LINE",
"1113 1443 LINE",
"954 1443 LINE",
"954 320 LINE",
"940 320 LINE",
"322 1443 LINE",
"153 1443 LINE",
"153 0 LINE"
);
}
);
width = 1266;
}
);
note = Ngrave;
unicode = 01F8;
},
{
glyphname = Nj;
layers = (
{
layerId = "2811F81C-6B8F-4884-92F2-C07A91FF888C";
paths = (
{
closed = 1;
nodes = (
"1064 1357 OFFCURVE",
"1124 1416 OFFCURVE",
"1124 1493 CURVE SMOOTH",
"1124 1571 OFFCURVE",
"1064 1630 OFFCURVE",
"985 1630 CURVE SMOOTH",
"907 1630 OFFCURVE",
"846 1571 OFFCURVE",
"846 1493 CURVE SMOOTH",
"846 1416 OFFCURVE",
"907 1357 OFFCURVE",
"985 1357 CURVE SMOOTH"
);
},
{
closed = 1;
nodes = (
"217 0 LINE",
"217 1092 LINE",
"235 1092 LINE",
"542 0 LINE",
"713 0 LINE",
"713 1443 LINE",
"575 1443 LINE",
"575 353 LINE",
"557 353 LINE",
"252 1443 LINE",
"79 1443 LINE",
"79 0 LINE"
);
},
{
closed = 1;
nodes = (
"1077 1085 LINE",
"919 1085 LINE",
"919 24 LINE SMOOTH",
"919 -133 OFFCURVE",
"858 -183 OFFCURVE",
"656 -183 CURVE SMOOTH",
"583 -183 OFFCURVE",
"441 -180 OFFCURVE",
"394 -175 CURVE",
"394 -321 LINE",
"459 -327 OFFCURVE",
"572 -329 OFFCURVE",
"654 -329 CURVE SMOOTH",
"955 -329 OFFCURVE",
"1077 -235 OFFCURVE",
"1077 6 CURVE SMOOTH"
);
}
);
width = 1266;
}
);
note = uni01CB;
unicode = 01CB;
},
{
glyphname = Nlinebelow;
layers = (
{
layerId = "2811F81C-6B8F-4884-92F2-C07A91FF888C";
paths = (
{
closed = 1;
nodes = (
"312 0 LINE",
"312 1126 LINE",
"326 1126 LINE",
"946 0 LINE",
"1113 0 LINE",
"1113 1443 LINE",
"954 1443 LINE",
"954 320 LINE",
"940 320 LINE",
"322 1443 LINE",
"153 1443 LINE",
"153 0 LINE"
);
},
{
closed = 1;
nodes = (
"961 -395 LINE",
"961 -256 LINE",
"301 -256 LINE",
"301 -395 LINE"
);
}
);
width = 1266;
}
);
note = Nlinebelow;
unicode = 1E48;
},
{
glyphname = Ntilde;
layers = (
{
layerId = "2811F81C-6B8F-4884-92F2-C07A91FF888C";
paths = (
{
closed = 1;
nodes = (
"905 1620 OFFCURVE",
"991 1724 OFFCURVE",
"991 1888 CURVE",
"868 1888 LINE",
"864 1793 OFFCURVE",
"828 1743 OFFCURVE",
"770 1743 CURVE SMOOTH",
"678 1743 OFFCURVE",
"645 1900 OFFCURVE",
"481 1900 CURVE SMOOTH",
"353 1900 OFFCURVE",
"268 1798 OFFCURVE",
"268 1630 CURVE",
"392 1630 LINE",
"395 1728 OFFCURVE",
"430 1776 OFFCURVE",
"490 1776 CURVE SMOOTH",
"594 1776 OFFCURVE",
"622 1620 OFFCURVE",
"778 1620 CURVE SMOOTH"
);
},
{
closed = 1;
nodes = (
"312 0 LINE",
"312 1126 LINE",
"326 1126 LINE",
"946 0 LINE",
"1113 0 LINE",
"1113 1443 LINE",
"954 1443 LINE",
"954 320 LINE",
"940 320 LINE",
"322 1443 LINE",
"153 1443 LINE",
"153 0 LINE"
);
}
);
width = 1266;
}
);
note = Ntilde;
unicode = 00D1;
},
{
glyphname = O;
layers = (
{
layerId = "2811F81C-6B8F-4884-92F2-C07A91FF888C";
paths = (
{
closed = 1;
nodes = (
"1162 838 LINE SMOOTH",
"1162 1237 OFFCURVE",
"961 1473 OFFCURVE",
"633 1473 CURVE SMOOTH",
"305 1473 OFFCURVE",
"104 1237 OFFCURVE",
"104 838 CURVE SMOOTH",
"104 605 LINE SMOOTH",
"104 206 OFFCURVE",
"305 -30 OFFCURVE",
"633 -30 CURVE SMOOTH",
"961 -30 OFFCURVE",
"1162 206 OFFCURVE",
"1162 605 CURVE SMOOTH"
);
},
{
closed = 1;
nodes = (
"414 137 OFFCURVE",
"282 305 OFFCURVE",
"282 606 CURVE SMOOTH",
"282 837 LINE SMOOTH",
"282 1138 OFFCURVE",
"414 1306 OFFCURVE",
"633 1306 CURVE SMOOTH",
"852 1306 OFFCURVE",
"984 1138 OFFCURVE",
"984 837 CURVE SMOOTH",
"984 606 LINE SMOOTH",
"984 305 OFFCURVE",
"852 137 OFFCURVE",
"633 137 CURVE SMOOTH"
);
}
);
width = 1266;
}
);
note = O;
unicode = 004F;
},
{
glyphname = Oacute;
layers = (
{
layerId = "2811F81C-6B8F-4884-92F2-C07A91FF888C";
paths = (
{
closed = 1;
nodes = (
"517 1612 LINE",
"702 1612 LINE",
"1025 1916 LINE",
"818 1916 LINE"
);
},
{
closed = 1;
nodes = (
"1162 838 LINE SMOOTH",
"1162 1237 OFFCURVE",
"961 1473 OFFCURVE",
"633 1473 CURVE SMOOTH",
"305 1473 OFFCURVE",
"104 1237 OFFCURVE",
"104 838 CURVE SMOOTH",
"104 605 LINE SMOOTH",
"104 206 OFFCURVE",
"305 -30 OFFCURVE",
"633 -30 CURVE SMOOTH",
"961 -30 OFFCURVE",
"1162 206 OFFCURVE",
"1162 605 CURVE SMOOTH"
);
},
{
closed = 1;
nodes = (
"414 137 OFFCURVE",
"282 305 OFFCURVE",
"282 606 CURVE SMOOTH",
"282 837 LINE SMOOTH",
"282 1138 OFFCURVE",
"414 1306 OFFCURVE",
"633 1306 CURVE SMOOTH",
"852 1306 OFFCURVE",
"984 1138 OFFCURVE",
"984 837 CURVE SMOOTH",
"984 606 LINE SMOOTH",
"984 305 OFFCURVE",
"852 137 OFFCURVE",
"633 137 CURVE SMOOTH"
);
}
);
width = 1266;
}
);
note = Oacute;
unicode = 00D3;
},
{
glyphname = Obreve;
layers = (
{
layerId = "2811F81C-6B8F-4884-92F2-C07A91FF888C";
paths = (
{
closed = 1;
nodes = (
"288 1918 LINE",
"288 1736 OFFCURVE",
"428 1609 OFFCURVE",
"633 1609 CURVE SMOOTH",
"838 1609 OFFCURVE",
"978 1736 OFFCURVE",
"978 1918 CURVE",
"840 1918 LINE",
"839 1807 OFFCURVE",
"754 1727 OFFCURVE",
"633 1727 CURVE SMOOTH",
"512 1727 OFFCURVE",
"427 1807 OFFCURVE",
"426 1918 CURVE"
);
},
{
closed = 1;
nodes = (
"1162 838 LINE SMOOTH",
"1162 1237 OFFCURVE",
"961 1473 OFFCURVE",
"633 1473 CURVE SMOOTH",
"305 1473 OFFCURVE",
"104 1237 OFFCURVE",
"104 838 CURVE SMOOTH",
"104 605 LINE SMOOTH",
"104 206 OFFCURVE",
"305 -30 OFFCURVE",
"633 -30 CURVE SMOOTH",
"961 -30 OFFCURVE",
"1162 206 OFFCURVE",
"1162 605 CURVE SMOOTH"
);
},
{
closed = 1;
nodes = (
"414 137 OFFCURVE",
"282 305 OFFCURVE",
"282 606 CURVE SMOOTH",
"282 837 LINE SMOOTH",
"282 1138 OFFCURVE",
"414 1306 OFFCURVE",
"633 1306 CURVE SMOOTH",
"852 1306 OFFCURVE",
"984 1138 OFFCURVE",
"984 837 CURVE SMOOTH",
"984 606 LINE SMOOTH",
"984 305 OFFCURVE",
"852 137 OFFCURVE",
"633 137 CURVE SMOOTH"
);
}
);
width = 1266;
}
);
note = Obreve;
unicode = 014E;
},
{
glyphname = Ocaron;
layers = (
{
layerId = "2811F81C-6B8F-4884-92F2-C07A91FF888C";
paths = (
{
closed = 1;
nodes = (
"713 1610 LINE",
"999 1919 LINE",
"820 1919 LINE",
"640 1719 LINE",
"626 1719 LINE",
"446 1919 LINE",
"267 1919 LINE",
"553 1610 LINE"
);
},
{
closed = 1;
nodes = (
"1162 838 LINE SMOOTH",
"1162 1237 OFFCURVE",
"961 1473 OFFCURVE",
"633 1473 CURVE SMOOTH",
"305 1473 OFFCURVE",
"104 1237 OFFCURVE",
"104 838 CURVE SMOOTH",
"104 605 LINE SMOOTH",
"104 206 OFFCURVE",
"305 -30 OFFCURVE",
"633 -30 CURVE SMOOTH",
"961 -30 OFFCURVE",
"1162 206 OFFCURVE",
"1162 605 CURVE SMOOTH"
);
},
{
closed = 1;
nodes = (
"414 137 OFFCURVE",
"282 305 OFFCURVE",
"282 606 CURVE SMOOTH",
"282 837 LINE SMOOTH",
"282 1138 OFFCURVE",
"414 1306 OFFCURVE",
"633 1306 CURVE SMOOTH",
"852 1306 OFFCURVE",
"984 1138 OFFCURVE",
"984 837 CURVE SMOOTH",
"984 606 LINE SMOOTH",
"984 305 OFFCURVE",
"852 137 OFFCURVE",
"633 137 CURVE SMOOTH"
);
}
);
width = 1266;
}
);
note = Ocaron;
unicode = 01D1;
},
{
glyphname = Ocircumflex;
layers = (
{
layerId = "2811F81C-6B8F-4884-92F2-C07A91FF888C";
paths = (
{
closed = 1;
nodes = (
"713 1921 LINE",
"553 1921 LINE",
"267 1612 LINE",
"446 1612 LINE",
"626 1812 LINE",
"640 1812 LINE",
"820 1612 LINE",
"999 1612 LINE"
);
},
{
closed = 1;
nodes = (
"1162 838 LINE SMOOTH",
"1162 1237 OFFCURVE",
"961 1473 OFFCURVE",
"633 1473 CURVE SMOOTH",
"305 1473 OFFCURVE",
"104 1237 OFFCURVE",
"104 838 CURVE SMOOTH",
"104 605 LINE SMOOTH",
"104 206 OFFCURVE",
"305 -30 OFFCURVE",
"633 -30 CURVE SMOOTH",
"961 -30 OFFCURVE",
"1162 206 OFFCURVE",
"1162 605 CURVE SMOOTH"
);
},
{
closed = 1;
nodes = (
"414 137 OFFCURVE",
"282 305 OFFCURVE",
"282 606 CURVE SMOOTH",
"282 837 LINE SMOOTH",
"282 1138 OFFCURVE",
"414 1306 OFFCURVE",
"633 1306 CURVE SMOOTH",
"852 1306 OFFCURVE",
"984 1138 OFFCURVE",
"984 837 CURVE SMOOTH",
"984 606 LINE SMOOTH",
"984 305 OFFCURVE",
"852 137 OFFCURVE",
"633 137 CURVE SMOOTH"
);
}
);
width = 1266;
}
);
note = Ocircumflex;
unicode = 00D4;
},
{
glyphname = Ocircumflexacute;
layers = (
{
layerId = "2811F81C-6B8F-4884-92F2-C07A91FF888C";
paths = (
{
closed = 1;
nodes = (
"835 1844 LINE",
"1005 1844 LINE",
"1240 2083 LINE",
"1048 2083 LINE"
);
},
{
closed = 1;
nodes = (
"723 1813 LINE",
"543 1813 LINE",
"261 1578 LINE",
"455 1578 LINE",
"626 1724 LINE",
"640 1724 LINE",
"811 1578 LINE",
"1005 1578 LINE"
);
},
{
closed = 1;
nodes = (
"1162 838 LINE SMOOTH",
"1162 1237 OFFCURVE",
"961 1473 OFFCURVE",
"633 1473 CURVE SMOOTH",
"305 1473 OFFCURVE",
"104 1237 OFFCURVE",
"104 838 CURVE SMOOTH",
"104 605 LINE SMOOTH",
"104 206 OFFCURVE",
"305 -30 OFFCURVE",
"633 -30 CURVE SMOOTH",
"961 -30 OFFCURVE",
"1162 206 OFFCURVE",
"1162 605 CURVE SMOOTH"
);
},
{
closed = 1;
nodes = (
"414 137 OFFCURVE",
"282 305 OFFCURVE",
"282 606 CURVE SMOOTH",
"282 837 LINE SMOOTH",
"282 1138 OFFCURVE",
"414 1306 OFFCURVE",
"633 1306 CURVE SMOOTH",
"852 1306 OFFCURVE",
"984 1138 OFFCURVE",
"984 837 CURVE SMOOTH",
"984 606 LINE SMOOTH",
"984 305 OFFCURVE",
"852 137 OFFCURVE",
"633 137 CURVE SMOOTH"
);
}
);
width = 1266;
}
);
note = Ocircumflexacute;
unicode = 1ED0;
},
{
glyphname = Ocircumflexdotbelow;
layers = (
{
layerId = "2811F81C-6B8F-4884-92F2-C07A91FF888C";
paths = (
{
closed = 1;
nodes = (
"713 1921 LINE",
"553 1921 LINE",
"267 1612 LINE",
"446 1612 LINE",
"626 1812 LINE",
"640 1812 LINE",
"820 1612 LINE",
"999 1612 LINE"
);
},
{
closed = 1;
nodes = (
"1162 838 LINE SMOOTH",
"1162 1237 OFFCURVE",
"961 1473 OFFCURVE",
"633 1473 CURVE SMOOTH",
"305 1473 OFFCURVE",
"104 1237 OFFCURVE",
"104 838 CURVE SMOOTH",
"104 605 LINE SMOOTH",
"104 206 OFFCURVE",
"305 -30 OFFCURVE",
"633 -30 CURVE SMOOTH",
"961 -30 OFFCURVE",
"1162 206 OFFCURVE",
"1162 605 CURVE SMOOTH"
);
},
{
closed = 1;
nodes = (
"414 137 OFFCURVE",
"282 305 OFFCURVE",
"282 606 CURVE SMOOTH",
"282 837 LINE SMOOTH",
"282 1138 OFFCURVE",
"414 1306 OFFCURVE",
"633 1306 CURVE SMOOTH",
"852 1306 OFFCURVE",
"984 1138 OFFCURVE",
"984 837 CURVE SMOOTH",
"984 606 LINE SMOOTH",
"984 305 OFFCURVE",
"852 137 OFFCURVE",
"633 137 CURVE SMOOTH"
);
},
{
closed = 1;
nodes = (
"701 -451 OFFCURVE",
"759 -393 OFFCURVE",
"759 -323 CURVE SMOOTH",
"759 -253 OFFCURVE",
"701 -194 OFFCURVE",
"633 -194 CURVE SMOOTH",
"565 -194 OFFCURVE",
"507 -253 OFFCURVE",
"507 -323 CURVE SMOOTH",
"507 -393 OFFCURVE",
"565 -451 OFFCURVE",
"633 -451 CURVE SMOOTH"
);
}
);
width = 1266;
}
);
note = Ocircumflexdotbelow;
unicode = 1ED8;
},
{
glyphname = Ocircumflexgrave;
layers = (
{
layerId = "2811F81C-6B8F-4884-92F2-C07A91FF888C";
paths = (
{
closed = 1;
nodes = (
"1070 1844 LINE",
"857 2083 LINE",
"666 2083 LINE",
"900 1844 LINE"
);
},
{
closed = 1;
nodes = (
"723 1813 LINE",
"543 1813 LINE",
"261 1578 LINE",
"455 1578 LINE",
"626 1724 LINE",
"640 1724 LINE",
"811 1578 LINE",
"1005 1578 LINE"
);
},
{
closed = 1;
nodes = (
"1162 838 LINE SMOOTH",
"1162 1237 OFFCURVE",
"961 1473 OFFCURVE",
"633 1473 CURVE SMOOTH",
"305 1473 OFFCURVE",
"104 1237 OFFCURVE",
"104 838 CURVE SMOOTH",
"104 605 LINE SMOOTH",
"104 206 OFFCURVE",
"305 -30 OFFCURVE",
"633 -30 CURVE SMOOTH",
"961 -30 OFFCURVE",
"1162 206 OFFCURVE",
"1162 605 CURVE SMOOTH"
);
},
{
closed = 1;
nodes = (
"414 137 OFFCURVE",
"282 305 OFFCURVE",
"282 606 CURVE SMOOTH",
"282 837 LINE SMOOTH",
"282 1138 OFFCURVE",
"414 1306 OFFCURVE",
"633 1306 CURVE SMOOTH",
"852 1306 OFFCURVE",
"984 1138 OFFCURVE",
"984 837 CURVE SMOOTH",
"984 606 LINE SMOOTH",
"984 305 OFFCURVE",
"852 137 OFFCURVE",
"633 137 CURVE SMOOTH"
);
}
);
width = 1266;
}
);
note = Ocircumflexgrave;
unicode = 1ED2;
},
{
glyphname = Ocircumflexhookabove;
layers = (
{
layerId = "2811F81C-6B8F-4884-92F2-C07A91FF888C";
paths = (
{
closed = 1;
nodes = (
"756 1991 LINE",
"777 2002 OFFCURVE",
"816 2009 OFFCURVE",
"850 2009 CURVE SMOOTH",
"903 2009 OFFCURVE",
"939 1981 OFFCURVE",
"939 1939 CURVE SMOOTH",
"939 1898 OFFCURVE",
"908 1861 OFFCURVE",
"857 1840 CURVE",
"937 1770 LINE",
"1016 1800 OFFCURVE",
"1066 1870 OFFCURVE",
"1066 1950 CURVE SMOOTH",
"1066 2047 OFFCURVE",
"992 2111 OFFCURVE",
"882 2111 CURVE SMOOTH",
"833 2111 OFFCURVE",
"781 2103 OFFCURVE",
"756 2092 CURVE"
);
},
{
closed = 1;
nodes = (
"723 1813 LINE",
"543 1813 LINE",
"261 1578 LINE",
"455 1578 LINE",
"626 1724 LINE",
"640 1724 LINE",
"811 1578 LINE",
"1005 1578 LINE"
);
},
{
closed = 1;
nodes = (
"1162 838 LINE SMOOTH",
"1162 1237 OFFCURVE",
"961 1473 OFFCURVE",
"633 1473 CURVE SMOOTH",
"305 1473 OFFCURVE",
"104 1237 OFFCURVE",
"104 838 CURVE SMOOTH",
"104 605 LINE SMOOTH",
"104 206 OFFCURVE",
"305 -30 OFFCURVE",
"633 -30 CURVE SMOOTH",
"961 -30 OFFCURVE",
"1162 206 OFFCURVE",
"1162 605 CURVE SMOOTH"
);
},
{
closed = 1;
nodes = (
"414 137 OFFCURVE",
"282 305 OFFCURVE",
"282 606 CURVE SMOOTH",
"282 837 LINE SMOOTH",
"282 1138 OFFCURVE",
"414 1306 OFFCURVE",
"633 1306 CURVE SMOOTH",
"852 1306 OFFCURVE",
"984 1138 OFFCURVE",
"984 837 CURVE SMOOTH",
"984 606 LINE SMOOTH",
"984 305 OFFCURVE",
"852 137 OFFCURVE",
"633 137 CURVE SMOOTH"
);
}
);
width = 1266;
}
);
note = Ocircumflexhookabove;
unicode = 1ED4;
},
{
glyphname = Ocircumflextilde;
layers = (
{
layerId = "2811F81C-6B8F-4884-92F2-C07A91FF888C";
paths = (
{
closed = 1;
nodes = (
"897 1864 OFFCURVE",
"983 1959 OFFCURVE",
"983 2103 CURVE",
"863 2103 LINE",
"859 2025 OFFCURVE",
"824 1984 OFFCURVE",
"769 1984 CURVE SMOOTH",
"665 1984 OFFCURVE",
"660 2117 OFFCURVE",
"493 2117 CURVE SMOOTH",
"368 2117 OFFCURVE",
"283 2024 OFFCURVE",
"283 1879 CURVE",
"404 1879 LINE",
"407 1956 OFFCURVE",
"440 1997 OFFCURVE",
"497 1997 CURVE SMOOTH",
"601 1997 OFFCURVE",
"606 1864 OFFCURVE",
"773 1864 CURVE SMOOTH"
);
},
{
closed = 1;
nodes = (
"723 1813 LINE",
"543 1813 LINE",
"261 1578 LINE",
"455 1578 LINE",
"626 1724 LINE",
"640 1724 LINE",
"811 1578 LINE",
"1005 1578 LINE"
);
},
{
closed = 1;
nodes = (
"1162 838 LINE SMOOTH",
"1162 1237 OFFCURVE",
"961 1473 OFFCURVE",
"633 1473 CURVE SMOOTH",
"305 1473 OFFCURVE",
"104 1237 OFFCURVE",
"104 838 CURVE SMOOTH",
"104 605 LINE SMOOTH",
"104 206 OFFCURVE",
"305 -30 OFFCURVE",
"633 -30 CURVE SMOOTH",
"961 -30 OFFCURVE",
"1162 206 OFFCURVE",
"1162 605 CURVE SMOOTH"
);
},
{
closed = 1;
nodes = (
"414 137 OFFCURVE",
"282 305 OFFCURVE",
"282 606 CURVE SMOOTH",
"282 837 LINE SMOOTH",
"282 1138 OFFCURVE",
"414 1306 OFFCURVE",
"633 1306 CURVE SMOOTH",
"852 1306 OFFCURVE",
"984 1138 OFFCURVE",
"984 837 CURVE SMOOTH",
"984 606 LINE SMOOTH",
"984 305 OFFCURVE",
"852 137 OFFCURVE",
"633 137 CURVE SMOOTH"
);
}
);
width = 1266;
}
);
note = Ocircumflextilde;
unicode = 1ED6;
},
{
glyphname = Odblgrave;
layers = (
{
layerId = "2811F81C-6B8F-4884-92F2-C07A91FF888C";
paths = (
{
closed = 1;
nodes = (
"567 1612 LINE",
"273 1916 LINE",
"78 1916 LINE",
"391 1612 LINE"
);
},
{
closed = 1;
nodes = (
"946 1612 LINE",
"652 1916 LINE",
"457 1916 LINE",
"769 1612 LINE"
);
},
{
closed = 1;
nodes = (
"1162 838 LINE SMOOTH",
"1162 1237 OFFCURVE",
"961 1473 OFFCURVE",
"633 1473 CURVE SMOOTH",
"305 1473 OFFCURVE",
"104 1237 OFFCURVE",
"104 838 CURVE SMOOTH",
"104 605 LINE SMOOTH",
"104 206 OFFCURVE",
"305 -30 OFFCURVE",
"633 -30 CURVE SMOOTH",
"961 -30 OFFCURVE",
"1162 206 OFFCURVE",
"1162 605 CURVE SMOOTH"
);
},
{
closed = 1;
nodes = (
"414 137 OFFCURVE",
"282 305 OFFCURVE",
"282 606 CURVE SMOOTH",
"282 837 LINE SMOOTH",
"282 1138 OFFCURVE",
"414 1306 OFFCURVE",
"633 1306 CURVE SMOOTH",
"852 1306 OFFCURVE",
"984 1138 OFFCURVE",
"984 837 CURVE SMOOTH",
"984 606 LINE SMOOTH",
"984 305 OFFCURVE",
"852 137 OFFCURVE",
"633 137 CURVE SMOOTH"
);
}
);
width = 1266;
}
);
note = Odblgrave;
unicode = 020C;
},
{
glyphname = Odieresis;
layers = (
{
layerId = "2811F81C-6B8F-4884-92F2-C07A91FF888C";
paths = (
{
closed = 1;
nodes = (
"494 1651 OFFCURVE",
"548 1707 OFFCURVE",
"548 1772 CURVE SMOOTH",
"548 1838 OFFCURVE",
"494 1893 OFFCURVE",
"431 1893 CURVE SMOOTH",
"369 1893 OFFCURVE",
"314 1838 OFFCURVE",
"314 1772 CURVE SMOOTH",
"314 1707 OFFCURVE",
"369 1651 OFFCURVE",
"431 1651 CURVE SMOOTH"
);
},
{
closed = 1;
nodes = (
"897 1651 OFFCURVE",
"952 1707 OFFCURVE",
"952 1772 CURVE SMOOTH",
"952 1838 OFFCURVE",
"897 1893 OFFCURVE",
"835 1893 CURVE SMOOTH",
"772 1893 OFFCURVE",
"718 1838 OFFCURVE",
"718 1772 CURVE SMOOTH",
"718 1707 OFFCURVE",
"772 1651 OFFCURVE",
"835 1651 CURVE SMOOTH"
);
},
{
closed = 1;
nodes = (
"1162 838 LINE SMOOTH",
"1162 1237 OFFCURVE",
"961 1473 OFFCURVE",
"633 1473 CURVE SMOOTH",
"305 1473 OFFCURVE",
"104 1237 OFFCURVE",
"104 838 CURVE SMOOTH",
"104 605 LINE SMOOTH",
"104 206 OFFCURVE",
"305 -30 OFFCURVE",
"633 -30 CURVE SMOOTH",
"961 -30 OFFCURVE",
"1162 206 OFFCURVE",
"1162 605 CURVE SMOOTH"
);
},
{
closed = 1;
nodes = (
"414 137 OFFCURVE",
"282 305 OFFCURVE",
"282 606 CURVE SMOOTH",
"282 837 LINE SMOOTH",
"282 1138 OFFCURVE",
"414 1306 OFFCURVE",
"633 1306 CURVE SMOOTH",
"852 1306 OFFCURVE",
"984 1138 OFFCURVE",
"984 837 CURVE SMOOTH",
"984 606 LINE SMOOTH",
"984 305 OFFCURVE",
"852 137 OFFCURVE",
"633 137 CURVE SMOOTH"
);
}
);
width = 1266;
}
);
note = Odieresis;
unicode = 00D6;
},
{
glyphname = Odieresismacron;
layers = (
{
layerId = "2811F81C-6B8F-4884-92F2-C07A91FF888C";
paths = (
{
closed = 1;
nodes = (
"301 2051 LINE",
"301 1931 LINE",
"964 1931 LINE",
"964 2051 LINE"
);
},
{
closed = 1;
nodes = (
"380 1787 OFFCURVE",
"333 1738 OFFCURVE",
"333 1676 CURVE SMOOTH",
"333 1615 OFFCURVE",
"380 1566 OFFCURVE",
"439 1566 CURVE SMOOTH",
"498 1566 OFFCURVE",
"545 1615 OFFCURVE",
"545 1676 CURVE SMOOTH",
"545 1738 OFFCURVE",
"498 1787 OFFCURVE",
"439 1787 CURVE SMOOTH"
);
},
{
closed = 1;
nodes = (
"769 1787 OFFCURVE",
"721 1738 OFFCURVE",
"721 1676 CURVE SMOOTH",
"721 1615 OFFCURVE",
"769 1566 OFFCURVE",
"828 1566 CURVE SMOOTH",
"887 1566 OFFCURVE",
"934 1615 OFFCURVE",
"934 1676 CURVE SMOOTH",
"934 1738 OFFCURVE",
"887 1787 OFFCURVE",
"828 1787 CURVE SMOOTH"
);
},
{
closed = 1;
nodes = (
"1162 838 LINE SMOOTH",
"1162 1237 OFFCURVE",
"961 1473 OFFCURVE",
"633 1473 CURVE SMOOTH",
"305 1473 OFFCURVE",
"104 1237 OFFCURVE",
"104 838 CURVE SMOOTH",
"104 605 LINE SMOOTH",
"104 206 OFFCURVE",
"305 -30 OFFCURVE",
"633 -30 CURVE SMOOTH",
"961 -30 OFFCURVE",
"1162 206 OFFCURVE",
"1162 605 CURVE SMOOTH"
);
},
{
closed = 1;
nodes = (
"414 137 OFFCURVE",
"282 305 OFFCURVE",
"282 606 CURVE SMOOTH",
"282 837 LINE SMOOTH",
"282 1138 OFFCURVE",
"414 1306 OFFCURVE",
"633 1306 CURVE SMOOTH",
"852 1306 OFFCURVE",
"984 1138 OFFCURVE",
"984 837 CURVE SMOOTH",
"984 606 LINE SMOOTH",
"984 305 OFFCURVE",
"852 137 OFFCURVE",
"633 137 CURVE SMOOTH"
);
}
);
width = 1266;
}
);
note = Odieresismacron;
unicode = 022A;
},
{
glyphname = Odotaccent;
layers = (
{
layerId = "2811F81C-6B8F-4884-92F2-C07A91FF888C";
paths = (
{
closed = 1;
nodes = (
"701 1640 OFFCURVE",
"759 1699 OFFCURVE",
"759 1769 CURVE SMOOTH",
"759 1839 OFFCURVE",
"701 1897 OFFCURVE",
"633 1897 CURVE SMOOTH",
"565 1897 OFFCURVE",
"507 1839 OFFCURVE",
"507 1769 CURVE SMOOTH",
"507 1699 OFFCURVE",
"565 1640 OFFCURVE",
"633 1640 CURVE SMOOTH"
);
},
{
closed = 1;
nodes = (
"1162 838 LINE SMOOTH",
"1162 1237 OFFCURVE",
"961 1473 OFFCURVE",
"633 1473 CURVE SMOOTH",
"305 1473 OFFCURVE",
"104 1237 OFFCURVE",
"104 838 CURVE SMOOTH",
"104 605 LINE SMOOTH",
"104 206 OFFCURVE",
"305 -30 OFFCURVE",
"633 -30 CURVE SMOOTH",
"961 -30 OFFCURVE",
"1162 206 OFFCURVE",
"1162 605 CURVE SMOOTH"
);
},
{
closed = 1;
nodes = (
"414 137 OFFCURVE",
"282 305 OFFCURVE",
"282 606 CURVE SMOOTH",
"282 837 LINE SMOOTH",
"282 1138 OFFCURVE",
"414 1306 OFFCURVE",
"633 1306 CURVE SMOOTH",
"852 1306 OFFCURVE",
"984 1138 OFFCURVE",
"984 837 CURVE SMOOTH",
"984 606 LINE SMOOTH",
"984 305 OFFCURVE",
"852 137 OFFCURVE",
"633 137 CURVE SMOOTH"
);
}
);
width = 1266;
}
);
note = Odotaccent;
unicode = 022E;
},
{
glyphname = Odotaccentmacron;
layers = (
{
layerId = "2811F81C-6B8F-4884-92F2-C07A91FF888C";
paths = (
{
closed = 1;
nodes = (
"302 2051 LINE",
"302 1931 LINE",
"965 1931 LINE",
"965 2051 LINE"
);
},
{
closed = 1;
nodes = (
"569 1811 OFFCURVE",
"518 1759 OFFCURVE",
"518 1693 CURVE SMOOTH",
"518 1627 OFFCURVE",
"569 1574 OFFCURVE",
"633 1574 CURVE SMOOTH",
"697 1574 OFFCURVE",
"749 1627 OFFCURVE",
"749 1693 CURVE SMOOTH",
"749 1759 OFFCURVE",
"697 1811 OFFCURVE",
"633 1811 CURVE SMOOTH"
);
},
{
closed = 1;
nodes = (
"1162 838 LINE SMOOTH",
"1162 1237 OFFCURVE",
"961 1473 OFFCURVE",
"633 1473 CURVE SMOOTH",
"305 1473 OFFCURVE",
"104 1237 OFFCURVE",
"104 838 CURVE SMOOTH",
"104 605 LINE SMOOTH",
"104 206 OFFCURVE",
"305 -30 OFFCURVE",
"633 -30 CURVE SMOOTH",
"961 -30 OFFCURVE",
"1162 206 OFFCURVE",
"1162 605 CURVE SMOOTH"
);
},
{
closed = 1;
nodes = (
"414 137 OFFCURVE",
"282 305 OFFCURVE",
"282 606 CURVE SMOOTH",
"282 837 LINE SMOOTH",
"282 1138 OFFCURVE",
"414 1306 OFFCURVE",
"633 1306 CURVE SMOOTH",
"852 1306 OFFCURVE",
"984 1138 OFFCURVE",
"984 837 CURVE SMOOTH",
"984 606 LINE SMOOTH",
"984 305 OFFCURVE",
"852 137 OFFCURVE",
"633 137 CURVE SMOOTH"
);
}
);
width = 1266;
}
);
note = Odotaccentmacron;
unicode = 0230;
},
{
glyphname = Odotbelow;
layers = (
{
layerId = "2811F81C-6B8F-4884-92F2-C07A91FF888C";
paths = (
{
closed = 1;
nodes = (
"1162 838 LINE SMOOTH",
"1162 1237 OFFCURVE",
"961 1473 OFFCURVE",
"633 1473 CURVE SMOOTH",
"305 1473 OFFCURVE",
"104 1237 OFFCURVE",
"104 838 CURVE SMOOTH",
"104 605 LINE SMOOTH",
"104 206 OFFCURVE",
"305 -30 OFFCURVE",
"633 -30 CURVE SMOOTH",
"961 -30 OFFCURVE",
"1162 206 OFFCURVE",
"1162 605 CURVE SMOOTH"
);
},
{
closed = 1;
nodes = (
"414 137 OFFCURVE",
"282 305 OFFCURVE",
"282 606 CURVE SMOOTH",
"282 837 LINE SMOOTH",
"282 1138 OFFCURVE",
"414 1306 OFFCURVE",
"633 1306 CURVE SMOOTH",
"852 1306 OFFCURVE",
"984 1138 OFFCURVE",
"984 837 CURVE SMOOTH",
"984 606 LINE SMOOTH",
"984 305 OFFCURVE",
"852 137 OFFCURVE",
"633 137 CURVE SMOOTH"
);
},
{
closed = 1;
nodes = (
"701 -451 OFFCURVE",
"759 -393 OFFCURVE",
"759 -323 CURVE SMOOTH",
"759 -253 OFFCURVE",
"701 -194 OFFCURVE",
"633 -194 CURVE SMOOTH",
"565 -194 OFFCURVE",
"507 -253 OFFCURVE",
"507 -323 CURVE SMOOTH",
"507 -393 OFFCURVE",
"565 -451 OFFCURVE",
"633 -451 CURVE SMOOTH"
);
}
);
width = 1266;
}
);
note = Odotbelow;
unicode = 1ECC;
},
{
glyphname = Ograve;
layers = (
{
layerId = "2811F81C-6B8F-4884-92F2-C07A91FF888C";
paths = (
{
closed = 1;
nodes = (
"747 1612 LINE",
"446 1916 LINE",
"239 1916 LINE",
"561 1612 LINE"
);
},
{
closed = 1;
nodes = (
"1162 838 LINE SMOOTH",
"1162 1237 OFFCURVE",
"961 1473 OFFCURVE",
"633 1473 CURVE SMOOTH",
"305 1473 OFFCURVE",
"104 1237 OFFCURVE",
"104 838 CURVE SMOOTH",
"104 605 LINE SMOOTH",
"104 206 OFFCURVE",
"305 -30 OFFCURVE",
"633 -30 CURVE SMOOTH",
"961 -30 OFFCURVE",
"1162 206 OFFCURVE",
"1162 605 CURVE SMOOTH"
);
},
{
closed = 1;
nodes = (
"414 137 OFFCURVE",
"282 305 OFFCURVE",
"282 606 CURVE SMOOTH",
"282 837 LINE SMOOTH",
"282 1138 OFFCURVE",
"414 1306 OFFCURVE",
"633 1306 CURVE SMOOTH",
"852 1306 OFFCURVE",
"984 1138 OFFCURVE",
"984 837 CURVE SMOOTH",
"984 606 LINE SMOOTH",
"984 305 OFFCURVE",
"852 137 OFFCURVE",
"633 137 CURVE SMOOTH"
);
}
);
width = 1266;
}
);
note = Ograve;
unicode = 00D2;
},
{
glyphname = Ohookabove;
layers = (
{
layerId = "2811F81C-6B8F-4884-92F2-C07A91FF888C";
paths = (
{
closed = 1;
nodes = (
"460 1816 LINE",
"485 1829 OFFCURVE",
"527 1838 OFFCURVE",
"570 1838 CURVE SMOOTH",
"633 1838 OFFCURVE",
"673 1807 OFFCURVE",
"673 1763 CURVE SMOOTH",
"673 1720 OFFCURVE",
"632 1678 OFFCURVE",
"572 1657 CURVE",
"639 1571 LINE",
"738 1609 OFFCURVE",
"802 1688 OFFCURVE",
"802 1777 CURVE SMOOTH",
"802 1886 OFFCURVE",
"719 1954 OFFCURVE",
"593 1954 CURVE SMOOTH",
"544 1954 OFFCURVE",
"491 1943 OFFCURVE",
"460 1929 CURVE"
);
},
{
closed = 1;
nodes = (
"1162 838 LINE SMOOTH",
"1162 1237 OFFCURVE",
"961 1473 OFFCURVE",
"633 1473 CURVE SMOOTH",
"305 1473 OFFCURVE",
"104 1237 OFFCURVE",
"104 838 CURVE SMOOTH",
"104 605 LINE SMOOTH",
"104 206 OFFCURVE",
"305 -30 OFFCURVE",
"633 -30 CURVE SMOOTH",
"961 -30 OFFCURVE",
"1162 206 OFFCURVE",
"1162 605 CURVE SMOOTH"
);
},
{
closed = 1;
nodes = (
"414 137 OFFCURVE",
"282 305 OFFCURVE",
"282 606 CURVE SMOOTH",
"282 837 LINE SMOOTH",
"282 1138 OFFCURVE",
"414 1306 OFFCURVE",
"633 1306 CURVE SMOOTH",
"852 1306 OFFCURVE",
"984 1138 OFFCURVE",
"984 837 CURVE SMOOTH",
"984 606 LINE SMOOTH",
"984 305 OFFCURVE",
"852 137 OFFCURVE",
"633 137 CURVE SMOOTH"
);
}
);
width = 1266;
}
);
note = Ohookabove;
unicode = 1ECE;
},
{
glyphname = Ohorn;
layers = (
{
layerId = "2811F81C-6B8F-4884-92F2-C07A91FF888C";
paths = (
{
closed = 1;
nodes = (
"963 -30 OFFCURVE",
"1162 209 OFFCURVE",
"1162 605 CURVE SMOOTH",
"1162 838 LINE SMOOTH",
"1162 1054 OFFCURVE",
"1099 1220 OFFCURVE",
"993 1296 CURVE",
"993 1307 LINE",
"1063 1307 LINE SMOOTH",
"1195 1307 OFFCURVE",
"1268 1372 OFFCURVE",
"1268 1489 CURVE SMOOTH",
"1268 1676 LINE",
"1121 1676 LINE",
"1121 1537 LINE SMOOTH",
"1121 1461 OFFCURVE",
"1086 1434 OFFCURVE",
"986 1434 CURVE SMOOTH",
"841 1434 OFFCURVE",
"765 1473 OFFCURVE",
"633 1473 CURVE SMOOTH",
"303 1473 OFFCURVE",
"104 1234 OFFCURVE",
"104 838 CURVE SMOOTH",
"104 605 LINE SMOOTH",
"104 209 OFFCURVE",
"303 -30 OFFCURVE",
"633 -30 CURVE SMOOTH"
);
},
{
closed = 1;
nodes = (
"411 137 OFFCURVE",
"282 308 OFFCURVE",
"282 606 CURVE SMOOTH",
"282 837 LINE SMOOTH",
"282 1135 OFFCURVE",
"411 1306 OFFCURVE",
"633 1306 CURVE SMOOTH",
"855 1306 OFFCURVE",
"984 1135 OFFCURVE",
"984 837 CURVE SMOOTH",
"984 606 LINE SMOOTH",
"984 308 OFFCURVE",
"855 137 OFFCURVE",
"633 137 CURVE SMOOTH"
);
}
);
width = 1266;
}
);
note = Ohorn;
unicode = 01A0;
},
{
glyphname = Ohornacute;
layers = (
{
layerId = "2811F81C-6B8F-4884-92F2-C07A91FF888C";
paths = (
{
closed = 1;
nodes = (
"445 1612 LINE",
"631 1612 LINE",
"953 1916 LINE",
"746 1916 LINE"
);
},
{
closed = 1;
nodes = (
"963 -30 OFFCURVE",
"1162 209 OFFCURVE",
"1162 605 CURVE SMOOTH",
"1162 838 LINE SMOOTH",
"1162 1054 OFFCURVE",
"1099 1220 OFFCURVE",
"993 1296 CURVE",
"993 1307 LINE",
"1063 1307 LINE SMOOTH",
"1195 1307 OFFCURVE",
"1268 1372 OFFCURVE",
"1268 1489 CURVE SMOOTH",
"1268 1676 LINE",
"1121 1676 LINE",
"1121 1537 LINE SMOOTH",
"1121 1461 OFFCURVE",
"1086 1434 OFFCURVE",
"986 1434 CURVE SMOOTH",
"841 1434 OFFCURVE",
"765 1473 OFFCURVE",
"633 1473 CURVE SMOOTH",
"303 1473 OFFCURVE",
"104 1234 OFFCURVE",
"104 838 CURVE SMOOTH",
"104 605 LINE SMOOTH",
"104 209 OFFCURVE",
"303 -30 OFFCURVE",
"633 -30 CURVE SMOOTH"
);
},
{
closed = 1;
nodes = (
"411 137 OFFCURVE",
"282 308 OFFCURVE",
"282 606 CURVE SMOOTH",
"282 837 LINE SMOOTH",
"282 1135 OFFCURVE",
"411 1306 OFFCURVE",
"633 1306 CURVE SMOOTH",
"855 1306 OFFCURVE",
"984 1135 OFFCURVE",
"984 837 CURVE SMOOTH",
"984 606 LINE SMOOTH",
"984 308 OFFCURVE",
"855 137 OFFCURVE",
"633 137 CURVE SMOOTH"
);
}
);
width = 1266;
}
);
note = Ohornacute;
unicode = 1EDA;
},
{
glyphname = Ohorndotbelow;
layers = (
{
layerId = "2811F81C-6B8F-4884-92F2-C07A91FF888C";
paths = (
{
closed = 1;
nodes = (
"963 -30 OFFCURVE",
"1162 209 OFFCURVE",
"1162 605 CURVE SMOOTH",
"1162 838 LINE SMOOTH",
"1162 1054 OFFCURVE",
"1099 1220 OFFCURVE",
"993 1296 CURVE",
"993 1307 LINE",
"1063 1307 LINE SMOOTH",
"1195 1307 OFFCURVE",
"1268 1372 OFFCURVE",
"1268 1489 CURVE SMOOTH",
"1268 1676 LINE",
"1121 1676 LINE",
"1121 1537 LINE SMOOTH",
"1121 1461 OFFCURVE",
"1086 1434 OFFCURVE",
"986 1434 CURVE SMOOTH",
"841 1434 OFFCURVE",
"765 1473 OFFCURVE",
"633 1473 CURVE SMOOTH",
"303 1473 OFFCURVE",
"104 1234 OFFCURVE",
"104 838 CURVE SMOOTH",
"104 605 LINE SMOOTH",
"104 209 OFFCURVE",
"303 -30 OFFCURVE",
"633 -30 CURVE SMOOTH"
);
},
{
closed = 1;
nodes = (
"411 137 OFFCURVE",
"282 308 OFFCURVE",
"282 606 CURVE SMOOTH",
"282 837 LINE SMOOTH",
"282 1135 OFFCURVE",
"411 1306 OFFCURVE",
"633 1306 CURVE SMOOTH",
"855 1306 OFFCURVE",
"984 1135 OFFCURVE",
"984 837 CURVE SMOOTH",
"984 606 LINE SMOOTH",
"984 308 OFFCURVE",
"855 137 OFFCURVE",
"633 137 CURVE SMOOTH"
);
},
{
closed = 1;
nodes = (
"701 -451 OFFCURVE",
"759 -393 OFFCURVE",
"759 -323 CURVE SMOOTH",
"759 -253 OFFCURVE",
"701 -194 OFFCURVE",
"633 -194 CURVE SMOOTH",
"565 -194 OFFCURVE",
"507 -253 OFFCURVE",
"507 -323 CURVE SMOOTH",
"507 -393 OFFCURVE",
"565 -451 OFFCURVE",
"633 -451 CURVE SMOOTH"
);
}
);
width = 1266;
}
);
note = Ohorndotbelow;
unicode = 1EE2;
},
{
glyphname = Ohorngrave;
layers = (
{
layerId = "2811F81C-6B8F-4884-92F2-C07A91FF888C";
paths = (
{
closed = 1;
nodes = (
"781 1612 LINE",
"480 1916 LINE",
"273 1916 LINE",
"595 1612 LINE"
);
},
{
closed = 1;
nodes = (
"963 -30 OFFCURVE",
"1162 209 OFFCURVE",
"1162 605 CURVE SMOOTH",
"1162 838 LINE SMOOTH",
"1162 1054 OFFCURVE",
"1099 1220 OFFCURVE",
"993 1296 CURVE",
"993 1307 LINE",
"1063 1307 LINE SMOOTH",
"1195 1307 OFFCURVE",
"1268 1372 OFFCURVE",
"1268 1489 CURVE SMOOTH",
"1268 1676 LINE",
"1121 1676 LINE",
"1121 1537 LINE SMOOTH",
"1121 1461 OFFCURVE",
"1086 1434 OFFCURVE",
"986 1434 CURVE SMOOTH",
"841 1434 OFFCURVE",
"765 1473 OFFCURVE",
"633 1473 CURVE SMOOTH",
"303 1473 OFFCURVE",
"104 1234 OFFCURVE",
"104 838 CURVE SMOOTH",
"104 605 LINE SMOOTH",
"104 209 OFFCURVE",
"303 -30 OFFCURVE",
"633 -30 CURVE SMOOTH"
);
},
{
closed = 1;
nodes = (
"411 137 OFFCURVE",
"282 308 OFFCURVE",
"282 606 CURVE SMOOTH",
"282 837 LINE SMOOTH",
"282 1135 OFFCURVE",
"411 1306 OFFCURVE",
"633 1306 CURVE SMOOTH",
"855 1306 OFFCURVE",
"984 1135 OFFCURVE",
"984 837 CURVE SMOOTH",
"984 606 LINE SMOOTH",
"984 308 OFFCURVE",
"855 137 OFFCURVE",
"633 137 CURVE SMOOTH"
);
}
);
width = 1266;
}
);
note = Ohorngrave;
unicode = 1EDC;
},
{
glyphname = Ohornhookabove;
layers = (
{
layerId = "2811F81C-6B8F-4884-92F2-C07A91FF888C";
paths = (
{
closed = 1;
nodes = (
"460 1816 LINE",
"485 1829 OFFCURVE",
"527 1838 OFFCURVE",
"570 1838 CURVE SMOOTH",
"633 1838 OFFCURVE",
"673 1807 OFFCURVE",
"673 1763 CURVE SMOOTH",
"673 1720 OFFCURVE",
"632 1678 OFFCURVE",
"572 1657 CURVE",
"639 1571 LINE",
"738 1609 OFFCURVE",
"802 1688 OFFCURVE",
"802 1777 CURVE SMOOTH",
"802 1886 OFFCURVE",
"719 1954 OFFCURVE",
"593 1954 CURVE SMOOTH",
"544 1954 OFFCURVE",
"491 1943 OFFCURVE",
"460 1929 CURVE"
);
},
{
closed = 1;
nodes = (
"963 -30 OFFCURVE",
"1162 209 OFFCURVE",
"1162 605 CURVE SMOOTH",
"1162 838 LINE SMOOTH",
"1162 1054 OFFCURVE",
"1099 1220 OFFCURVE",
"993 1296 CURVE",
"993 1307 LINE",
"1063 1307 LINE SMOOTH",
"1195 1307 OFFCURVE",
"1268 1372 OFFCURVE",
"1268 1489 CURVE SMOOTH",
"1268 1676 LINE",
"1121 1676 LINE",
"1121 1537 LINE SMOOTH",
"1121 1461 OFFCURVE",
"1086 1434 OFFCURVE",
"986 1434 CURVE SMOOTH",
"841 1434 OFFCURVE",
"765 1473 OFFCURVE",
"633 1473 CURVE SMOOTH",
"303 1473 OFFCURVE",
"104 1234 OFFCURVE",
"104 838 CURVE SMOOTH",
"104 605 LINE SMOOTH",
"104 209 OFFCURVE",
"303 -30 OFFCURVE",
"633 -30 CURVE SMOOTH"
);
},
{
closed = 1;
nodes = (
"411 137 OFFCURVE",
"282 308 OFFCURVE",
"282 606 CURVE SMOOTH",
"282 837 LINE SMOOTH",
"282 1135 OFFCURVE",
"411 1306 OFFCURVE",
"633 1306 CURVE SMOOTH",
"855 1306 OFFCURVE",
"984 1135 OFFCURVE",
"984 837 CURVE SMOOTH",
"984 606 LINE SMOOTH",
"984 308 OFFCURVE",
"855 137 OFFCURVE",
"633 137 CURVE SMOOTH"
);
}
);
width = 1266;
}
);
note = Ohornhookabove;
unicode = 1EDE;
},
{
glyphname = Ohorntilde;
layers = (
{
layerId = "2811F81C-6B8F-4884-92F2-C07A91FF888C";
paths = (
{
closed = 1;
nodes = (
"908 1620 OFFCURVE",
"995 1724 OFFCURVE",
"995 1888 CURVE",
"872 1888 LINE",
"868 1793 OFFCURVE",
"831 1743 OFFCURVE",
"773 1743 CURVE SMOOTH",
"681 1743 OFFCURVE",
"648 1900 OFFCURVE",
"485 1900 CURVE SMOOTH",
"356 1900 OFFCURVE",
"271 1798 OFFCURVE",
"271 1630 CURVE",
"395 1630 LINE",
"398 1728 OFFCURVE",
"433 1776 OFFCURVE",
"493 1776 CURVE SMOOTH",
"597 1776 OFFCURVE",
"625 1620 OFFCURVE",
"781 1620 CURVE SMOOTH"
);
},
{
closed = 1;
nodes = (
"963 -30 OFFCURVE",
"1162 209 OFFCURVE",
"1162 605 CURVE SMOOTH",
"1162 838 LINE SMOOTH",
"1162 1054 OFFCURVE",
"1099 1220 OFFCURVE",
"993 1296 CURVE",
"993 1307 LINE",
"1063 1307 LINE SMOOTH",
"1195 1307 OFFCURVE",
"1268 1372 OFFCURVE",
"1268 1489 CURVE SMOOTH",
"1268 1676 LINE",
"1121 1676 LINE",
"1121 1537 LINE SMOOTH",
"1121 1461 OFFCURVE",
"1086 1434 OFFCURVE",
"986 1434 CURVE SMOOTH",
"841 1434 OFFCURVE",
"765 1473 OFFCURVE",
"633 1473 CURVE SMOOTH",
"303 1473 OFFCURVE",
"104 1234 OFFCURVE",
"104 838 CURVE SMOOTH",
"104 605 LINE SMOOTH",
"104 209 OFFCURVE",
"303 -30 OFFCURVE",
"633 -30 CURVE SMOOTH"
);
},
{
closed = 1;
nodes = (
"411 137 OFFCURVE",
"282 308 OFFCURVE",
"282 606 CURVE SMOOTH",
"282 837 LINE SMOOTH",
"282 1135 OFFCURVE",
"411 1306 OFFCURVE",
"633 1306 CURVE SMOOTH",
"855 1306 OFFCURVE",
"984 1135 OFFCURVE",
"984 837 CURVE SMOOTH",
"984 606 LINE SMOOTH",
"984 308 OFFCURVE",
"855 137 OFFCURVE",
"633 137 CURVE SMOOTH"
);
}
);
width = 1266;
}
);
note = Ohorntilde;
unicode = 1EE0;
},
{
glyphname = Ohungarumlaut;
layers = (
{
layerId = "2811F81C-6B8F-4884-92F2-C07A91FF888C";
paths = (
{
closed = 1;
nodes = (
"672 1612 LINE",
"848 1612 LINE",
"1161 1916 LINE",
"966 1916 LINE"
);
},
{
closed = 1;
nodes = (
"293 1612 LINE",
"469 1612 LINE",
"782 1916 LINE",
"587 1916 LINE"
);
},
{
closed = 1;
nodes = (
"1162 838 LINE SMOOTH",
"1162 1237 OFFCURVE",
"961 1473 OFFCURVE",
"633 1473 CURVE SMOOTH",
"305 1473 OFFCURVE",
"104 1237 OFFCURVE",
"104 838 CURVE SMOOTH",
"104 605 LINE SMOOTH",
"104 206 OFFCURVE",
"305 -30 OFFCURVE",
"633 -30 CURVE SMOOTH",
"961 -30 OFFCURVE",
"1162 206 OFFCURVE",
"1162 605 CURVE SMOOTH"
);
},
{
closed = 1;
nodes = (
"414 137 OFFCURVE",
"282 305 OFFCURVE",
"282 606 CURVE SMOOTH",
"282 837 LINE SMOOTH",
"282 1138 OFFCURVE",
"414 1306 OFFCURVE",
"633 1306 CURVE SMOOTH",
"852 1306 OFFCURVE",
"984 1138 OFFCURVE",
"984 837 CURVE SMOOTH",
"984 606 LINE SMOOTH",
"984 305 OFFCURVE",
"852 137 OFFCURVE",
"633 137 CURVE SMOOTH"
);
}
);
width = 1266;
}
);
note = Ohungarumlaut;
unicode = 0150;
},
{
glyphname = Oinvertedbreve;
layers = (
{
layerId = "2811F81C-6B8F-4884-92F2-C07A91FF888C";
paths = (
{
closed = 1;
nodes = (
"426 1609 LINE",
"427 1720 OFFCURVE",
"512 1799 OFFCURVE",
"633 1799 CURVE SMOOTH",
"754 1799 OFFCURVE",
"839 1720 OFFCURVE",
"840 1609 CURVE",
"978 1609 LINE",
"978 1791 OFFCURVE",
"838 1918 OFFCURVE",
"633 1918 CURVE SMOOTH",
"428 1918 OFFCURVE",
"288 1791 OFFCURVE",
"288 1609 CURVE"
);
},
{
closed = 1;
nodes = (
"1162 838 LINE SMOOTH",
"1162 1237 OFFCURVE",
"961 1473 OFFCURVE",
"633 1473 CURVE SMOOTH",
"305 1473 OFFCURVE",
"104 1237 OFFCURVE",
"104 838 CURVE SMOOTH",
"104 605 LINE SMOOTH",
"104 206 OFFCURVE",
"305 -30 OFFCURVE",
"633 -30 CURVE SMOOTH",
"961 -30 OFFCURVE",
"1162 206 OFFCURVE",
"1162 605 CURVE SMOOTH"
);
},
{
closed = 1;
nodes = (
"414 137 OFFCURVE",
"282 305 OFFCURVE",
"282 606 CURVE SMOOTH",
"282 837 LINE SMOOTH",
"282 1138 OFFCURVE",
"414 1306 OFFCURVE",
"633 1306 CURVE SMOOTH",
"852 1306 OFFCURVE",
"984 1138 OFFCURVE",
"984 837 CURVE SMOOTH",
"984 606 LINE SMOOTH",
"984 305 OFFCURVE",
"852 137 OFFCURVE",
"633 137 CURVE SMOOTH"
);
}
);
width = 1266;
}
);
note = Oinvertedbreve;
unicode = 020E;
},
{
glyphname = Omacron;
layers = (
{
layerId = "2811F81C-6B8F-4884-92F2-C07A91FF888C";
paths = (
{
closed = 1;
nodes = (
"963 1696 LINE",
"963 1835 LINE",
"303 1835 LINE",
"303 1696 LINE"
);
},
{
closed = 1;
nodes = (
"1162 838 LINE SMOOTH",
"1162 1237 OFFCURVE",
"961 1473 OFFCURVE",
"633 1473 CURVE SMOOTH",
"305 1473 OFFCURVE",
"104 1237 OFFCURVE",
"104 838 CURVE SMOOTH",
"104 605 LINE SMOOTH",
"104 206 OFFCURVE",
"305 -30 OFFCURVE",
"633 -30 CURVE SMOOTH",
"961 -30 OFFCURVE",
"1162 206 OFFCURVE",
"1162 605 CURVE SMOOTH"
);
},
{
closed = 1;
nodes = (
"414 137 OFFCURVE",
"282 305 OFFCURVE",
"282 606 CURVE SMOOTH",
"282 837 LINE SMOOTH",
"282 1138 OFFCURVE",
"414 1306 OFFCURVE",
"633 1306 CURVE SMOOTH",
"852 1306 OFFCURVE",
"984 1138 OFFCURVE",
"984 837 CURVE SMOOTH",
"984 606 LINE SMOOTH",
"984 305 OFFCURVE",
"852 137 OFFCURVE",
"633 137 CURVE SMOOTH"
);
}
);
width = 1266;
}
);
note = Omacron;
unicode = 014C;
},
{
glyphname = Omacronacute;
layers = (
{
layerId = "2811F81C-6B8F-4884-92F2-C07A91FF888C";
paths = (
{
closed = 1;
nodes = (
"505 1851 LINE",
"679 1851 LINE",
"907 2082 LINE",
"712 2082 LINE"
);
},
{
closed = 1;
nodes = (
"301 1614 LINE",
"964 1614 LINE",
"964 1734 LINE",
"301 1734 LINE"
);
},
{
closed = 1;
nodes = (
"1162 838 LINE SMOOTH",
"1162 1237 OFFCURVE",
"961 1473 OFFCURVE",
"633 1473 CURVE SMOOTH",
"305 1473 OFFCURVE",
"104 1237 OFFCURVE",
"104 838 CURVE SMOOTH",
"104 605 LINE SMOOTH",
"104 206 OFFCURVE",
"305 -30 OFFCURVE",
"633 -30 CURVE SMOOTH",
"961 -30 OFFCURVE",
"1162 206 OFFCURVE",
"1162 605 CURVE SMOOTH"
);
},
{
closed = 1;
nodes = (
"414 137 OFFCURVE",
"282 305 OFFCURVE",
"282 606 CURVE SMOOTH",
"282 837 LINE SMOOTH",
"282 1138 OFFCURVE",
"414 1306 OFFCURVE",
"633 1306 CURVE SMOOTH",
"852 1306 OFFCURVE",
"984 1138 OFFCURVE",
"984 837 CURVE SMOOTH",
"984 606 LINE SMOOTH",
"984 305 OFFCURVE",
"852 137 OFFCURVE",
"633 137 CURVE SMOOTH"
);
}
);
width = 1266;
}
);
note = Omacronacute;
unicode = 1E52;
},
{
glyphname = Omacrongrave;
layers = (
{
layerId = "2811F81C-6B8F-4884-92F2-C07A91FF888C";
paths = (
{
closed = 1;
nodes = (
"759 1852 LINE",
"552 2083 LINE",
"357 2083 LINE",
"586 1852 LINE"
);
},
{
closed = 1;
nodes = (
"964 1615 LINE",
"964 1735 LINE",
"301 1735 LINE",
"301 1615 LINE"
);
},
{
closed = 1;
nodes = (
"1162 838 LINE SMOOTH",
"1162 1237 OFFCURVE",
"961 1473 OFFCURVE",
"633 1473 CURVE SMOOTH",
"305 1473 OFFCURVE",
"104 1237 OFFCURVE",
"104 838 CURVE SMOOTH",
"104 605 LINE SMOOTH",
"104 206 OFFCURVE",
"305 -30 OFFCURVE",
"633 -30 CURVE SMOOTH",
"961 -30 OFFCURVE",
"1162 206 OFFCURVE",
"1162 605 CURVE SMOOTH"
);
},
{
closed = 1;
nodes = (
"414 137 OFFCURVE",
"282 305 OFFCURVE",
"282 606 CURVE SMOOTH",
"282 837 LINE SMOOTH",
"282 1138 OFFCURVE",
"414 1306 OFFCURVE",
"633 1306 CURVE SMOOTH",
"852 1306 OFFCURVE",
"984 1138 OFFCURVE",
"984 837 CURVE SMOOTH",
"984 606 LINE SMOOTH",
"984 305 OFFCURVE",
"852 137 OFFCURVE",
"633 137 CURVE SMOOTH"
);
}
);
width = 1266;
}
);
note = Omacrongrave;
unicode = 1E50;
},
{
glyphname = Oogonek;
layers = (
{
layerId = "2811F81C-6B8F-4884-92F2-C07A91FF888C";
paths = (
{
closed = 1;
nodes = (
"868 -428 OFFCURVE",
"908 -421 OFFCURVE",
"935 -411 CURVE",
"935 -291 LINE",
"919 -296 OFFCURVE",
"895 -298 OFFCURVE",
"866 -298 CURVE SMOOTH",
"795 -298 OFFCURVE",
"744 -255 OFFCURVE",
"744 -191 CURVE SMOOTH",
"744 -114 OFFCURVE",
"782 -64 OFFCURVE",
"928 48 CURVE SMOOTH",
"1095 179 OFFCURVE",
"1162 340 OFFCURVE",
"1162 605 CURVE SMOOTH",
"1162 838 LINE SMOOTH",
"1162 1233 OFFCURVE",
"964 1473 OFFCURVE",
"633 1473 CURVE SMOOTH",
"302 1473 OFFCURVE",
"104 1233 OFFCURVE",
"104 838 CURVE SMOOTH",
"104 605 LINE SMOOTH",
"104 220 OFFCURVE",
"298 -26 OFFCURVE",
"604 -26 CURVE SMOOTH",
"655 -26 OFFCURVE",
"705 -16 OFFCURVE",
"734 0 CURVE",
"734 -15 LINE",
"637 -79 OFFCURVE",
"594 -144 OFFCURVE",
"594 -231 CURVE SMOOTH",
"594 -347 OFFCURVE",
"691 -428 OFFCURVE",
"828 -428 CURVE SMOOTH"
);
},
{
closed = 1;
nodes = (
"411 137 OFFCURVE",
"282 309 OFFCURVE",
"282 606 CURVE SMOOTH",
"282 837 LINE SMOOTH",
"282 1134 OFFCURVE",
"411 1306 OFFCURVE",
"633 1306 CURVE SMOOTH",
"855 1306 OFFCURVE",
"984 1134 OFFCURVE",
"984 837 CURVE SMOOTH",
"984 606 LINE SMOOTH",
"984 309 OFFCURVE",
"855 137 OFFCURVE",
"633 137 CURVE SMOOTH"
);
}
);
width = 1266;
}
);
note = Oogonek;
unicode = 01EA;
},
{
glyphname = Oogonekmacron;
layers = (
{
layerId = "2811F81C-6B8F-4884-92F2-C07A91FF888C";
paths = (
{
closed = 1;
nodes = (
"963 1696 LINE",
"963 1835 LINE",
"303 1835 LINE",
"303 1696 LINE"
);
},
{
closed = 1;
nodes = (
"868 -428 OFFCURVE",
"908 -421 OFFCURVE",
"935 -411 CURVE",
"935 -291 LINE",
"919 -296 OFFCURVE",
"895 -298 OFFCURVE",
"866 -298 CURVE SMOOTH",
"795 -298 OFFCURVE",
"744 -255 OFFCURVE",
"744 -191 CURVE SMOOTH",
"744 -114 OFFCURVE",
"782 -64 OFFCURVE",
"928 48 CURVE SMOOTH",
"1095 179 OFFCURVE",
"1162 340 OFFCURVE",
"1162 605 CURVE SMOOTH",
"1162 838 LINE SMOOTH",
"1162 1233 OFFCURVE",
"964 1473 OFFCURVE",
"633 1473 CURVE SMOOTH",
"302 1473 OFFCURVE",
"104 1233 OFFCURVE",
"104 838 CURVE SMOOTH",
"104 605 LINE SMOOTH",
"104 220 OFFCURVE",
"298 -26 OFFCURVE",
"604 -26 CURVE SMOOTH",
"655 -26 OFFCURVE",
"705 -16 OFFCURVE",
"734 0 CURVE",
"734 -15 LINE",
"637 -79 OFFCURVE",
"594 -144 OFFCURVE",
"594 -231 CURVE SMOOTH",
"594 -347 OFFCURVE",
"691 -428 OFFCURVE",
"828 -428 CURVE SMOOTH"
);
},
{
closed = 1;
nodes = (
"411 137 OFFCURVE",
"282 309 OFFCURVE",
"282 606 CURVE SMOOTH",
"282 837 LINE SMOOTH",
"282 1134 OFFCURVE",
"411 1306 OFFCURVE",
"633 1306 CURVE SMOOTH",
"855 1306 OFFCURVE",
"984 1134 OFFCURVE",
"984 837 CURVE SMOOTH",
"984 606 LINE SMOOTH",
"984 309 OFFCURVE",
"855 137 OFFCURVE",
"633 137 CURVE SMOOTH"
);
}
);
width = 1266;
}
);
note = Oogonekmacron;
unicode = 01EC;
},
{
glyphname = Oslash;
layers = (
{
layerId = "2811F81C-6B8F-4884-92F2-C07A91FF888C";
paths = (
{
closed = 1;
nodes = (
"92 0 LINE",
"224 0 LINE",
"287 95 LINE",
"375 14 OFFCURVE",
"492 -30 OFFCURVE",
"633 -30 CURVE SMOOTH",
"961 -30 OFFCURVE",
"1162 206 OFFCURVE",
"1162 605 CURVE SMOOTH",
"1162 838 LINE SMOOTH",
"1162 1013 OFFCURVE",
"1123 1156 OFFCURVE",
"1053 1262 CURVE",
"1172 1443 LINE",
"1039 1443 LINE",
"978 1350 LINE",
"890 1430 OFFCURVE",
"773 1473 OFFCURVE",
"633 1473 CURVE SMOOTH",
"305 1473 OFFCURVE",
"104 1237 OFFCURVE",
"104 838 CURVE SMOOTH",
"104 605 LINE SMOOTH",
"104 432 OFFCURVE",
"142 289 OFFCURVE",
"212 183 CURVE"
);
},
{
closed = 1;
nodes = (
"282 837 LINE SMOOTH",
"282 1138 OFFCURVE",
"414 1306 OFFCURVE",
"633 1306 CURVE SMOOTH",
"736 1306 OFFCURVE",
"819 1269 OFFCURVE",
"879 1199 CURVE",
"323 353 LINE",
"297 422 OFFCURVE",
"282 507 OFFCURVE",
"282 606 CURVE SMOOTH"
);
},
{
closed = 1;
nodes = (
"529 137 OFFCURVE",
"445 174 OFFCURVE",
"386 246 CURVE",
"942 1092 LINE",
"969 1023 OFFCURVE",
"984 937 OFFCURVE",
"984 837 CURVE SMOOTH",
"984 606 LINE SMOOTH",
"984 305 OFFCURVE",
"852 137 OFFCURVE",
"633 137 CURVE SMOOTH"
);
}
);
width = 1266;
}
);
note = Oslash;
unicode = 00D8;
},
{
glyphname = Oslashacute;
layers = (
{
layerId = "2811F81C-6B8F-4884-92F2-C07A91FF888C";
paths = (
{
closed = 1;
nodes = (
"511 1612 LINE",
"697 1612 LINE",
"1019 1916 LINE",
"812 1916 LINE"
);
},
{
closed = 1;
nodes = (
"92 0 LINE",
"224 0 LINE",
"287 95 LINE",
"375 14 OFFCURVE",
"492 -30 OFFCURVE",
"633 -30 CURVE SMOOTH",
"961 -30 OFFCURVE",
"1162 206 OFFCURVE",
"1162 605 CURVE SMOOTH",
"1162 838 LINE SMOOTH",
"1162 1013 OFFCURVE",
"1123 1156 OFFCURVE",
"1053 1262 CURVE",
"1172 1443 LINE",
"1039 1443 LINE",
"978 1350 LINE",
"890 1430 OFFCURVE",
"773 1473 OFFCURVE",
"633 1473 CURVE SMOOTH",
"305 1473 OFFCURVE",
"104 1237 OFFCURVE",
"104 838 CURVE SMOOTH",
"104 605 LINE SMOOTH",
"104 432 OFFCURVE",
"142 289 OFFCURVE",
"212 183 CURVE"
);
},
{
closed = 1;
nodes = (
"282 837 LINE SMOOTH",
"282 1138 OFFCURVE",
"414 1306 OFFCURVE",
"633 1306 CURVE SMOOTH",
"736 1306 OFFCURVE",
"819 1269 OFFCURVE",
"879 1199 CURVE",
"323 353 LINE",
"297 422 OFFCURVE",
"282 507 OFFCURVE",
"282 606 CURVE SMOOTH"
);
},
{
closed = 1;
nodes = (
"529 137 OFFCURVE",
"445 174 OFFCURVE",
"386 246 CURVE",
"942 1092 LINE",
"969 1023 OFFCURVE",
"984 937 OFFCURVE",
"984 837 CURVE SMOOTH",
"984 606 LINE SMOOTH",
"984 305 OFFCURVE",
"852 137 OFFCURVE",
"633 137 CURVE SMOOTH"
);
}
);
width = 1266;
}
);
note = Oslashacute;
unicode = 01FE;
},
{
glyphname = Otilde;
layers = (
{
layerId = "2811F81C-6B8F-4884-92F2-C07A91FF888C";
paths = (
{
closed = 1;
nodes = (
"908 1620 OFFCURVE",
"995 1724 OFFCURVE",
"995 1888 CURVE",
"872 1888 LINE",
"868 1793 OFFCURVE",
"831 1743 OFFCURVE",
"773 1743 CURVE SMOOTH",
"681 1743 OFFCURVE",
"648 1900 OFFCURVE",
"485 1900 CURVE SMOOTH",
"356 1900 OFFCURVE",
"271 1798 OFFCURVE",
"271 1630 CURVE",
"395 1630 LINE",
"398 1728 OFFCURVE",
"433 1776 OFFCURVE",
"493 1776 CURVE SMOOTH",
"597 1776 OFFCURVE",
"625 1620 OFFCURVE",
"781 1620 CURVE SMOOTH"
);
},
{
closed = 1;
nodes = (
"1162 838 LINE SMOOTH",
"1162 1237 OFFCURVE",
"961 1473 OFFCURVE",
"633 1473 CURVE SMOOTH",
"305 1473 OFFCURVE",
"104 1237 OFFCURVE",
"104 838 CURVE SMOOTH",
"104 605 LINE SMOOTH",
"104 206 OFFCURVE",
"305 -30 OFFCURVE",
"633 -30 CURVE SMOOTH",
"961 -30 OFFCURVE",
"1162 206 OFFCURVE",
"1162 605 CURVE SMOOTH"
);
},
{
closed = 1;
nodes = (
"414 137 OFFCURVE",
"282 305 OFFCURVE",
"282 606 CURVE SMOOTH",
"282 837 LINE SMOOTH",
"282 1138 OFFCURVE",
"414 1306 OFFCURVE",
"633 1306 CURVE SMOOTH",
"852 1306 OFFCURVE",
"984 1138 OFFCURVE",
"984 837 CURVE SMOOTH",
"984 606 LINE SMOOTH",
"984 305 OFFCURVE",
"852 137 OFFCURVE",
"633 137 CURVE SMOOTH"
);
}
);
width = 1266;
}
);
note = Otilde;
unicode = 00D5;
},
{
glyphname = Otildeacute;
layers = (
{
layerId = "2811F81C-6B8F-4884-92F2-C07A91FF888C";
paths = (
{
closed = 1;
nodes = (
"561 1894 LINE",
"715 1894 LINE",
"879 2112 LINE",
"702 2112 LINE"
);
},
{
closed = 1;
nodes = (
"898 1554 OFFCURVE",
"986 1649 OFFCURVE",
"986 1794 CURVE",
"863 1794 LINE",
"859 1716 OFFCURVE",
"824 1676 OFFCURVE",
"769 1676 CURVE SMOOTH",
"665 1676 OFFCURVE",
"659 1807 OFFCURVE",
"492 1807 CURVE SMOOTH",
"366 1807 OFFCURVE",
"280 1715 OFFCURVE",
"280 1568 CURVE",
"404 1568 LINE",
"407 1647 OFFCURVE",
"440 1687 OFFCURVE",
"497 1687 CURVE SMOOTH",
"601 1687 OFFCURVE",
"607 1554 OFFCURVE",
"774 1554 CURVE SMOOTH"
);
},
{
closed = 1;
nodes = (
"1162 838 LINE SMOOTH",
"1162 1237 OFFCURVE",
"961 1473 OFFCURVE",
"633 1473 CURVE SMOOTH",
"305 1473 OFFCURVE",
"104 1237 OFFCURVE",
"104 838 CURVE SMOOTH",
"104 605 LINE SMOOTH",
"104 206 OFFCURVE",
"305 -30 OFFCURVE",
"633 -30 CURVE SMOOTH",
"961 -30 OFFCURVE",
"1162 206 OFFCURVE",
"1162 605 CURVE SMOOTH"
);
},
{
closed = 1;
nodes = (
"414 137 OFFCURVE",
"282 305 OFFCURVE",
"282 606 CURVE SMOOTH",
"282 837 LINE SMOOTH",
"282 1138 OFFCURVE",
"414 1306 OFFCURVE",
"633 1306 CURVE SMOOTH",
"852 1306 OFFCURVE",
"984 1138 OFFCURVE",
"984 837 CURVE SMOOTH",
"984 606 LINE SMOOTH",
"984 305 OFFCURVE",
"852 137 OFFCURVE",
"633 137 CURVE SMOOTH"
);
}
);
width = 1266;
}
);
note = Otildeacute;
unicode = 1E4C;
},
{
glyphname = Otildedieresis;
layers = (
{
layerId = "2811F81C-6B8F-4884-92F2-C07A91FF888C";
paths = (
{
closed = 1;
nodes = (
"496 1884 OFFCURVE",
"542 1930 OFFCURVE",
"542 1989 CURVE SMOOTH",
"542 2048 OFFCURVE",
"496 2095 OFFCURVE",
"439 2095 CURVE SMOOTH",
"381 2095 OFFCURVE",
"336 2048 OFFCURVE",
"336 1989 CURVE SMOOTH",
"336 1930 OFFCURVE",
"381 1884 OFFCURVE",
"439 1884 CURVE SMOOTH"
);
},
{
closed = 1;
nodes = (
"885 1884 OFFCURVE",
"930 1930 OFFCURVE",
"930 1989 CURVE SMOOTH",
"930 2048 OFFCURVE",
"885 2095 OFFCURVE",
"827 2095 CURVE SMOOTH",
"770 2095 OFFCURVE",
"724 2048 OFFCURVE",
"724 1989 CURVE SMOOTH",
"724 1930 OFFCURVE",
"770 1884 OFFCURVE",
"827 1884 CURVE SMOOTH"
);
},
{
closed = 1;
nodes = (
"898 1554 OFFCURVE",
"986 1649 OFFCURVE",
"986 1794 CURVE",
"863 1794 LINE",
"859 1716 OFFCURVE",
"824 1676 OFFCURVE",
"769 1676 CURVE SMOOTH",
"665 1676 OFFCURVE",
"659 1807 OFFCURVE",
"492 1807 CURVE SMOOTH",
"366 1807 OFFCURVE",
"280 1715 OFFCURVE",
"280 1568 CURVE",
"404 1568 LINE",
"407 1647 OFFCURVE",
"440 1687 OFFCURVE",
"497 1687 CURVE SMOOTH",
"601 1687 OFFCURVE",
"607 1554 OFFCURVE",
"774 1554 CURVE SMOOTH"
);
},
{
closed = 1;
nodes = (
"1162 838 LINE SMOOTH",
"1162 1237 OFFCURVE",
"961 1473 OFFCURVE",
"633 1473 CURVE SMOOTH",
"305 1473 OFFCURVE",
"104 1237 OFFCURVE",
"104 838 CURVE SMOOTH",
"104 605 LINE SMOOTH",
"104 206 OFFCURVE",
"305 -30 OFFCURVE",
"633 -30 CURVE SMOOTH",
"961 -30 OFFCURVE",
"1162 206 OFFCURVE",
"1162 605 CURVE SMOOTH"
);
},
{
closed = 1;
nodes = (
"414 137 OFFCURVE",
"282 305 OFFCURVE",
"282 606 CURVE SMOOTH",
"282 837 LINE SMOOTH",
"282 1138 OFFCURVE",
"414 1306 OFFCURVE",
"633 1306 CURVE SMOOTH",
"852 1306 OFFCURVE",
"984 1138 OFFCURVE",
"984 837 CURVE SMOOTH",
"984 606 LINE SMOOTH",
"984 305 OFFCURVE",
"852 137 OFFCURVE",
"633 137 CURVE SMOOTH"
);
}
);
width = 1266;
}
);
note = Otildedieresis;
unicode = 1E4E;
},
{
glyphname = Otildemacron;
layers = (
{
layerId = "2811F81C-6B8F-4884-92F2-C07A91FF888C";
paths = (
{
closed = 1;
nodes = (
"965 1935 LINE",
"965 2055 LINE",
"301 2055 LINE",
"301 1935 LINE"
);
},
{
closed = 1;
nodes = (
"898 1554 OFFCURVE",
"986 1649 OFFCURVE",
"986 1794 CURVE",
"863 1794 LINE",
"859 1716 OFFCURVE",
"824 1676 OFFCURVE",
"769 1676 CURVE SMOOTH",
"665 1676 OFFCURVE",
"659 1807 OFFCURVE",
"492 1807 CURVE SMOOTH",
"366 1807 OFFCURVE",
"280 1715 OFFCURVE",
"280 1568 CURVE",
"404 1568 LINE",
"407 1647 OFFCURVE",
"440 1687 OFFCURVE",
"497 1687 CURVE SMOOTH",
"601 1687 OFFCURVE",
"607 1554 OFFCURVE",
"774 1554 CURVE SMOOTH"
);
},
{
closed = 1;
nodes = (
"1162 838 LINE SMOOTH",
"1162 1237 OFFCURVE",
"961 1473 OFFCURVE",
"633 1473 CURVE SMOOTH",
"305 1473 OFFCURVE",
"104 1237 OFFCURVE",
"104 838 CURVE SMOOTH",
"104 605 LINE SMOOTH",
"104 206 OFFCURVE",
"305 -30 OFFCURVE",
"633 -30 CURVE SMOOTH",
"961 -30 OFFCURVE",
"1162 206 OFFCURVE",
"1162 605 CURVE SMOOTH"
);
},
{
closed = 1;
nodes = (
"414 137 OFFCURVE",
"282 305 OFFCURVE",
"282 606 CURVE SMOOTH",
"282 837 LINE SMOOTH",
"282 1138 OFFCURVE",
"414 1306 OFFCURVE",
"633 1306 CURVE SMOOTH",
"852 1306 OFFCURVE",
"984 1138 OFFCURVE",
"984 837 CURVE SMOOTH",
"984 606 LINE SMOOTH",
"984 305 OFFCURVE",
"852 137 OFFCURVE",
"633 137 CURVE SMOOTH"
);
}
);
width = 1266;
}
);
note = Otildemacron;
unicode = 022C;
},
{
glyphname = OE;
layers = (
{
layerId = "2811F81C-6B8F-4884-92F2-C07A91FF888C";
paths = (
{
closed = 1;
nodes = (
"689 205 LINE",
"689 0 LINE",
"1257 0 LINE",
"1257 161 LINE",
"834 161 LINE",
"834 657 LINE",
"1222 657 LINE",
"1222 816 LINE",
"834 816 LINE",
"834 1281 LINE",
"1257 1281 LINE",
"1257 1443 LINE",
"689 1443 LINE",
"689 1236 LINE",
"674 1236 LINE",
"633 1398 OFFCURVE",
"539 1477 OFFCURVE",
"386 1477 CURVE SMOOTH",
"139 1477 OFFCURVE",
"21 1269 OFFCURVE",
"21 833 CURVE SMOOTH",
"21 611 LINE SMOOTH",
"21 174 OFFCURVE",
"139 -33 OFFCURVE",
"386 -33 CURVE SMOOTH",
"541 -33 OFFCURVE",
"635 45 OFFCURVE",
"674 205 CURVE"
);
},
{
closed = 1;
nodes = (
"194 822 LINE SMOOTH",
"194 1165 OFFCURVE",
"262 1307 OFFCURVE",
"427 1307 CURVE SMOOTH",
"590 1307 OFFCURVE",
"664 1149 OFFCURVE",
"664 798 CURVE SMOOTH",
"664 645 LINE SMOOTH",
"664 295 OFFCURVE",
"590 137 OFFCURVE",
"427 137 CURVE SMOOTH",
"262 137 OFFCURVE",
"194 279 OFFCURVE",
"194 621 CURVE SMOOTH"
);
}
);
width = 1266;
}
);
note = OE;
unicode = 0152;
},
{
glyphname = P;
layers = (
{
layerId = "2811F81C-6B8F-4884-92F2-C07A91FF888C";
paths = (
{
closed = 1;
nodes = (
"198 1443 LINE",
"198 0 LINE",
"375 0 LINE",
"375 518 LINE",
"674 518 LINE SMOOTH",
"956 518 OFFCURVE",
"1141 701 OFFCURVE",
"1141 980 CURVE SMOOTH",
"1141 1260 OFFCURVE",
"958 1443 OFFCURVE",
"678 1443 CURVE SMOOTH"
);
},
{
closed = 1;
nodes = (
"375 1286 LINE",
"634 1286 LINE SMOOTH",
"844 1286 OFFCURVE",
"962 1177 OFFCURVE",
"962 980 CURVE SMOOTH",
"962 784 OFFCURVE",
"844 675 OFFCURVE",
"634 675 CURVE SMOOTH",
"375 675 LINE"
);
}
);
width = 1266;
}
);
note = P;
unicode = 0050;
},
{
glyphname = Pacute;
layers = (
{
layerId = "2811F81C-6B8F-4884-92F2-C07A91FF888C";
paths = (
{
closed = 1;
nodes = (
"468 1612 LINE",
"654 1612 LINE",
"976 1916 LINE",
"769 1916 LINE"
);
},
{
closed = 1;
nodes = (
"198 1443 LINE",
"198 0 LINE",
"375 0 LINE",
"375 518 LINE",
"674 518 LINE SMOOTH",
"956 518 OFFCURVE",
"1141 701 OFFCURVE",
"1141 980 CURVE SMOOTH",
"1141 1260 OFFCURVE",
"958 1443 OFFCURVE",
"678 1443 CURVE SMOOTH"
);
},
{
closed = 1;
nodes = (
"375 1286 LINE",
"634 1286 LINE SMOOTH",
"844 1286 OFFCURVE",
"962 1177 OFFCURVE",
"962 980 CURVE SMOOTH",
"962 784 OFFCURVE",
"844 675 OFFCURVE",
"634 675 CURVE SMOOTH",
"375 675 LINE"
);
}
);
width = 1266;
}
);
note = Pacute;
unicode = 1E54;
},
{
glyphname = Pdotaccent;
layers = (
{
layerId = "2811F81C-6B8F-4884-92F2-C07A91FF888C";
paths = (
{
closed = 1;
nodes = (
"652 1640 OFFCURVE",
"710 1699 OFFCURVE",
"710 1769 CURVE SMOOTH",
"710 1839 OFFCURVE",
"652 1897 OFFCURVE",
"584 1897 CURVE SMOOTH",
"516 1897 OFFCURVE",
"458 1839 OFFCURVE",
"458 1769 CURVE SMOOTH",
"458 1699 OFFCURVE",
"516 1640 OFFCURVE",
"584 1640 CURVE SMOOTH"
);
},
{
closed = 1;
nodes = (
"198 1443 LINE",
"198 0 LINE",
"375 0 LINE",
"375 518 LINE",
"674 518 LINE SMOOTH",
"956 518 OFFCURVE",
"1141 701 OFFCURVE",
"1141 980 CURVE SMOOTH",
"1141 1260 OFFCURVE",
"958 1443 OFFCURVE",
"678 1443 CURVE SMOOTH"
);
},
{
closed = 1;
nodes = (
"375 1286 LINE",
"634 1286 LINE SMOOTH",
"844 1286 OFFCURVE",
"962 1177 OFFCURVE",
"962 980 CURVE SMOOTH",
"962 784 OFFCURVE",
"844 675 OFFCURVE",
"634 675 CURVE SMOOTH",
"375 675 LINE"
);
}
);
width = 1266;
}
);
note = Pdotaccent;
unicode = 1E56;
},
{
glyphname = Thorn;
layers = (
{
layerId = "2811F81C-6B8F-4884-92F2-C07A91FF888C";
paths = (
{
closed = 1;
nodes = (
"188 1443 LINE",
"188 0 LINE",
"369 0 LINE",
"369 342 LINE",
"714 342 LINE SMOOTH",
"967 342 OFFCURVE",
"1131 514 OFFCURVE",
"1131 762 CURVE SMOOTH",
"1131 1009 OFFCURVE",
"970 1179 OFFCURVE",
"717 1179 CURVE SMOOTH",
"368 1179 LINE",
"368 1443 LINE"
);
},
{
closed = 1;
nodes = (
"369 1014 LINE",
"665 1014 LINE SMOOTH",
"854 1014 OFFCURVE",
"945 929 OFFCURVE",
"945 762 CURVE SMOOTH",
"945 593 OFFCURVE",
"854 506 OFFCURVE",
"665 506 CURVE SMOOTH",
"369 506 LINE"
);
}
);
width = 1266;
}
);
note = Thorn;
unicode = 00DE;
},
{
glyphname = Q;
layers = (
{
layerId = "2811F81C-6B8F-4884-92F2-C07A91FF888C";
paths = (
{
closed = 1;
nodes = (
"979 -165 LINE",
"1167 -165 LINE",
"992 107 LINE",
"1101 215 OFFCURVE",
"1162 385 OFFCURVE",
"1162 605 CURVE SMOOTH",
"1162 838 LINE SMOOTH",
"1162 1237 OFFCURVE",
"961 1473 OFFCURVE",
"633 1473 CURVE SMOOTH",
"305 1473 OFFCURVE",
"104 1237 OFFCURVE",
"104 838 CURVE SMOOTH",
"104 605 LINE SMOOTH",
"104 206 OFFCURVE",
"305 -30 OFFCURVE",
"633 -30 CURVE SMOOTH",
"718 -30 OFFCURVE",
"795 -14 OFFCURVE",
"862 17 CURVE"
);
},
{
closed = 1;
nodes = (
"413 132 OFFCURVE",
"280 301 OFFCURVE",
"280 604 CURVE SMOOTH",
"280 833 LINE SMOOTH",
"280 1137 OFFCURVE",
"413 1306 OFFCURVE",
"633 1306 CURVE SMOOTH",
"853 1306 OFFCURVE",
"986 1137 OFFCURVE",
"986 833 CURVE SMOOTH",
"986 604 LINE SMOOTH",
"986 455 OFFCURVE",
"954 338 OFFCURVE",
"895 258 CURVE",
"764 461 LINE",
"576 461 LINE",
"771 158 LINE",
"730 141 OFFCURVE",
"684 132 OFFCURVE",
"633 132 CURVE SMOOTH"
);
}
);
width = 1266;
}
);
note = Q;
unicode = 0051;
},
{
glyphname = R;
layers = (
{
layerId = "2811F81C-6B8F-4884-92F2-C07A91FF888C";
paths = (
{
closed = 1;
nodes = (
"688 575 LINE",
"957 0 LINE",
"1156 0 LINE",
"862 611 LINE",
"1026 665 OFFCURVE",
"1131 820 OFFCURVE",
"1131 1009 CURVE SMOOTH",
"1131 1277 OFFCURVE",
"952 1443 OFFCURVE",
"666 1443 CURVE SMOOTH",
"182 1443 LINE",
"182 0 LINE",
"356 0 LINE",
"356 575 LINE"
);
},
{
closed = 1;
nodes = (
"356 1286 LINE",
"650 1286 LINE SMOOTH",
"843 1286 OFFCURVE",
"953 1184 OFFCURVE",
"953 1005 CURVE SMOOTH",
"953 825 OFFCURVE",
"841 724 OFFCURVE",
"642 724 CURVE SMOOTH",
"356 724 LINE"
);
}
);
width = 1266;
}
);
note = R;
unicode = 0052;
},
{
glyphname = Racute;
layers = (
{
layerId = "2811F81C-6B8F-4884-92F2-C07A91FF888C";
paths = (
{
closed = 1;
nodes = (
"486 1612 LINE",
"672 1612 LINE",
"994 1916 LINE",
"787 1916 LINE"
);
},
{
closed = 1;
nodes = (
"688 575 LINE",
"957 0 LINE",
"1156 0 LINE",
"862 611 LINE",
"1026 665 OFFCURVE",
"1131 820 OFFCURVE",
"1131 1009 CURVE SMOOTH",
"1131 1277 OFFCURVE",
"952 1443 OFFCURVE",
"666 1443 CURVE SMOOTH",
"182 1443 LINE",
"182 0 LINE",
"356 0 LINE",
"356 575 LINE"
);
},
{
closed = 1;
nodes = (
"356 1286 LINE",
"650 1286 LINE SMOOTH",
"843 1286 OFFCURVE",
"953 1184 OFFCURVE",
"953 1005 CURVE SMOOTH",
"953 825 OFFCURVE",
"841 724 OFFCURVE",
"642 724 CURVE SMOOTH",
"356 724 LINE"
);
}
);
width = 1266;
}
);
note = Racute;
unicode = 0154;
},
{
glyphname = Rcaron;
layers = (
{
layerId = "2811F81C-6B8F-4884-92F2-C07A91FF888C";
paths = (
{
closed = 1;
nodes = (
"682 1610 LINE",
"969 1919 LINE",
"789 1919 LINE",
"609 1719 LINE",
"596 1719 LINE",
"416 1919 LINE",
"236 1919 LINE",
"523 1610 LINE"
);
},
{
closed = 1;
nodes = (
"688 575 LINE",
"957 0 LINE",
"1156 0 LINE",
"862 611 LINE",
"1026 665 OFFCURVE",
"1131 820 OFFCURVE",
"1131 1009 CURVE SMOOTH",
"1131 1277 OFFCURVE",
"952 1443 OFFCURVE",
"666 1443 CURVE SMOOTH",
"182 1443 LINE",
"182 0 LINE",
"356 0 LINE",
"356 575 LINE"
);
},
{
closed = 1;
nodes = (
"356 1286 LINE",
"650 1286 LINE SMOOTH",
"843 1286 OFFCURVE",
"953 1184 OFFCURVE",
"953 1005 CURVE SMOOTH",
"953 825 OFFCURVE",
"841 724 OFFCURVE",
"642 724 CURVE SMOOTH",
"356 724 LINE"
);
}
);
width = 1266;
}
);
note = Rcaron;
unicode = 0158;
},
{
glyphname = Rcommaaccent;
layers = (
{
layerId = "2811F81C-6B8F-4884-92F2-C07A91FF888C";
paths = (
{
closed = 1;
nodes = (
"688 575 LINE",
"957 0 LINE",
"1156 0 LINE",
"862 611 LINE",
"1026 665 OFFCURVE",
"1131 820 OFFCURVE",
"1131 1009 CURVE SMOOTH",
"1131 1277 OFFCURVE",
"952 1443 OFFCURVE",
"666 1443 CURVE SMOOTH",
"182 1443 LINE",
"182 0 LINE",
"356 0 LINE",
"356 575 LINE"
);
},
{
closed = 1;
nodes = (
"356 1286 LINE",
"650 1286 LINE SMOOTH",
"843 1286 OFFCURVE",
"953 1184 OFFCURVE",
"953 1005 CURVE SMOOTH",
"953 825 OFFCURVE",
"841 724 OFFCURVE",
"642 724 CURVE SMOOTH",
"356 724 LINE"
);
},
{
closed = 1;
nodes = (
"610 -503 LINE",
"739 -142 LINE",
"562 -142 LINE",
"452 -503 LINE"
);
}
);
width = 1266;
}
);
note = Rcommaaccent;
unicode = 0156;
},
{
glyphname = Rdblgrave;
layers = (
{
layerId = "2811F81C-6B8F-4884-92F2-C07A91FF888C";
paths = (
{
closed = 1;
nodes = (
"537 1612 LINE",
"242 1916 LINE",
"48 1916 LINE",
"360 1612 LINE"
);
},
{
closed = 1;
nodes = (
"915 1612 LINE",
"621 1916 LINE",
"426 1916 LINE",
"739 1612 LINE"
);
},
{
closed = 1;
nodes = (
"688 575 LINE",
"957 0 LINE",
"1156 0 LINE",
"862 611 LINE",
"1026 665 OFFCURVE",
"1131 820 OFFCURVE",
"1131 1009 CURVE SMOOTH",
"1131 1277 OFFCURVE",
"952 1443 OFFCURVE",
"666 1443 CURVE SMOOTH",
"182 1443 LINE",
"182 0 LINE",
"356 0 LINE",
"356 575 LINE"
);
},
{
closed = 1;
nodes = (
"356 1286 LINE",
"650 1286 LINE SMOOTH",
"843 1286 OFFCURVE",
"953 1184 OFFCURVE",
"953 1005 CURVE SMOOTH",
"953 825 OFFCURVE",
"841 724 OFFCURVE",
"642 724 CURVE SMOOTH",
"356 724 LINE"
);
}
);
width = 1266;
}
);
note = Rdblgrave;
unicode = 0210;
},
{
glyphname = Rdotaccent;
layers = (
{
layerId = "2811F81C-6B8F-4884-92F2-C07A91FF888C";
paths = (
{
closed = 1;
nodes = (
"670 1640 OFFCURVE",
"729 1699 OFFCURVE",
"729 1769 CURVE SMOOTH",
"729 1839 OFFCURVE",
"670 1897 OFFCURVE",
"603 1897 CURVE SMOOTH",
"535 1897 OFFCURVE",
"477 1839 OFFCURVE",
"477 1769 CURVE SMOOTH",
"477 1699 OFFCURVE",
"535 1640 OFFCURVE",
"603 1640 CURVE SMOOTH"
);
},
{
closed = 1;
nodes = (
"688 575 LINE",
"957 0 LINE",
"1156 0 LINE",
"862 611 LINE",
"1026 665 OFFCURVE",
"1131 820 OFFCURVE",
"1131 1009 CURVE SMOOTH",
"1131 1277 OFFCURVE",
"952 1443 OFFCURVE",
"666 1443 CURVE SMOOTH",
"182 1443 LINE",
"182 0 LINE",
"356 0 LINE",
"356 575 LINE"
);
},
{
closed = 1;
nodes = (
"356 1286 LINE",
"650 1286 LINE SMOOTH",
"843 1286 OFFCURVE",
"953 1184 OFFCURVE",
"953 1005 CURVE SMOOTH",
"953 825 OFFCURVE",
"841 724 OFFCURVE",
"642 724 CURVE SMOOTH",
"356 724 LINE"
);
}
);
width = 1266;
}
);
note = Rdotaccent;
unicode = 1E58;
},
{
glyphname = Rdotbelow;
layers = (
{
layerId = "2811F81C-6B8F-4884-92F2-C07A91FF888C";
paths = (
{
closed = 1;
nodes = (
"688 575 LINE",
"957 0 LINE",
"1156 0 LINE",
"862 611 LINE",
"1026 665 OFFCURVE",
"1131 820 OFFCURVE",
"1131 1009 CURVE SMOOTH",
"1131 1277 OFFCURVE",
"952 1443 OFFCURVE",
"666 1443 CURVE SMOOTH",
"182 1443 LINE",
"182 0 LINE",
"356 0 LINE",
"356 575 LINE"
);
},
{
closed = 1;
nodes = (
"356 1286 LINE",
"650 1286 LINE SMOOTH",
"843 1286 OFFCURVE",
"953 1184 OFFCURVE",
"953 1005 CURVE SMOOTH",
"953 825 OFFCURVE",
"841 724 OFFCURVE",
"642 724 CURVE SMOOTH",
"356 724 LINE"
);
},
{
closed = 1;
nodes = (
"707 -451 OFFCURVE",
"765 -392 OFFCURVE",
"765 -323 CURVE SMOOTH",
"765 -253 OFFCURVE",
"707 -194 OFFCURVE",
"639 -194 CURVE SMOOTH",
"571 -194 OFFCURVE",
"513 -253 OFFCURVE",
"513 -323 CURVE SMOOTH",
"513 -392 OFFCURVE",
"571 -451 OFFCURVE",
"639 -451 CURVE SMOOTH"
);
}
);
width = 1266;
}
);
note = Rdotbelow;
unicode = 1E5A;
},
{
glyphname = Rdotbelowmacron;
layers = (
{
layerId = "2811F81C-6B8F-4884-92F2-C07A91FF888C";
paths = (
{
closed = 1;
nodes = (
"932 1696 LINE",
"932 1835 LINE",
"273 1835 LINE",
"273 1696 LINE"
);
},
{
closed = 1;
nodes = (
"688 575 LINE",
"957 0 LINE",
"1156 0 LINE",
"862 611 LINE",
"1026 665 OFFCURVE",
"1131 820 OFFCURVE",
"1131 1009 CURVE SMOOTH",
"1131 1277 OFFCURVE",
"952 1443 OFFCURVE",
"666 1443 CURVE SMOOTH",
"182 1443 LINE",
"182 0 LINE",
"356 0 LINE",
"356 575 LINE"
);
},
{
closed = 1;
nodes = (
"356 1286 LINE",
"650 1286 LINE SMOOTH",
"843 1286 OFFCURVE",
"953 1184 OFFCURVE",
"953 1005 CURVE SMOOTH",
"953 825 OFFCURVE",
"841 724 OFFCURVE",
"642 724 CURVE SMOOTH",
"356 724 LINE"
);
},
{
closed = 1;
nodes = (
"707 -451 OFFCURVE",
"765 -392 OFFCURVE",
"765 -323 CURVE SMOOTH",
"765 -253 OFFCURVE",
"707 -194 OFFCURVE",
"639 -194 CURVE SMOOTH",
"571 -194 OFFCURVE",
"513 -253 OFFCURVE",
"513 -323 CURVE SMOOTH",
"513 -392 OFFCURVE",
"571 -451 OFFCURVE",
"639 -451 CURVE SMOOTH"
);
}
);
width = 1266;
}
);
note = Rdotbelowmacron;
unicode = 1E5C;
},
{
glyphname = Rinvertedbreve;
layers = (
{
layerId = "2811F81C-6B8F-4884-92F2-C07A91FF888C";
paths = (
{
closed = 1;
nodes = (
"396 1609 LINE",
"396 1720 OFFCURVE",
"482 1799 OFFCURVE",
"603 1799 CURVE SMOOTH",
"723 1799 OFFCURVE",
"809 1720 OFFCURVE",
"809 1609 CURVE",
"948 1609 LINE",
"948 1791 OFFCURVE",
"808 1918 OFFCURVE",
"603 1918 CURVE SMOOTH",
"397 1918 OFFCURVE",
"257 1791 OFFCURVE",
"257 1609 CURVE"
);
},
{
closed = 1;
nodes = (
"688 575 LINE",
"957 0 LINE",
"1156 0 LINE",
"862 611 LINE",
"1026 665 OFFCURVE",
"1131 820 OFFCURVE",
"1131 1009 CURVE SMOOTH",
"1131 1277 OFFCURVE",
"952 1443 OFFCURVE",
"666 1443 CURVE SMOOTH",
"182 1443 LINE",
"182 0 LINE",
"356 0 LINE",
"356 575 LINE"
);
},
{
closed = 1;
nodes = (
"356 1286 LINE",
"650 1286 LINE SMOOTH",
"843 1286 OFFCURVE",
"953 1184 OFFCURVE",
"953 1005 CURVE SMOOTH",
"953 825 OFFCURVE",
"841 724 OFFCURVE",
"642 724 CURVE SMOOTH",
"356 724 LINE"
);
}
);
width = 1266;
}
);
note = Rinvertedbreve;
unicode = 0212;
},
{
glyphname = Rlinebelow;
layers = (
{
layerId = "2811F81C-6B8F-4884-92F2-C07A91FF888C";
paths = (
{
closed = 1;
nodes = (
"688 575 LINE",
"957 0 LINE",
"1156 0 LINE",
"862 611 LINE",
"1026 665 OFFCURVE",
"1131 820 OFFCURVE",
"1131 1009 CURVE SMOOTH",
"1131 1277 OFFCURVE",
"952 1443 OFFCURVE",
"666 1443 CURVE SMOOTH",
"182 1443 LINE",
"182 0 LINE",
"356 0 LINE",
"356 575 LINE"
);
},
{
closed = 1;
nodes = (
"356 1286 LINE",
"650 1286 LINE SMOOTH",
"843 1286 OFFCURVE",
"953 1184 OFFCURVE",
"953 1005 CURVE SMOOTH",
"953 825 OFFCURVE",
"841 724 OFFCURVE",
"642 724 CURVE SMOOTH",
"356 724 LINE"
);
},
{
closed = 1;
nodes = (
"969 -395 LINE",
"969 -256 LINE",
"309 -256 LINE",
"309 -395 LINE"
);
}
);
width = 1266;
}
);
note = Rlinebelow;
unicode = 1E5E;
},
{
glyphname = S;
layers = (
{
layerId = "2811F81C-6B8F-4884-92F2-C07A91FF888C";
paths = (
{
closed = 1;
nodes = (
"139 384 LINE",
"154 128 OFFCURVE",
"349 -30 OFFCURVE",
"647 -30 CURVE SMOOTH",
"949 -30 OFFCURVE",
"1144 135 OFFCURVE",
"1144 394 CURVE SMOOTH",
"1144 611 OFFCURVE",
"1026 733 OFFCURVE",
"746 802 CURVE SMOOTH",
"620 834 LINE SMOOTH",
"432 881 OFFCURVE",
"352 953 OFFCURVE",
"352 1078 CURVE SMOOTH",
"352 1225 OFFCURVE",
"463 1313 OFFCURVE",
"648 1313 CURVE SMOOTH",
"818 1313 OFFCURVE",
"928 1225 OFFCURVE",
"946 1076 CURVE",
"1118 1076 LINE",
"1106 1316 OFFCURVE",
"919 1473 OFFCURVE",
"647 1473 CURVE SMOOTH",
"359 1473 OFFCURVE",
"174 1314 OFFCURVE",
"174 1068 CURVE SMOOTH",
"174 859 OFFCURVE",
"295 732 OFFCURVE",
"563 664 CURVE SMOOTH",
"687 633 LINE SMOOTH",
"882 585 OFFCURVE",
"966 510 OFFCURVE",
"966 385 CURVE SMOOTH",
"966 230 OFFCURVE",
"840 130 OFFCURVE",
"648 130 CURVE SMOOTH",
"456 130 OFFCURVE",
"329 226 OFFCURVE",
"311 384 CURVE"
);
}
);
width = 1266;
}
);
note = S;
unicode = 0053;
},
{
glyphname = Sacute;
layers = (
{
layerId = "2811F81C-6B8F-4884-92F2-C07A91FF888C";
paths = (
{
closed = 1;
nodes = (
"531 1612 LINE",
"716 1612 LINE",
"1039 1916 LINE",
"832 1916 LINE"
);
},
{
closed = 1;
nodes = (
"139 384 LINE",
"154 128 OFFCURVE",
"349 -30 OFFCURVE",
"647 -30 CURVE SMOOTH",
"949 -30 OFFCURVE",
"1144 135 OFFCURVE",
"1144 394 CURVE SMOOTH",
"1144 611 OFFCURVE",
"1026 733 OFFCURVE",
"746 802 CURVE SMOOTH",
"620 834 LINE SMOOTH",
"432 881 OFFCURVE",
"352 953 OFFCURVE",
"352 1078 CURVE SMOOTH",
"352 1225 OFFCURVE",
"463 1313 OFFCURVE",
"648 1313 CURVE SMOOTH",
"818 1313 OFFCURVE",
"928 1225 OFFCURVE",
"946 1076 CURVE",
"1118 1076 LINE",
"1106 1316 OFFCURVE",
"919 1473 OFFCURVE",
"647 1473 CURVE SMOOTH",
"359 1473 OFFCURVE",
"174 1314 OFFCURVE",
"174 1068 CURVE SMOOTH",
"174 859 OFFCURVE",
"295 732 OFFCURVE",
"563 664 CURVE SMOOTH",
"687 633 LINE SMOOTH",
"882 585 OFFCURVE",
"966 510 OFFCURVE",
"966 385 CURVE SMOOTH",
"966 230 OFFCURVE",
"840 130 OFFCURVE",
"648 130 CURVE SMOOTH",
"456 130 OFFCURVE",
"329 226 OFFCURVE",
"311 384 CURVE"
);
}
);
width = 1266;
}
);
note = Sacute;
unicode = 015A;
},
{
glyphname = Sacutedotaccent;
layers = (
{
layerId = "2811F81C-6B8F-4884-92F2-C07A91FF888C";
paths = (
{
closed = 1;
nodes = (
"552 1688 OFFCURVE",
"610 1747 OFFCURVE",
"610 1817 CURVE SMOOTH",
"610 1887 OFFCURVE",
"552 1945 OFFCURVE",
"484 1945 CURVE SMOOTH",
"416 1945 OFFCURVE",
"358 1887 OFFCURVE",
"358 1817 CURVE SMOOTH",
"358 1747 OFFCURVE",
"416 1688 OFFCURVE",
"484 1688 CURVE SMOOTH"
);
},
{
closed = 1;
nodes = (
"624 1612 LINE",
"809 1612 LINE",
"1132 1916 LINE",
"925 1916 LINE"
);
},
{
closed = 1;
nodes = (
"139 384 LINE",
"154 128 OFFCURVE",
"349 -30 OFFCURVE",
"647 -30 CURVE SMOOTH",
"949 -30 OFFCURVE",
"1144 135 OFFCURVE",
"1144 394 CURVE SMOOTH",
"1144 611 OFFCURVE",
"1026 733 OFFCURVE",
"746 802 CURVE SMOOTH",
"620 834 LINE SMOOTH",
"432 881 OFFCURVE",
"352 953 OFFCURVE",
"352 1078 CURVE SMOOTH",
"352 1225 OFFCURVE",
"463 1313 OFFCURVE",
"648 1313 CURVE SMOOTH",
"818 1313 OFFCURVE",
"928 1225 OFFCURVE",
"946 1076 CURVE",
"1118 1076 LINE",
"1106 1316 OFFCURVE",
"919 1473 OFFCURVE",
"647 1473 CURVE SMOOTH",
"359 1473 OFFCURVE",
"174 1314 OFFCURVE",
"174 1068 CURVE SMOOTH",
"174 859 OFFCURVE",
"295 732 OFFCURVE",
"563 664 CURVE SMOOTH",
"687 633 LINE SMOOTH",
"882 585 OFFCURVE",
"966 510 OFFCURVE",
"966 385 CURVE SMOOTH",
"966 230 OFFCURVE",
"840 130 OFFCURVE",
"648 130 CURVE SMOOTH",
"456 130 OFFCURVE",
"329 226 OFFCURVE",
"311 384 CURVE"
);
}
);
width = 1266;
}
);
note = Sacutedotaccent;
unicode = 1E64;
},
{
glyphname = Scaron;
layers = (
{
layerId = "2811F81C-6B8F-4884-92F2-C07A91FF888C";
paths = (
{
closed = 1;
nodes = (
"727 1610 LINE",
"1014 1919 LINE",
"834 1919 LINE",
"654 1719 LINE",
"640 1719 LINE",
"460 1919 LINE",
"281 1919 LINE",
"567 1610 LINE"
);
},
{
closed = 1;
nodes = (
"139 384 LINE",
"154 128 OFFCURVE",
"349 -30 OFFCURVE",
"647 -30 CURVE SMOOTH",
"949 -30 OFFCURVE",
"1144 135 OFFCURVE",
"1144 394 CURVE SMOOTH",
"1144 611 OFFCURVE",
"1026 733 OFFCURVE",
"746 802 CURVE SMOOTH",
"620 834 LINE SMOOTH",
"432 881 OFFCURVE",
"352 953 OFFCURVE",
"352 1078 CURVE SMOOTH",
"352 1225 OFFCURVE",
"463 1313 OFFCURVE",
"648 1313 CURVE SMOOTH",
"818 1313 OFFCURVE",
"928 1225 OFFCURVE",
"946 1076 CURVE",
"1118 1076 LINE",
"1106 1316 OFFCURVE",
"919 1473 OFFCURVE",
"647 1473 CURVE SMOOTH",
"359 1473 OFFCURVE",
"174 1314 OFFCURVE",
"174 1068 CURVE SMOOTH",
"174 859 OFFCURVE",
"295 732 OFFCURVE",
"563 664 CURVE SMOOTH",
"687 633 LINE SMOOTH",
"882 585 OFFCURVE",
"966 510 OFFCURVE",
"966 385 CURVE SMOOTH",
"966 230 OFFCURVE",
"840 130 OFFCURVE",
"648 130 CURVE SMOOTH",
"456 130 OFFCURVE",
"329 226 OFFCURVE",
"311 384 CURVE"
);
}
);
width = 1266;
}
);
note = Scaron;
unicode = 0160;
},
{
glyphname = Scarondotaccent;
layers = (
{
layerId = "2811F81C-6B8F-4884-92F2-C07A91FF888C";
paths = (
{
closed = 1;
nodes = (
"713 1868 OFFCURVE",
"764 1919 OFFCURVE",
"764 1985 CURVE SMOOTH",
"764 2050 OFFCURVE",
"713 2101 OFFCURVE",
"647 2101 CURVE SMOOTH",
"581 2101 OFFCURVE",
"531 2050 OFFCURVE",
"531 1985 CURVE SMOOTH",
"531 1919 OFFCURVE",
"581 1868 OFFCURVE",
"647 1868 CURVE SMOOTH"
);
},
{
closed = 1;
nodes = (
"737 1578 LINE",
"1019 1815 LINE",
"825 1815 LINE",
"654 1669 LINE",
"640 1669 LINE",
"469 1815 LINE",
"275 1815 LINE",
"557 1578 LINE"
);
},
{
closed = 1;
nodes = (
"139 384 LINE",
"154 128 OFFCURVE",
"349 -30 OFFCURVE",
"647 -30 CURVE SMOOTH",
"949 -30 OFFCURVE",
"1144 135 OFFCURVE",
"1144 394 CURVE SMOOTH",
"1144 611 OFFCURVE",
"1026 733 OFFCURVE",
"746 802 CURVE SMOOTH",
"620 834 LINE SMOOTH",
"432 881 OFFCURVE",
"352 953 OFFCURVE",
"352 1078 CURVE SMOOTH",
"352 1225 OFFCURVE",
"463 1313 OFFCURVE",
"648 1313 CURVE SMOOTH",
"818 1313 OFFCURVE",
"928 1225 OFFCURVE",
"946 1076 CURVE",
"1118 1076 LINE",
"1106 1316 OFFCURVE",
"919 1473 OFFCURVE",
"647 1473 CURVE SMOOTH",
"359 1473 OFFCURVE",
"174 1314 OFFCURVE",
"174 1068 CURVE SMOOTH",
"174 859 OFFCURVE",
"295 732 OFFCURVE",
"563 664 CURVE SMOOTH",
"687 633 LINE SMOOTH",
"882 585 OFFCURVE",
"966 510 OFFCURVE",
"966 385 CURVE SMOOTH",
"966 230 OFFCURVE",
"840 130 OFFCURVE",
"648 130 CURVE SMOOTH",
"456 130 OFFCURVE",
"329 226 OFFCURVE",
"311 384 CURVE"
);
}
);
width = 1266;
}
);
note = Scarondotaccent;
unicode = 1E66;
},
{
glyphname = Scedilla;
layers = (
{
layerId = "2811F81C-6B8F-4884-92F2-C07A91FF888C";
paths = (
{
closed = 1;
nodes = (
"139 384 LINE",
"153 148 OFFCURVE",
"321 -6 OFFCURVE",
"582 -27 CURVE",
"532 -150 LINE",
"532 -236 LINE",
"589 -236 LINE SMOOTH",
"692 -236 OFFCURVE",
"733 -255 OFFCURVE",
"733 -301 CURVE SMOOTH",
"733 -348 OFFCURVE",
"692 -373 OFFCURVE",
"619 -373 CURVE SMOOTH",
"582 -373 OFFCURVE",
"523 -366 OFFCURVE",
"500 -359 CURVE",
"500 -469 LINE",
"546 -481 OFFCURVE",
"581 -486 OFFCURVE",
"631 -486 CURVE SMOOTH",
"776 -486 OFFCURVE",
"870 -413 OFFCURVE",
"870 -297 CURVE SMOOTH",
"870 -191 OFFCURVE",
"800 -133 OFFCURVE",
"672 -132 CURVE",
"714 -27 LINE",
"978 -4 OFFCURVE",
"1144 155 OFFCURVE",
"1144 394 CURVE SMOOTH",
"1144 611 OFFCURVE",
"1026 733 OFFCURVE",
"746 802 CURVE SMOOTH",
"620 834 LINE SMOOTH",
"432 881 OFFCURVE",
"352 953 OFFCURVE",
"352 1078 CURVE SMOOTH",
"352 1225 OFFCURVE",
"463 1313 OFFCURVE",
"648 1313 CURVE SMOOTH",
"818 1313 OFFCURVE",
"928 1225 OFFCURVE",
"946 1076 CURVE",
"1118 1076 LINE",
"1106 1316 OFFCURVE",
"919 1473 OFFCURVE",
"647 1473 CURVE SMOOTH",
"359 1473 OFFCURVE",
"174 1314 OFFCURVE",
"174 1068 CURVE SMOOTH",
"174 859 OFFCURVE",
"295 732 OFFCURVE",
"563 664 CURVE SMOOTH",
"687 633 LINE SMOOTH",
"882 585 OFFCURVE",
"966 510 OFFCURVE",
"966 385 CURVE SMOOTH",
"966 230 OFFCURVE",
"840 130 OFFCURVE",
"648 130 CURVE SMOOTH",
"456 130 OFFCURVE",
"329 226 OFFCURVE",
"311 384 CURVE"
);
}
);
width = 1266;
}
);
note = Scedilla;
unicode = 015E;
},
{
glyphname = Scircumflex;
layers = (
{
layerId = "2811F81C-6B8F-4884-92F2-C07A91FF888C";
paths = (
{
closed = 1;
nodes = (
"727 1921 LINE",
"567 1921 LINE",
"281 1612 LINE",
"460 1612 LINE",
"640 1812 LINE",
"654 1812 LINE",
"834 1612 LINE",
"1014 1612 LINE"
);
},
{
closed = 1;
nodes = (
"139 384 LINE",
"154 128 OFFCURVE",
"349 -30 OFFCURVE",
"647 -30 CURVE SMOOTH",
"949 -30 OFFCURVE",
"1144 135 OFFCURVE",
"1144 394 CURVE SMOOTH",
"1144 611 OFFCURVE",
"1026 733 OFFCURVE",
"746 802 CURVE SMOOTH",
"620 834 LINE SMOOTH",
"432 881 OFFCURVE",
"352 953 OFFCURVE",
"352 1078 CURVE SMOOTH",
"352 1225 OFFCURVE",
"463 1313 OFFCURVE",
"648 1313 CURVE SMOOTH",
"818 1313 OFFCURVE",
"928 1225 OFFCURVE",
"946 1076 CURVE",
"1118 1076 LINE",
"1106 1316 OFFCURVE",
"919 1473 OFFCURVE",
"647 1473 CURVE SMOOTH",
"359 1473 OFFCURVE",
"174 1314 OFFCURVE",
"174 1068 CURVE SMOOTH",
"174 859 OFFCURVE",
"295 732 OFFCURVE",
"563 664 CURVE SMOOTH",
"687 633 LINE SMOOTH",
"882 585 OFFCURVE",
"966 510 OFFCURVE",
"966 385 CURVE SMOOTH",
"966 230 OFFCURVE",
"840 130 OFFCURVE",
"648 130 CURVE SMOOTH",
"456 130 OFFCURVE",
"329 226 OFFCURVE",
"311 384 CURVE"
);
}
);
width = 1266;
}
);
note = Scircumflex;
unicode = 015C;
},
{
glyphname = Scommaaccent;
layers = (
{
layerId = "2811F81C-6B8F-4884-92F2-C07A91FF888C";
paths = (
{
closed = 1;
nodes = (
"139 384 LINE",
"154 128 OFFCURVE",
"349 -30 OFFCURVE",
"647 -30 CURVE SMOOTH",
"949 -30 OFFCURVE",
"1144 135 OFFCURVE",
"1144 394 CURVE SMOOTH",
"1144 611 OFFCURVE",
"1026 733 OFFCURVE",
"746 802 CURVE SMOOTH",
"620 834 LINE SMOOTH",
"432 881 OFFCURVE",
"352 953 OFFCURVE",
"352 1078 CURVE SMOOTH",
"352 1225 OFFCURVE",
"463 1313 OFFCURVE",
"648 1313 CURVE SMOOTH",
"818 1313 OFFCURVE",
"928 1225 OFFCURVE",
"946 1076 CURVE",
"1118 1076 LINE",
"1106 1316 OFFCURVE",
"919 1473 OFFCURVE",
"647 1473 CURVE SMOOTH",
"359 1473 OFFCURVE",
"174 1314 OFFCURVE",
"174 1068 CURVE SMOOTH",
"174 859 OFFCURVE",
"295 732 OFFCURVE",
"563 664 CURVE SMOOTH",
"687 633 LINE SMOOTH",
"882 585 OFFCURVE",
"966 510 OFFCURVE",
"966 385 CURVE SMOOTH",
"966 230 OFFCURVE",
"840 130 OFFCURVE",
"648 130 CURVE SMOOTH",
"456 130 OFFCURVE",
"329 226 OFFCURVE",
"311 384 CURVE"
);
},
{
closed = 1;
nodes = (
"618 -503 LINE",
"747 -142 LINE",
"570 -142 LINE",
"460 -503 LINE"
);
}
);
width = 1266;
}
);
note = Scommaaccent;
unicode = 0218;
},
{
glyphname = Sdotaccent;
layers = (
{
layerId = "2811F81C-6B8F-4884-92F2-C07A91FF888C";
paths = (
{
closed = 1;
nodes = (
"715 1640 OFFCURVE",
"773 1699 OFFCURVE",
"773 1769 CURVE SMOOTH",
"773 1839 OFFCURVE",
"715 1897 OFFCURVE",
"647 1897 CURVE SMOOTH",
"579 1897 OFFCURVE",
"521 1839 OFFCURVE",
"521 1769 CURVE SMOOTH",
"521 1699 OFFCURVE",
"579 1640 OFFCURVE",
"647 1640 CURVE SMOOTH"
);
},
{
closed = 1;
nodes = (
"139 384 LINE",
"154 128 OFFCURVE",
"349 -30 OFFCURVE",
"647 -30 CURVE SMOOTH",
"949 -30 OFFCURVE",
"1144 135 OFFCURVE",
"1144 394 CURVE SMOOTH",
"1144 611 OFFCURVE",
"1026 733 OFFCURVE",
"746 802 CURVE SMOOTH",
"620 834 LINE SMOOTH",
"432 881 OFFCURVE",
"352 953 OFFCURVE",
"352 1078 CURVE SMOOTH",
"352 1225 OFFCURVE",
"463 1313 OFFCURVE",
"648 1313 CURVE SMOOTH",
"818 1313 OFFCURVE",
"928 1225 OFFCURVE",
"946 1076 CURVE",
"1118 1076 LINE",
"1106 1316 OFFCURVE",
"919 1473 OFFCURVE",
"647 1473 CURVE SMOOTH",
"359 1473 OFFCURVE",
"174 1314 OFFCURVE",
"174 1068 CURVE SMOOTH",
"174 859 OFFCURVE",
"295 732 OFFCURVE",
"563 664 CURVE SMOOTH",
"687 633 LINE SMOOTH",
"882 585 OFFCURVE",
"966 510 OFFCURVE",
"966 385 CURVE SMOOTH",
"966 230 OFFCURVE",
"840 130 OFFCURVE",
"648 130 CURVE SMOOTH",
"456 130 OFFCURVE",
"329 226 OFFCURVE",
"311 384 CURVE"
);
}
);
width = 1266;
}
);
note = Sdotaccent;
unicode = 1E60;
},
{
glyphname = Sdotbelow;
layers = (
{
layerId = "2811F81C-6B8F-4884-92F2-C07A91FF888C";
paths = (
{
closed = 1;
nodes = (
"139 384 LINE",
"154 128 OFFCURVE",
"349 -30 OFFCURVE",
"647 -30 CURVE SMOOTH",
"949 -30 OFFCURVE",
"1144 135 OFFCURVE",
"1144 394 CURVE SMOOTH",
"1144 611 OFFCURVE",
"1026 733 OFFCURVE",
"746 802 CURVE SMOOTH",
"620 834 LINE SMOOTH",
"432 881 OFFCURVE",
"352 953 OFFCURVE",
"352 1078 CURVE SMOOTH",
"352 1225 OFFCURVE",
"463 1313 OFFCURVE",
"648 1313 CURVE SMOOTH",
"818 1313 OFFCURVE",
"928 1225 OFFCURVE",
"946 1076 CURVE",
"1118 1076 LINE",
"1106 1316 OFFCURVE",
"919 1473 OFFCURVE",
"647 1473 CURVE SMOOTH",
"359 1473 OFFCURVE",
"174 1314 OFFCURVE",
"174 1068 CURVE SMOOTH",
"174 859 OFFCURVE",
"295 732 OFFCURVE",
"563 664 CURVE SMOOTH",
"687 633 LINE SMOOTH",
"882 585 OFFCURVE",
"966 510 OFFCURVE",
"966 385 CURVE SMOOTH",
"966 230 OFFCURVE",
"840 130 OFFCURVE",
"648 130 CURVE SMOOTH",
"456 130 OFFCURVE",
"329 226 OFFCURVE",
"311 384 CURVE"
);
},
{
closed = 1;
nodes = (
"715 -436 OFFCURVE",
"773 -377 OFFCURVE",
"773 -307 CURVE SMOOTH",
"773 -237 OFFCURVE",
"715 -179 OFFCURVE",
"647 -179 CURVE SMOOTH",
"579 -179 OFFCURVE",
"521 -237 OFFCURVE",
"521 -307 CURVE SMOOTH",
"521 -377 OFFCURVE",
"579 -436 OFFCURVE",
"647 -436 CURVE SMOOTH"
);
}
);
width = 1266;
}
);
note = Sdotbelow;
unicode = 1E62;
},
{
glyphname = Sdotbelowdotaccent;
layers = (
{
layerId = "2811F81C-6B8F-4884-92F2-C07A91FF888C";
paths = (
{
closed = 1;
nodes = (
"715 1640 OFFCURVE",
"773 1699 OFFCURVE",
"773 1769 CURVE SMOOTH",
"773 1839 OFFCURVE",
"715 1897 OFFCURVE",
"647 1897 CURVE SMOOTH",
"579 1897 OFFCURVE",
"521 1839 OFFCURVE",
"521 1769 CURVE SMOOTH",
"521 1699 OFFCURVE",
"579 1640 OFFCURVE",
"647 1640 CURVE SMOOTH"
);
},
{
closed = 1;
nodes = (
"139 384 LINE",
"154 128 OFFCURVE",
"349 -30 OFFCURVE",
"647 -30 CURVE SMOOTH",
"949 -30 OFFCURVE",
"1144 135 OFFCURVE",
"1144 394 CURVE SMOOTH",
"1144 611 OFFCURVE",
"1026 733 OFFCURVE",
"746 802 CURVE SMOOTH",
"620 834 LINE SMOOTH",
"432 881 OFFCURVE",
"352 953 OFFCURVE",
"352 1078 CURVE SMOOTH",
"352 1225 OFFCURVE",
"463 1313 OFFCURVE",
"648 1313 CURVE SMOOTH",
"818 1313 OFFCURVE",
"928 1225 OFFCURVE",
"946 1076 CURVE",
"1118 1076 LINE",
"1106 1316 OFFCURVE",
"919 1473 OFFCURVE",
"647 1473 CURVE SMOOTH",
"359 1473 OFFCURVE",
"174 1314 OFFCURVE",
"174 1068 CURVE SMOOTH",
"174 859 OFFCURVE",
"295 732 OFFCURVE",
"563 664 CURVE SMOOTH",
"687 633 LINE SMOOTH",
"882 585 OFFCURVE",
"966 510 OFFCURVE",
"966 385 CURVE SMOOTH",
"966 230 OFFCURVE",
"840 130 OFFCURVE",
"648 130 CURVE SMOOTH",
"456 130 OFFCURVE",
"329 226 OFFCURVE",
"311 384 CURVE"
);
},
{
closed = 1;
nodes = (
"715 -451 OFFCURVE",
"773 -393 OFFCURVE",
"773 -323 CURVE SMOOTH",
"773 -253 OFFCURVE",
"715 -194 OFFCURVE",
"647 -194 CURVE SMOOTH",
"579 -194 OFFCURVE",
"521 -253 OFFCURVE",
"521 -323 CURVE SMOOTH",
"521 -393 OFFCURVE",
"579 -451 OFFCURVE",
"647 -451 CURVE SMOOTH"
);
}
);
width = 1266;
}
);
note = Sdotbelowdotaccent;
unicode = 1E68;
},
{
glyphname = Germandbls;
layers = (
{
layerId = "2811F81C-6B8F-4884-92F2-C07A91FF888C";
paths = (
{
closed = 1;
nodes = (
"1044 -24 OFFCURVE",
"1198 137 OFFCURVE",
"1198 387 CURVE SMOOTH",
"1198 389 LINE SMOOTH",
"1198 614 OFFCURVE",
"1083 750 OFFCURVE",
"838 807 CURVE SMOOTH",
"828 809 LINE",
"1133 1176 LINE",
"1133 1316 LINE",
"1016 1401 OFFCURVE",
"839 1466 OFFCURVE",
"661 1466 CURVE SMOOTH",
"339 1466 OFFCURVE",
"142 1274 OFFCURVE",
"142 928 CURVE SMOOTH",
"142 0 LINE",
"318 0 LINE",
"318 906 LINE SMOOTH",
"318 1159 OFFCURVE",
"445 1292 OFFCURVE",
"655 1290 CURVE SMOOTH",
"755 1289 OFFCURVE",
"855 1266 OFFCURVE",
"955 1215 CURVE",
"639 832 LINE",
"639 689 LINE",
"751 666 LINE SMOOTH",
"935 629 OFFCURVE",
"1019 538 OFFCURVE",
"1019 392 CURVE SMOOTH",
"1019 390 LINE SMOOTH",
"1019 242 OFFCURVE",
"927 152 OFFCURVE",
"790 152 CURVE SMOOTH",
"695 152 OFFCURVE",
"601 176 OFFCURVE",
"517 227 CURVE",
"517 40 LINE",
"587 1 OFFCURVE",
"695 -24 OFFCURVE",
"809 -24 CURVE SMOOTH"
);
}
);
width = 1266;
}
);
note = Germandbls;
unicode = 1E9E;
},
{
glyphname = T;
layers = (
{
layerId = "2811F81C-6B8F-4884-92F2-C07A91FF888C";
paths = (
{
closed = 1;
nodes = (
"721 0 LINE",
"721 1281 LINE",
"1157 1281 LINE",
"1157 1443 LINE",
"109 1443 LINE",
"109 1281 LINE",
"545 1281 LINE",
"545 0 LINE"
);
}
);
width = 1266;
}
);
note = T;
unicode = 0054;
},
{
glyphname = Tbar;
layers = (
{
layerId = "2811F81C-6B8F-4884-92F2-C07A91FF888C";
paths = (
{
closed = 1;
nodes = (
"721 0 LINE",
"721 651 LINE",
"1019 651 LINE",
"1019 792 LINE",
"721 792 LINE",
"721 1281 LINE",
"1157 1281 LINE",
"1157 1443 LINE",
"109 1443 LINE",
"109 1281 LINE",
"545 1281 LINE",
"545 792 LINE",
"247 792 LINE",
"247 651 LINE",
"545 651 LINE",
"545 0 LINE"
);
}
);
width = 1266;
}
);
note = Tbar;
unicode = 0166;
},
{
glyphname = Tcaron;
layers = (
{
layerId = "2811F81C-6B8F-4884-92F2-C07A91FF888C";
paths = (
{
closed = 1;
nodes = (
"713 1610 LINE",
"999 1919 LINE",
"820 1919 LINE",
"640 1719 LINE",
"626 1719 LINE",
"446 1919 LINE",
"267 1919 LINE",
"553 1610 LINE"
);
},
{
closed = 1;
nodes = (
"721 0 LINE",
"721 1281 LINE",
"1157 1281 LINE",
"1157 1443 LINE",
"109 1443 LINE",
"109 1281 LINE",
"545 1281 LINE",
"545 0 LINE"
);
}
);
width = 1266;
}
);
note = Tcaron;
unicode = 0164;
},
{
glyphname = Tcedilla;
layers = (
{
layerId = "2811F81C-6B8F-4884-92F2-C07A91FF888C";
paths = (
{
closed = 1;
nodes = (
"518 -236 LINE",
"575 -236 LINE SMOOTH",
"678 -236 OFFCURVE",
"719 -255 OFFCURVE",
"719 -301 CURVE SMOOTH",
"719 -348 OFFCURVE",
"678 -373 OFFCURVE",
"605 -373 CURVE SMOOTH",
"568 -373 OFFCURVE",
"509 -366 OFFCURVE",
"486 -359 CURVE",
"486 -469 LINE",
"532 -481 OFFCURVE",
"567 -486 OFFCURVE",
"617 -486 CURVE SMOOTH",
"762 -486 OFFCURVE",
"856 -413 OFFCURVE",
"856 -297 CURVE SMOOTH",
"856 -191 OFFCURVE",
"786 -133 OFFCURVE",
"658 -132 CURVE",
"710 0 LINE",
"721 0 LINE",
"721 1281 LINE",
"1157 1281 LINE",
"1157 1443 LINE",
"109 1443 LINE",
"109 1281 LINE",
"545 1281 LINE",
"545 0 LINE",
"579 0 LINE",
"518 -150 LINE"
);
}
);
width = 1266;
}
);
note = Tcedilla;
unicode = 0162;
},
{
glyphname = Tcircumflexbelow;
layers = (
{
layerId = "2811F81C-6B8F-4884-92F2-C07A91FF888C";
paths = (
{
closed = 1;
nodes = (
"721 0 LINE",
"721 1281 LINE",
"1157 1281 LINE",
"1157 1443 LINE",
"109 1443 LINE",
"109 1281 LINE",
"545 1281 LINE",
"545 0 LINE"
);
},
{
closed = 1;
nodes = (
"533 -166 LINE",
"259 -508 LINE",
"453 -508 LINE",
"625 -281 LINE",
"641 -281 LINE",
"813 -508 LINE",
"1007 -508 LINE",
"733 -166 LINE"
);
}
);
width = 1266;
}
);
note = Tcircumflexbelow;
unicode = 1E70;
},
{
glyphname = Tcommaaccent;
layers = (
{
layerId = "2811F81C-6B8F-4884-92F2-C07A91FF888C";
paths = (
{
closed = 1;
nodes = (
"721 0 LINE",
"721 1281 LINE",
"1157 1281 LINE",
"1157 1443 LINE",
"109 1443 LINE",
"109 1281 LINE",
"545 1281 LINE",
"545 0 LINE"
);
},
{
closed = 1;
nodes = (
"600 -503 LINE",
"729 -142 LINE",
"553 -142 LINE",
"443 -503 LINE"
);
}
);
width = 1266;
}
);
note = Tcommaaccent;
unicode = 021A;
},
{
glyphname = Tdotaccent;
layers = (
{
layerId = "2811F81C-6B8F-4884-92F2-C07A91FF888C";
paths = (
{
closed = 1;
nodes = (
"701 1640 OFFCURVE",
"759 1699 OFFCURVE",
"759 1769 CURVE SMOOTH",
"759 1839 OFFCURVE",
"701 1897 OFFCURVE",
"633 1897 CURVE SMOOTH",
"565 1897 OFFCURVE",
"507 1839 OFFCURVE",
"507 1769 CURVE SMOOTH",
"507 1699 OFFCURVE",
"565 1640 OFFCURVE",
"633 1640 CURVE SMOOTH"
);
},
{
closed = 1;
nodes = (
"721 0 LINE",
"721 1281 LINE",
"1157 1281 LINE",
"1157 1443 LINE",
"109 1443 LINE",
"109 1281 LINE",
"545 1281 LINE",
"545 0 LINE"
);
}
);
width = 1266;
}
);
note = Tdotaccent;
unicode = 1E6A;
},
{
glyphname = Tdotbelow;
layers = (
{
layerId = "2811F81C-6B8F-4884-92F2-C07A91FF888C";
paths = (
{
closed = 1;
nodes = (
"721 0 LINE",
"721 1281 LINE",
"1157 1281 LINE",
"1157 1443 LINE",
"109 1443 LINE",
"109 1281 LINE",
"545 1281 LINE",
"545 0 LINE"
);
},
{
closed = 1;
nodes = (
"701 -451 OFFCURVE",
"759 -393 OFFCURVE",
"759 -323 CURVE SMOOTH",
"759 -253 OFFCURVE",
"701 -194 OFFCURVE",
"633 -194 CURVE SMOOTH",
"565 -194 OFFCURVE",
"507 -253 OFFCURVE",
"507 -323 CURVE SMOOTH",
"507 -393 OFFCURVE",
"565 -451 OFFCURVE",
"633 -451 CURVE SMOOTH"
);
}
);
width = 1266;
}
);
note = Tdotbelow;
unicode = 1E6C;
},
{
glyphname = Tlinebelow;
layers = (
{
layerId = "2811F81C-6B8F-4884-92F2-C07A91FF888C";
paths = (
{
closed = 1;
nodes = (
"721 0 LINE",
"721 1281 LINE",
"1157 1281 LINE",
"1157 1443 LINE",
"109 1443 LINE",
"109 1281 LINE",
"545 1281 LINE",
"545 0 LINE"
);
},
{
closed = 1;
nodes = (
"963 -395 LINE",
"963 -256 LINE",
"303 -256 LINE",
"303 -395 LINE"
);
}
);
width = 1266;
}
);
note = Tlinebelow;
unicode = 1E6E;
},
{
glyphname = U;
layers = (
{
layerId = "2811F81C-6B8F-4884-92F2-C07A91FF888C";
paths = (
{
closed = 1;
nodes = (
"423 137 OFFCURVE",
"301 275 OFFCURVE",
"301 512 CURVE SMOOTH",
"301 1443 LINE",
"125 1443 LINE",
"125 501 LINE SMOOTH",
"125 169 OFFCURVE",
"315 -30 OFFCURVE",
"633 -30 CURVE SMOOTH",
"951 -30 OFFCURVE",
"1141 169 OFFCURVE",
"1141 501 CURVE SMOOTH",
"1141 1443 LINE",
"965 1443 LINE",
"965 512 LINE SMOOTH",
"965 275 OFFCURVE",
"843 137 OFFCURVE",
"633 137 CURVE SMOOTH"
);
}
);
width = 1266;
}
);
note = U;
unicode = 0055;
},
{
glyphname = Uacute;
layers = (
{
layerId = "2811F81C-6B8F-4884-92F2-C07A91FF888C";
paths = (
{
closed = 1;
nodes = (
"514 1612 LINE",
"700 1612 LINE",
"1022 1916 LINE",
"815 1916 LINE"
);
},
{
closed = 1;
nodes = (
"423 137 OFFCURVE",
"301 275 OFFCURVE",
"301 512 CURVE SMOOTH",
"301 1443 LINE",
"125 1443 LINE",
"125 501 LINE SMOOTH",
"125 169 OFFCURVE",
"315 -30 OFFCURVE",
"633 -30 CURVE SMOOTH",
"951 -30 OFFCURVE",
"1141 169 OFFCURVE",
"1141 501 CURVE SMOOTH",
"1141 1443 LINE",
"965 1443 LINE",
"965 512 LINE SMOOTH",
"965 275 OFFCURVE",
"843 137 OFFCURVE",
"633 137 CURVE SMOOTH"
);
}
);
width = 1266;
}
);
note = Uacute;
unicode = 00DA;
},
{
glyphname = Ubreve;
layers = (
{
layerId = "2811F81C-6B8F-4884-92F2-C07A91FF888C";
paths = (
{
closed = 1;
nodes = (
"285 1918 LINE",
"285 1736 OFFCURVE",
"425 1609 OFFCURVE",
"631 1609 CURVE SMOOTH",
"836 1609 OFFCURVE",
"976 1736 OFFCURVE",
"976 1918 CURVE",
"837 1918 LINE",
"837 1807 OFFCURVE",
"751 1727 OFFCURVE",
"631 1727 CURVE SMOOTH",
"510 1727 OFFCURVE",
"424 1807 OFFCURVE",
"424 1918 CURVE"
);
},
{
closed = 1;
nodes = (
"423 137 OFFCURVE",
"301 275 OFFCURVE",
"301 512 CURVE SMOOTH",
"301 1443 LINE",
"125 1443 LINE",
"125 501 LINE SMOOTH",
"125 169 OFFCURVE",
"315 -30 OFFCURVE",
"633 -30 CURVE SMOOTH",
"951 -30 OFFCURVE",
"1141 169 OFFCURVE",
"1141 501 CURVE SMOOTH",
"1141 1443 LINE",
"965 1443 LINE",
"965 512 LINE SMOOTH",
"965 275 OFFCURVE",
"843 137 OFFCURVE",
"633 137 CURVE SMOOTH"
);
}
);
width = 1266;
}
);
note = Ubreve;
unicode = 016C;
},
{
glyphname = Ucaron;
layers = (
{
layerId = "2811F81C-6B8F-4884-92F2-C07A91FF888C";
paths = (
{
closed = 1;
nodes = (
"710 1610 LINE",
"997 1919 LINE",
"817 1919 LINE",
"637 1719 LINE",
"624 1719 LINE",
"444 1919 LINE",
"264 1919 LINE",
"551 1610 LINE"
);
},
{
closed = 1;
nodes = (
"423 137 OFFCURVE",
"301 275 OFFCURVE",
"301 512 CURVE SMOOTH",
"301 1443 LINE",
"125 1443 LINE",
"125 501 LINE SMOOTH",
"125 169 OFFCURVE",
"315 -30 OFFCURVE",
"633 -30 CURVE SMOOTH",
"951 -30 OFFCURVE",
"1141 169 OFFCURVE",
"1141 501 CURVE SMOOTH",
"1141 1443 LINE",
"965 1443 LINE",
"965 512 LINE SMOOTH",
"965 275 OFFCURVE",
"843 137 OFFCURVE",
"633 137 CURVE SMOOTH"
);
}
);
width = 1266;
}
);
note = Ucaron;
unicode = 01D3;
},
{
glyphname = Ucircumflex;
layers = (
{
layerId = "2811F81C-6B8F-4884-92F2-C07A91FF888C";
paths = (
{
closed = 1;
nodes = (
"710 1921 LINE",
"551 1921 LINE",
"264 1612 LINE",
"444 1612 LINE",
"624 1812 LINE",
"637 1812 LINE",
"817 1612 LINE",
"997 1612 LINE"
);
},
{
closed = 1;
nodes = (
"423 137 OFFCURVE",
"301 275 OFFCURVE",
"301 512 CURVE SMOOTH",
"301 1443 LINE",
"125 1443 LINE",
"125 501 LINE SMOOTH",
"125 169 OFFCURVE",
"315 -30 OFFCURVE",
"633 -30 CURVE SMOOTH",
"951 -30 OFFCURVE",
"1141 169 OFFCURVE",
"1141 501 CURVE SMOOTH",
"1141 1443 LINE",
"965 1443 LINE",
"965 512 LINE SMOOTH",
"965 275 OFFCURVE",
"843 137 OFFCURVE",
"633 137 CURVE SMOOTH"
);
}
);
width = 1266;
}
);
note = Ucircumflex;
unicode = 00DB;
},
{
glyphname = Ucircumflexbelow;
layers = (
{
layerId = "2811F81C-6B8F-4884-92F2-C07A91FF888C";
paths = (
{
closed = 1;
nodes = (
"423 137 OFFCURVE",
"301 275 OFFCURVE",
"301 512 CURVE SMOOTH",
"301 1443 LINE",
"125 1443 LINE",
"125 501 LINE SMOOTH",
"125 169 OFFCURVE",
"315 -30 OFFCURVE",
"633 -30 CURVE SMOOTH",
"951 -30 OFFCURVE",
"1141 169 OFFCURVE",
"1141 501 CURVE SMOOTH",
"1141 1443 LINE",
"965 1443 LINE",
"965 512 LINE SMOOTH",
"965 275 OFFCURVE",
"843 137 OFFCURVE",
"633 137 CURVE SMOOTH"
);
},
{
closed = 1;
nodes = (
"530 -166 LINE",
"257 -508 LINE",
"451 -508 LINE",
"623 -281 LINE",
"638 -281 LINE",
"810 -508 LINE",
"1004 -508 LINE",
"731 -166 LINE"
);
}
);
width = 1266;
}
);
note = Ucircumflexbelow;
unicode = 1E76;
},
